<svg width="51" height="53" viewBox="0 0 51 53" fill="none" xmlns="http://www.w3.org/2000/svg">
<g clip-path="url(#clip0_63_280)">
<path d="M0 31.1384C0 25.1255 0 19.1126 0 13.0996C0.0017 10.6035 1.3532 9.24258 3.8301 9.24087C10.0929 9.23917 16.3557 9.24771 22.6185 9.23233C23.6181 9.22891 24.4205 9.55546 25.1226 10.2701C27.2731 12.4602 29.4355 14.6383 31.6149 16.7976C32.3493 17.526 32.6655 18.3603 32.6638 19.3946C32.6485 29.3108 32.6553 39.2286 32.6536 49.1447C32.6536 51.6494 31.3055 53.0206 28.8405 53.0206C20.4816 53.0223 12.121 53.024 3.7621 53.0206C1.394 53.0206 0.0034 51.6306 0.0017 49.2627C-0.0017 43.2207 0.0017 37.1804 0.0017 31.1384H0ZM22.4468 10.6137C22.0949 10.6137 21.845 10.6137 21.5968 10.6137C15.6757 10.6137 9.7529 10.6137 3.8318 10.6137C2.1029 10.6137 1.3685 11.3626 1.3685 13.1253C1.3685 25.1221 1.3685 37.1172 1.3685 49.114C1.3685 50.9245 2.091 51.6477 3.8947 51.6477C12.1686 51.6477 20.4425 51.6477 28.7147 51.6477C30.5745 51.6477 31.2885 50.9348 31.2885 49.0746C31.2885 39.5295 31.2885 29.9844 31.2885 20.4376C31.2885 20.1384 31.2885 19.8392 31.2885 19.5041C29.461 19.5041 27.7627 19.5109 26.0644 19.5024C23.8714 19.4904 22.4587 18.0662 22.4485 15.859C22.44 14.1528 22.4468 12.4448 22.4468 10.612V10.6137ZM23.817 11.1437C23.817 12.8244 23.7898 14.505 23.8272 16.1822C23.8493 17.1772 24.6007 18.0526 25.5629 18.0919C27.302 18.1637 29.0462 18.1124 30.7462 18.1124C28.4376 15.7889 26.1477 13.486 23.817 11.142V11.1437Z" fill="#673957"/>
<path d="M22.4467 10.6136C22.4467 12.4464 22.4399 14.1527 22.4484 15.8606C22.4603 18.0696 23.8713 19.492 26.0643 19.504C27.7626 19.5142 29.4609 19.5057 31.2884 19.5057C31.2884 19.8408 31.2884 20.14 31.2884 20.4392C31.2884 29.9843 31.2884 39.5294 31.2884 49.0763C31.2884 50.9347 30.5744 51.6476 28.7146 51.6493C20.4407 51.6493 12.1668 51.6493 3.89461 51.6493C2.09091 51.6493 1.36841 50.9244 1.36841 49.1156C1.36841 37.1188 1.36841 25.1237 1.36841 13.1269C1.36841 11.3659 2.10281 10.6171 3.83171 10.6154C9.75281 10.6136 15.6756 10.6154 21.5967 10.6154C21.8466 10.6154 22.0965 10.6154 22.4467 10.6154V10.6136Z" fill="#C599B6"/>
<path d="M23.8169 11.1437C26.1476 13.4876 28.4358 15.7906 30.7461 18.114C29.0444 18.114 27.3019 18.1653 25.5628 18.0935C24.6006 18.0542 23.8509 17.1788 23.8271 16.1838C23.7897 14.5049 23.8169 12.826 23.8169 11.1454V11.1437Z" fill="#FAD0C4"/>
</g>
<defs>
<clipPath id="clip0_63_280">
<rect width="51" height="53" fill="white"/>
</clipPath>
</defs>
</svg>
