<svg width="1920" height="1080" viewBox="0 0 1920 1080" fill="none" xmlns="http://www.w3.org/2000/svg">
<g opacity="0.5" clip-path="url(#clip0_69_8)">
<path d="M1515 698.008C1515 646.675 1556.73 604.978 1608.09 605C1659.45 605.022 1701.03 646.697 1701 698.129C1700.97 749.543 1659.39 791.022 1607.89 791C1556.6 790.981 1515 749.34 1515 698.008ZM1524.34 697.998C1524.37 744.215 1561.79 781.657 1607.96 781.666C1654.29 781.675 1691.66 744.311 1691.66 697.974C1691.66 651.751 1654.09 614.25 1607.86 614.337C1561.8 614.421 1524.31 651.978 1524.34 697.998Z" fill="#E6B2BA"/>
<path d="M1606.06 754.69C1590.39 753.838 1576.75 746.246 1567.39 731.248C1565.73 728.579 1566.33 725.749 1568.7 724.334C1571.1 722.897 1573.7 723.771 1575.41 726.452C1583.5 739.129 1595.03 745.922 1610.13 745.114C1623.29 744.408 1633.4 737.776 1640.41 726.567C1641.3 725.139 1642.32 723.979 1644.08 723.749C1645.98 723.497 1647.58 724.107 1648.66 725.73C1649.76 727.394 1649.73 729.142 1648.74 730.862C1645.67 736.178 1641.72 740.737 1636.85 744.473C1628.33 751.011 1618.73 754.535 1606.06 754.69Z" fill="#E6B2BA"/>
<path d="M1644.65 671.073C1644.64 677.016 1639.82 681.797 1633.85 681.775C1627.98 681.753 1623.2 676.963 1623.19 671.097C1623.18 665.126 1627.96 660.317 1633.91 660.314C1639.86 660.314 1644.66 665.119 1644.65 671.073Z" fill="#E6B2BA"/>
<path d="M1582.14 681.775C1576.19 681.775 1571.38 676.957 1571.4 671.007C1571.41 665.064 1576.24 660.289 1582.21 660.314C1588.08 660.339 1592.86 665.135 1592.87 671.001C1592.87 676.967 1588.09 681.772 1582.14 681.772V681.775Z" fill="#E6B2BA"/>
</g>
<g opacity="0.5" clip-path="url(#clip1_69_8)">
<path d="M50 1020.01C49.9971 971.435 89.4846 931.979 138.081 932C186.683 932.021 226.029 971.455 226 1020.12C225.973 1068.77 186.627 1108.02 137.898 1108C89.3639 1107.98 50.0029 1068.58 50 1020.01ZM58.8352 1020C58.8617 1063.73 94.273 1099.16 137.96 1099.17C181.798 1099.18 217.159 1063.82 217.162 1019.97C217.165 976.238 181.609 940.753 137.863 940.835C94.2847 940.915 58.8087 976.453 58.8352 1020Z" fill="#E6B2BA"/>
<path d="M136.168 1073.64C121.335 1072.84 108.426 1065.65 99.5764 1051.46C98.0019 1048.94 98.5669 1046.26 100.81 1044.92C103.088 1043.56 105.542 1044.39 107.161 1046.92C114.819 1058.92 125.732 1065.35 140.012 1064.58C152.473 1063.91 162.035 1057.64 168.666 1047.03C169.51 1045.68 170.476 1044.58 172.135 1044.36C173.943 1044.13 175.449 1044.7 176.471 1046.24C177.515 1047.81 177.486 1049.47 176.547 1051.1C173.642 1056.13 169.908 1060.44 165.302 1063.97C157.238 1070.16 148.155 1073.5 136.168 1073.64Z" fill="#E6B2BA"/>
<path d="M172.68 994.52C172.671 1000.14 168.106 1004.67 162.464 1004.65C156.905 1004.63 152.378 1000.09 152.373 994.544C152.367 988.893 156.887 984.343 162.514 984.34C168.145 984.34 172.689 988.887 172.68 994.52Z" fill="#E6B2BA"/>
<path d="M113.527 1004.65C107.897 1004.65 103.347 1000.09 103.364 994.458C103.382 988.834 107.947 984.316 113.594 984.34C119.148 984.363 123.674 988.902 123.68 994.452C123.686 1000.1 119.157 1004.64 113.527 1004.64V1004.65Z" fill="#E6B2BA"/>
</g>
<g opacity="0.2" clip-path="url(#clip2_69_8)">
<path d="M699 1044.51C698.998 1009.46 727.492 980.985 762.558 981C797.629 981.015 826.021 1009.47 826 1044.59C825.981 1079.69 797.589 1108.01 762.427 1108C727.405 1107.99 699.002 1079.56 699 1044.51ZM705.375 1044.5C705.394 1076.06 730.947 1101.62 762.471 1101.63C794.104 1101.63 819.62 1076.12 819.622 1044.48C819.625 1012.92 793.968 987.316 762.401 987.375C730.955 987.433 705.356 1013.08 705.375 1044.5Z" fill="#E6B2BA"/>
<path d="M761.178 1083.21C750.475 1082.63 741.16 1077.44 734.774 1067.2C733.638 1065.38 734.045 1063.45 735.664 1062.48C737.308 1061.5 739.079 1062.1 740.247 1063.93C745.773 1072.58 753.647 1077.22 763.952 1076.67C772.943 1076.19 779.843 1071.66 784.628 1064.01C785.238 1063.03 785.934 1062.24 787.132 1062.08C788.436 1061.91 789.523 1062.33 790.26 1063.43C791.014 1064.57 790.993 1065.76 790.315 1066.94C788.219 1070.57 785.524 1073.68 782.201 1076.23C776.382 1080.7 769.828 1083.1 761.178 1083.21Z" fill="#E6B2BA"/>
<path d="M787.525 1026.11C787.518 1030.17 784.225 1033.44 780.153 1033.42C776.142 1033.41 772.875 1030.14 772.871 1026.13C772.867 1022.05 776.129 1018.77 780.189 1018.77C784.252 1018.77 787.531 1022.05 787.525 1026.11Z" fill="#E6B2BA"/>
<path d="M744.84 1033.42C740.778 1033.42 737.494 1030.13 737.507 1026.07C737.52 1022.01 740.814 1018.75 744.889 1018.77C748.897 1018.79 752.163 1022.06 752.167 1026.07C752.171 1030.14 748.903 1033.42 744.84 1033.42V1033.42Z" fill="#E6B2BA"/>
</g>
<g opacity="0.1" clip-path="url(#clip3_69_8)">
<path d="M757 82.5069C756.997 36.9699 794.017 -0.0193065 839.576 7.56025e-06C885.141 0.0193216 922.028 36.9892 922 82.6145C921.975 128.223 885.088 165.019 839.405 165C793.904 164.983 757.003 128.044 757 82.5069ZM765.283 82.4986C765.308 123.497 798.506 156.712 839.463 156.72C880.56 156.728 913.712 123.582 913.714 82.4766C913.717 41.4728 880.384 8.20572 839.372 8.28298C798.517 8.35748 765.258 41.6742 765.283 82.4986Z" fill="#E6B2BA"/>
<path d="M837.782 132.79C823.876 132.034 811.775 125.299 803.478 111.994C802.002 109.627 802.532 107.116 804.634 105.861C806.77 104.586 809.071 105.361 810.588 107.74C817.768 118.986 827.998 125.012 841.386 124.294C853.068 123.668 862.033 117.786 868.249 107.842C869.041 106.575 869.946 105.546 871.502 105.342C873.196 105.118 874.609 105.659 875.566 107.099C876.546 108.576 876.518 110.126 875.638 111.652C872.915 116.367 869.413 120.412 865.095 123.726C857.535 129.526 849.02 132.652 837.782 132.79Z" fill="#E6B2BA"/>
<path d="M872.012 58.6128C872.004 63.8855 867.725 68.1263 862.435 68.107C857.223 68.0877 852.98 63.8386 852.974 58.6348C852.969 53.3373 857.207 49.0716 862.482 49.0688C867.761 49.0688 872.021 53.3317 872.012 58.6128Z" fill="#E6B2BA"/>
<path d="M816.556 68.1071C811.278 68.1071 807.012 63.8332 807.029 58.5549C807.045 53.2822 811.325 49.0469 816.62 49.0689C821.826 49.091 826.07 53.3456 826.075 58.5494C826.081 63.8414 821.835 68.1043 816.556 68.1043V68.1071Z" fill="#E6B2BA"/>
</g>
<g opacity="0.1" clip-path="url(#clip4_69_8)">
<path d="M108 715.505C107.998 682.663 134.697 655.986 167.555 656C200.416 656.014 227.02 682.677 227 715.583C226.982 748.476 200.379 775.014 167.431 775C134.615 774.988 108.002 748.347 108 715.505ZM113.974 715.499C113.992 745.067 137.935 769.022 167.473 769.028C197.113 769.034 221.022 745.129 221.024 715.483C221.026 685.911 196.986 661.918 167.407 661.974C137.943 662.028 113.956 686.056 113.974 715.499Z" fill="#E6B2BA"/>
<path d="M166.261 751.769C156.232 751.224 147.504 746.367 141.52 736.771C140.456 735.064 140.838 733.253 142.354 732.348C143.894 731.428 145.554 731.987 146.648 733.703C151.826 741.814 159.205 746.16 168.86 745.642C177.285 745.191 183.751 740.948 188.234 733.776C188.805 732.863 189.458 732.121 190.58 731.974C191.802 731.812 192.821 732.202 193.511 733.241C194.218 734.306 194.198 735.424 193.563 736.525C191.599 739.925 189.074 742.843 185.96 745.232C180.507 749.415 174.366 751.67 166.261 751.769Z" fill="#E6B2BA"/>
<path d="M190.948 698.272C190.942 702.075 187.856 705.134 184.041 705.12C180.282 705.106 177.222 702.041 177.218 698.288C177.214 694.468 180.27 691.391 184.075 691.389C187.882 691.389 190.954 694.464 190.948 698.272Z" fill="#E6B2BA"/>
<path d="M150.953 705.119C147.146 705.119 144.07 702.037 144.081 698.23C144.093 694.427 147.18 691.373 150.998 691.389C154.753 691.405 157.814 694.473 157.818 698.226C157.822 702.043 154.759 705.117 150.953 705.117V705.119Z" fill="#E6B2BA"/>
</g>
<g opacity="0.3" clip-path="url(#clip5_69_8)">
<path d="M543 204.504C542.998 178.838 563.864 157.989 589.543 158C615.225 158.011 636.016 178.848 636 204.565C635.986 230.271 615.195 251.011 589.446 251C563.8 250.991 543.002 230.17 543 204.504ZM547.669 204.499C547.683 227.607 566.394 246.328 589.479 246.333C612.643 246.338 631.328 227.656 631.33 204.487C631.331 181.376 612.544 162.625 589.428 162.669C566.4 162.711 547.655 181.489 547.669 204.499Z" fill="#E6B2BA"/>
<path d="M588.532 232.845C580.694 232.419 573.873 228.623 569.197 221.124C568.365 219.79 568.663 218.374 569.848 217.667C571.052 216.948 572.349 217.385 573.204 218.726C577.251 225.065 583.017 228.461 590.563 228.057C597.147 227.704 602.2 224.388 605.704 218.783C606.15 218.07 606.66 217.489 607.538 217.374C608.492 217.248 609.289 217.553 609.828 218.365C610.38 219.197 610.365 220.071 609.869 220.931C608.334 223.589 606.36 225.869 603.926 227.736C599.665 231.005 594.866 232.767 588.532 232.845Z" fill="#E6B2BA"/>
<path d="M607.825 191.036C607.821 194.008 605.408 196.398 602.427 196.387C599.49 196.376 597.098 193.981 597.095 191.048C597.091 188.063 599.48 185.658 602.454 185.657C605.429 185.657 607.83 188.059 607.825 191.036Z" fill="#E6B2BA"/>
<path d="M576.568 196.387C573.593 196.387 571.189 193.978 571.198 191.003C571.207 188.032 573.619 185.644 576.604 185.657C579.538 185.669 581.93 188.067 581.933 191C581.936 193.983 579.543 196.386 576.568 196.386V196.387Z" fill="#E6B2BA"/>
</g>
<g opacity="0.3" clip-path="url(#clip6_69_8)">
<path d="M1128 1017.01C1128 965.675 1169.73 923.978 1221.09 924C1272.45 924.022 1314.03 965.697 1314 1017.13C1313.97 1068.54 1272.39 1110.02 1220.89 1110C1169.6 1109.98 1128 1068.34 1128 1017.01ZM1137.34 1017C1137.37 1063.21 1174.79 1100.66 1220.96 1100.67C1267.29 1100.68 1304.66 1063.31 1304.66 1016.97C1304.66 970.751 1267.09 933.25 1220.86 933.337C1174.8 933.421 1137.31 970.978 1137.34 1017Z" fill="#E6B2BA"/>
<path d="M1219.06 1073.69C1203.39 1072.84 1189.75 1065.25 1180.39 1050.25C1178.73 1047.58 1179.33 1044.75 1181.7 1043.33C1184.1 1041.9 1186.7 1042.77 1188.41 1045.45C1196.5 1058.13 1208.03 1064.92 1223.13 1064.11C1236.29 1063.41 1246.4 1056.78 1253.41 1045.57C1254.3 1044.14 1255.32 1042.98 1257.08 1042.75C1258.98 1042.5 1260.58 1043.11 1261.66 1044.73C1262.76 1046.39 1262.73 1048.14 1261.74 1049.86C1258.67 1055.18 1254.72 1059.74 1249.85 1063.47C1241.33 1070.01 1231.73 1073.53 1219.06 1073.69Z" fill="#E6B2BA"/>
<path d="M1257.65 990.073C1257.64 996.016 1252.82 1000.8 1246.85 1000.78C1240.98 1000.75 1236.2 995.963 1236.19 990.097C1236.18 984.126 1240.96 979.317 1246.91 979.314C1252.86 979.314 1257.66 984.119 1257.65 990.073Z" fill="#E6B2BA"/>
<path d="M1195.14 1000.78C1189.19 1000.78 1184.38 995.957 1184.4 990.007C1184.41 984.064 1189.24 979.289 1195.21 979.314C1201.08 979.339 1205.86 984.135 1205.87 990.001C1205.87 995.967 1201.09 1000.77 1195.14 1000.77V1000.78Z" fill="#E6B2BA"/>
</g>
<g opacity="0.5" clip-path="url(#clip7_69_8)">
<path d="M-58 257.008C-58.0031 205.675 -16.272 163.978 35.0855 164C86.4493 164.022 128.031 205.697 128 257.129C127.972 308.543 86.3902 350.022 34.8927 350C-16.3995 349.981 -57.9969 308.34 -58 257.008ZM-48.6628 256.998C-48.6348 303.215 -11.2115 340.657 34.958 340.666C81.2862 340.675 118.657 303.311 118.66 256.974C118.663 210.751 81.0871 173.25 34.8554 173.337C-11.1991 173.421 -48.6908 210.978 -48.6628 256.998Z" fill="#E6B2BA"/>
<path d="M33.0638 313.69C17.3878 312.838 3.74598 305.246 -5.60674 290.248C-7.27076 287.579 -6.67358 284.749 -4.30352 283.334C-1.89613 281.897 0.697873 282.771 2.40855 285.452C10.5016 298.129 22.0346 304.922 37.1259 304.114C50.295 303.408 60.4004 296.776 67.4079 285.567C68.3006 284.139 69.3208 282.979 71.075 282.749C72.9847 282.497 74.5772 283.107 75.6565 284.73C76.7607 286.394 76.7295 288.142 75.7374 289.862C72.6675 295.178 68.7205 299.737 63.8528 303.473C55.3306 310.011 45.7321 313.535 33.0638 313.69Z" fill="#E6B2BA"/>
<path d="M71.6504 230.073C71.6411 236.016 66.817 240.797 60.8545 240.775C54.9791 240.753 50.1954 235.963 50.1892 230.097C50.183 224.126 54.9604 219.317 60.9074 219.314C66.8574 219.314 71.6597 224.119 71.6504 230.073Z" fill="#E6B2BA"/>
<path d="M9.13617 240.775C3.18614 240.775 -1.62241 235.957 -1.60375 230.007C-1.58509 224.064 3.23901 219.289 9.20771 219.314C15.0769 219.339 19.8605 224.135 19.8668 230.001C19.873 235.967 15.0862 240.772 9.13617 240.772V240.775Z" fill="#E6B2BA"/>
</g>
<g opacity="0.5" clip-path="url(#clip8_69_8)">
<path d="M306 950.505C305.998 914.352 335.389 884.985 371.56 885C407.736 885.015 437.022 914.367 437 950.591C436.98 986.802 407.694 1016.02 371.424 1016C335.299 1015.99 306.002 986.659 306 950.505ZM312.576 950.499C312.596 983.049 338.953 1009.42 371.47 1009.43C404.099 1009.43 430.419 983.117 430.422 950.481C430.424 917.927 403.959 891.515 371.398 891.576C338.962 891.635 312.556 918.087 312.576 950.499Z" fill="#E6B2BA"/>
<path d="M370.136 990.427C359.096 989.827 349.488 984.479 342.901 973.916C341.729 972.037 342.149 970.043 343.818 969.047C345.514 968.035 347.341 968.65 348.546 970.538C354.246 979.467 362.368 984.252 372.997 983.682C382.272 983.185 389.39 978.514 394.325 970.62C394.954 969.614 395.672 968.797 396.908 968.635C398.253 968.457 399.374 968.887 400.134 970.03C400.912 971.202 400.89 972.433 400.191 973.645C398.029 977.388 395.249 980.6 391.821 983.231C385.819 987.835 379.059 990.317 370.136 990.427Z" fill="#E6B2BA"/>
<path d="M397.313 931.535C397.306 935.721 393.909 939.088 389.709 939.073C385.571 939.057 382.202 935.684 382.198 931.552C382.193 927.346 385.558 923.96 389.747 923.958C393.937 923.958 397.319 927.342 397.313 931.535Z" fill="#E6B2BA"/>
<path d="M353.284 939.073C349.093 939.073 345.707 935.679 345.72 931.489C345.733 927.303 349.131 923.94 353.334 923.958C357.468 923.975 360.837 927.353 360.842 931.484C360.846 935.686 357.475 939.071 353.284 939.071V939.073Z" fill="#E6B2BA"/>
</g>
<g opacity="0.5" clip-path="url(#clip9_69_8)">
<path d="M1144 43.0068C1144 -1.7023 1182.14 -38.019 1229.08 -38C1276.02 -37.981 1314.03 -1.68334 1314 43.1124C1313.97 87.8919 1275.97 124.019 1228.9 124C1182.02 123.984 1144 87.7159 1144 43.0068ZM1152.53 42.9986C1152.56 83.2514 1186.76 115.862 1228.96 115.87C1271.3 115.878 1305.46 83.3354 1305.46 42.977C1305.47 2.71876 1271.12 -29.9435 1228.87 -29.8676C1186.78 -29.7945 1152.51 2.91651 1152.53 42.9986Z" fill="#E6B2BA"/>
<path d="M1227.23 92.3752C1212.9 91.6329 1200.43 85.0203 1191.89 71.9575C1190.37 69.6332 1190.91 67.1681 1193.08 65.9355C1195.28 64.6839 1197.65 65.4451 1199.21 67.7803C1206.61 78.8221 1217.15 84.7385 1230.94 84.0342C1242.98 83.4193 1252.22 77.6437 1258.62 67.8805C1259.44 66.6371 1260.37 65.6266 1261.97 65.4262C1263.72 65.2067 1265.17 65.7377 1266.16 67.1518C1267.17 68.6011 1267.14 70.1236 1266.23 71.6216C1263.43 76.2513 1259.82 80.2227 1255.37 83.4761C1247.58 89.1704 1238.81 92.2397 1227.23 92.3752Z" fill="#E6B2BA"/>
<path d="M1262.5 19.5471C1262.49 24.724 1258.08 28.8877 1252.63 28.8688C1247.26 28.8498 1242.89 24.678 1242.88 19.5688C1242.88 14.3676 1247.24 10.1795 1252.68 10.1768C1258.12 10.1768 1262.51 14.3621 1262.5 19.5471Z" fill="#E6B2BA"/>
<path d="M1205.36 28.8683C1199.92 28.8683 1195.53 24.6721 1195.54 19.4898C1195.56 14.313 1199.97 10.1547 1205.43 10.1764C1210.79 10.198 1215.16 14.3753 1215.17 19.4844C1215.17 24.6803 1210.8 28.8656 1205.36 28.8656V28.8683Z" fill="#E6B2BA"/>
</g>
<g opacity="0.5" clip-path="url(#clip10_69_8)">
<path d="M1784 1017.01C1784 965.675 1825.73 923.978 1877.09 924C1928.45 924.022 1970.03 965.697 1970 1017.13C1969.97 1068.54 1928.39 1110.02 1876.89 1110C1825.6 1109.98 1784 1068.34 1784 1017.01ZM1793.34 1017C1793.37 1063.21 1830.79 1100.66 1876.96 1100.67C1923.29 1100.68 1960.66 1063.31 1960.66 1016.97C1960.66 970.751 1923.09 933.25 1876.86 933.337C1830.8 933.421 1793.31 970.978 1793.34 1017Z" fill="#E6B2BA"/>
<path d="M1875.06 1073.69C1859.39 1072.84 1845.75 1065.25 1836.39 1050.25C1834.73 1047.58 1835.33 1044.75 1837.7 1043.33C1840.1 1041.9 1842.7 1042.77 1844.41 1045.45C1852.5 1058.13 1864.03 1064.92 1879.13 1064.11C1892.29 1063.41 1902.4 1056.78 1909.41 1045.57C1910.3 1044.14 1911.32 1042.98 1913.08 1042.75C1914.98 1042.5 1916.58 1043.11 1917.66 1044.73C1918.76 1046.39 1918.73 1048.14 1917.74 1049.86C1914.67 1055.18 1910.72 1059.74 1905.85 1063.47C1897.33 1070.01 1887.73 1073.53 1875.06 1073.69Z" fill="#E6B2BA"/>
<path d="M1913.65 990.073C1913.64 996.016 1908.82 1000.8 1902.85 1000.78C1896.98 1000.75 1892.2 995.963 1892.19 990.097C1892.18 984.126 1896.96 979.317 1902.91 979.314C1908.86 979.314 1913.66 984.119 1913.65 990.073Z" fill="#E6B2BA"/>
<path d="M1851.14 1000.78C1845.19 1000.78 1840.38 995.957 1840.4 990.007C1840.41 984.064 1845.24 979.289 1851.21 979.314C1857.08 979.339 1861.86 984.135 1861.87 990.001C1861.87 995.967 1857.09 1000.77 1851.14 1000.77V1000.78Z" fill="#E6B2BA"/>
</g>
<g opacity="0.5" clip-path="url(#clip11_69_8)">
<path d="M1608 182.008C1608 130.675 1649.73 88.9782 1701.09 89C1752.45 89.0218 1794.03 130.697 1794 182.129C1793.97 233.543 1752.39 275.022 1700.89 275C1649.6 274.981 1608 233.34 1608 182.008ZM1617.34 181.998C1617.37 228.215 1654.79 265.657 1700.96 265.666C1747.29 265.675 1784.66 228.311 1784.66 181.974C1784.66 135.751 1747.09 98.2501 1700.86 98.3372C1654.8 98.4212 1617.31 135.978 1617.34 181.998Z" fill="#E6B2BA"/>
<path d="M1699.06 238.69C1683.39 237.838 1669.75 230.246 1660.39 215.248C1658.73 212.579 1659.33 209.749 1661.7 208.334C1664.1 206.897 1666.7 207.771 1668.41 210.452C1676.5 223.129 1688.03 229.922 1703.13 229.114C1716.29 228.408 1726.4 221.776 1733.41 210.567C1734.3 209.139 1735.32 207.979 1737.08 207.749C1738.98 207.497 1740.58 208.107 1741.66 209.73C1742.76 211.394 1742.73 213.142 1741.74 214.862C1738.67 220.178 1734.72 224.737 1729.85 228.473C1721.33 235.011 1711.73 238.535 1699.06 238.69Z" fill="#E6B2BA"/>
<path d="M1737.65 155.073C1737.64 161.016 1732.82 165.797 1726.85 165.775C1720.98 165.753 1716.2 160.963 1716.19 155.097C1716.18 149.126 1720.96 144.317 1726.91 144.314C1732.86 144.314 1737.66 149.119 1737.65 155.073Z" fill="#E6B2BA"/>
<path d="M1675.14 165.775C1669.19 165.775 1664.38 160.957 1664.4 155.007C1664.41 149.064 1669.24 144.289 1675.21 144.314C1681.08 144.339 1685.86 149.135 1685.87 155.001C1685.87 160.967 1681.09 165.772 1675.14 165.772V165.775Z" fill="#E6B2BA"/>
</g>
<g opacity="0.5" clip-path="url(#clip12_69_8)">
<path d="M1872 200.004C1872 173.51 1893.54 151.989 1920.04 152C1946.55 152.011 1968.02 173.521 1968 200.067C1967.99 226.603 1946.52 248.011 1919.94 248C1893.47 247.99 1872 226.498 1872 200.004ZM1876.82 199.999C1876.83 223.853 1896.15 243.178 1919.98 243.182C1943.89 243.187 1963.18 223.902 1963.18 199.986C1963.18 176.13 1943.79 156.774 1919.93 156.819C1896.16 156.863 1876.8 176.247 1876.82 199.999Z" fill="#E6B2BA"/>
<path d="M1919 229.259C1910.91 228.82 1903.87 224.901 1899.04 217.16C1898.18 215.783 1898.49 214.322 1899.71 213.591C1900.96 212.85 1902.3 213.301 1903.18 214.685C1907.36 221.228 1913.31 224.734 1921.1 224.317C1927.89 223.952 1933.11 220.53 1936.73 214.744C1937.19 214.007 1937.71 213.408 1938.62 213.29C1939.61 213.16 1940.43 213.474 1940.98 214.312C1941.55 215.171 1941.54 216.073 1941.03 216.961C1939.44 219.704 1937.4 222.058 1934.89 223.986C1930.49 227.36 1925.54 229.179 1919 229.259Z" fill="#E6B2BA"/>
<path d="M1906.65 191.626C1903.58 191.626 1901.1 189.139 1901.11 186.068C1901.12 183 1903.61 180.536 1906.69 180.549C1909.72 180.562 1912.19 183.037 1912.19 186.065C1912.19 189.144 1909.72 191.624 1906.65 191.624V191.626Z" fill="#E6B2BA"/>
</g>
<g opacity="0.5" clip-path="url(#clip13_69_8)">
<path d="M264 64.0045C263.998 34.1985 288.229 9.98736 318.05 10C347.874 10.0126 372.018 34.2111 372 64.075C371.984 93.928 347.839 118.013 317.938 118C288.155 117.989 264.002 93.8106 264 64.0045ZM269.422 63.9991C269.438 90.8343 291.168 112.575 317.976 112.58C344.876 112.586 366.575 90.8903 366.577 63.9847C366.578 37.1458 344.76 15.371 317.916 15.4216C291.175 15.4703 269.405 37.2777 269.422 63.9991Z" fill="#E6B2BA"/>
<path d="M316.876 96.9169C307.774 96.4221 299.853 92.0137 294.422 83.3052C293.456 81.7556 293.802 80.1122 295.179 79.2905C296.576 78.4561 298.083 78.9636 299.076 80.5204C303.775 87.8816 310.472 91.8258 319.234 91.3563C326.881 90.9463 332.749 87.096 336.818 80.5872C337.336 79.7582 337.928 79.0846 338.947 78.9509C340.056 78.8047 340.98 79.1586 341.607 80.1014C342.248 81.0676 342.23 82.0825 341.654 83.0812C339.871 86.1677 337.58 88.8153 334.753 90.9843C329.805 94.7804 324.232 96.8266 316.876 96.9169Z" fill="#E6B2BA"/>
<path d="M339.281 48.3646C339.275 51.8158 336.474 54.5916 333.012 54.579C329.601 54.5664 326.823 51.7851 326.82 48.379C326.816 44.9115 329.59 42.1195 333.043 42.1177C336.498 42.1177 339.286 44.9079 339.281 48.3646Z" fill="#E6B2BA"/>
<path d="M302.982 54.5791C299.527 54.5791 296.735 51.7816 296.746 48.3267C296.757 44.8755 299.558 42.1033 303.024 42.1177C306.432 42.1322 309.209 44.917 309.213 48.3231C309.217 51.787 306.437 54.5773 302.982 54.5773V54.5791Z" fill="#E6B2BA"/>
</g>
<g opacity="0.5" clip-path="url(#clip14_69_8)">
<path d="M1779 631.005C1779 597.887 1805.92 570.986 1839.06 571C1872.19 571.014 1899.02 597.901 1899 631.083C1898.98 664.253 1872.15 691.014 1838.93 691C1805.84 690.988 1779 664.123 1779 631.005ZM1785.02 630.999C1785.04 660.816 1809.19 684.972 1838.97 684.978C1868.86 684.984 1892.97 660.878 1892.97 630.983C1892.98 601.162 1868.73 576.968 1838.91 577.024C1809.19 577.078 1785.01 601.309 1785.02 630.999Z" fill="#E6B2BA"/>
<path d="M1837.75 667.574C1827.64 667.025 1818.84 662.126 1812.8 652.45C1811.73 650.729 1812.11 648.903 1813.64 647.99C1815.2 647.062 1816.87 647.626 1817.97 649.356C1823.19 657.535 1830.64 661.918 1840.37 661.396C1848.87 660.94 1855.39 656.662 1859.91 649.43C1860.48 648.509 1861.14 647.761 1862.27 647.612C1863.51 647.45 1864.53 647.843 1865.23 648.891C1865.94 649.964 1865.92 651.092 1865.28 652.201C1863.3 655.631 1860.76 658.573 1857.61 660.983C1852.12 665.201 1845.92 667.474 1837.75 667.574Z" fill="#E6B2BA"/>
<path d="M1862.65 613.628C1862.64 617.462 1859.53 620.546 1855.68 620.532C1851.89 620.518 1848.8 617.428 1848.8 613.644C1848.8 609.791 1851.88 606.689 1855.71 606.687C1859.55 606.687 1862.65 609.787 1862.65 613.628Z" fill="#E6B2BA"/>
<path d="M1822.31 620.533C1818.47 620.533 1815.37 617.424 1815.38 613.585C1815.4 609.751 1818.51 606.671 1822.36 606.687C1826.15 606.703 1829.23 609.797 1829.24 613.581C1829.24 617.43 1826.15 620.531 1822.31 620.531V620.533Z" fill="#E6B2BA"/>
</g>
<defs>
<clipPath id="clip0_69_8">
<rect width="186" height="186" fill="white" transform="translate(1515 605)"/>
</clipPath>
<clipPath id="clip1_69_8">
<rect width="176" height="176" fill="white" transform="translate(50 932)"/>
</clipPath>
<clipPath id="clip2_69_8">
<rect width="127" height="127" fill="white" transform="translate(699 981)"/>
</clipPath>
<clipPath id="clip3_69_8">
<rect width="165" height="165" fill="white" transform="translate(757)"/>
</clipPath>
<clipPath id="clip4_69_8">
<rect width="119" height="119" fill="white" transform="translate(108 656)"/>
</clipPath>
<clipPath id="clip5_69_8">
<rect width="93" height="93" fill="white" transform="translate(543 158)"/>
</clipPath>
<clipPath id="clip6_69_8">
<rect width="186" height="186" fill="white" transform="translate(1128 924)"/>
</clipPath>
<clipPath id="clip7_69_8">
<rect width="186" height="186" fill="white" transform="translate(-58 164)"/>
</clipPath>
<clipPath id="clip8_69_8">
<rect width="131" height="131" fill="white" transform="translate(306 885)"/>
</clipPath>
<clipPath id="clip9_69_8">
<rect width="170" height="162" fill="white" transform="translate(1144 -38)"/>
</clipPath>
<clipPath id="clip10_69_8">
<rect width="186" height="186" fill="white" transform="translate(1784 924)"/>
</clipPath>
<clipPath id="clip11_69_8">
<rect width="186" height="186" fill="white" transform="translate(1608 89)"/>
</clipPath>
<clipPath id="clip12_69_8">
<rect width="96" height="96" fill="white" transform="translate(1872 152)"/>
</clipPath>
<clipPath id="clip13_69_8">
<rect width="108" height="108" fill="white" transform="translate(264 10)"/>
</clipPath>
<clipPath id="clip14_69_8">
<rect width="120" height="120" fill="white" transform="translate(1779 571)"/>
</clipPath>
</defs>
</svg>
