<svg width="578" height="957" viewBox="0 0 578 957" fill="none" xmlns="http://www.w3.org/2000/svg">
<g clip-path="url(#clip0_4_569)">
<path d="M51.7035 161.44C287.359 107.959 523.015 54.4136 758.704 1.18979C765.713 -0.386022 773.784 -0.418182 780.761 1.28627C986.45 51.262 1192.07 101.527 1397.7 151.792C1400.82 152.564 1403.84 153.69 1406.89 154.655C1400.78 156.488 1394.8 158.867 1388.6 160.025C1288.5 178.774 1188.34 197.298 1088.25 216.079C970.309 238.205 852.4 260.427 734.524 282.842C702.081 289.017 669.798 295.963 637.451 302.556C631.278 302.556 625.104 302.556 618.963 302.556C604.397 299.565 589.767 296.96 575.298 293.487C530.475 282.746 485.717 271.715 440.927 260.781C397.133 250.104 353.307 239.684 309.61 228.653C268.421 218.266 227.553 206.688 186.268 196.655C151.348 188.165 116.011 181.508 81.06 173.178C70.8994 170.766 61.4783 165.428 51.7035 161.44ZM839.764 111.786C846.548 110.789 853.493 110.339 860.085 108.602C863.107 107.798 865.487 104.518 868.156 102.363C865.487 99.5976 863.011 94.6772 860.117 94.42C848.059 93.3265 835.809 93.0371 823.719 93.8089C819.892 94.034 816.356 98.5042 812.658 101.013C816.484 103.714 819.989 107.316 824.233 108.924C829.056 110.789 834.555 110.886 839.764 111.786ZM585.04 85.0937C600.088 98.3434 630.763 97.861 642.242 85.0294C630.667 73.7414 600.603 73.3877 585.04 85.0937ZM553.819 179.707C536.359 168.226 519.253 171.024 502.373 175.172C501.183 175.462 499.897 184.884 501.73 186.492C509.8 193.439 542.919 189.29 553.819 179.707ZM372.149 155.684C356.201 144.171 328.677 144.589 315.623 155.748C326.169 167.132 359.127 167.55 372.149 155.684ZM596.391 219.52C613.85 234.635 625.747 234.313 638.448 219.52H596.391ZM1026.35 141.083C1026.35 142.595 1026.35 144.138 1026.35 145.65C1041.24 154.044 1055.68 153.175 1065.52 141.083H1026.32H1026.35ZM710.891 141.276C710.891 143.431 710.891 145.553 710.891 147.708H747.803C747.803 145.553 747.739 143.431 747.739 141.276H710.923H710.891ZM490.411 123.942C473.498 109.31 461.344 109.342 446.586 123.942H490.411ZM793.591 47.7245C812.401 60.942 822.883 60.5239 835.841 47.7245H793.591Z" fill="#F2C56C"/>
<path d="M1355.54 271.94C1373.29 283.228 1388.76 296.413 1394.19 318.024C1373.71 361.15 1350.5 373.371 1301.43 367.743C1296.83 367.228 1290.95 369.383 1287.09 372.213C1236.12 409.711 1182.49 426.948 1121.46 396.429C1117.64 394.499 1110.4 396.204 1106.22 398.712C1089.86 408.521 1074.49 420.034 1057.99 429.618C1025.68 448.367 992.012 448.656 957.543 435.278C950.727 432.641 943.01 432.319 935.711 430.872C910.792 425.855 893.428 440.938 874.458 452.933C821.082 486.636 767.61 483.903 723.527 437.593C714.492 428.106 707.322 416.818 698.865 405.755C696.036 407.653 693.881 409.068 691.759 410.547C669.894 425.694 649.605 444.443 625.683 454.959C605.169 463.996 579.381 469.624 557.967 465.668C537.035 461.809 518.45 444.282 499.222 432.126C479.897 419.905 466.489 410.097 439.737 429.843C430.284 436.789 420.026 442.771 409.673 448.367C363.371 473.419 295.687 442.739 296.684 383.983C296.781 377.616 294.433 371.184 293.051 363.916C259.611 374.464 229.643 386.62 195.721 383.051C157.458 378.999 120.641 346.389 119.773 312.268C119.452 300.337 121.413 293.487 136.011 297.957C150.802 302.459 166.204 304.936 181.252 308.666C321.539 343.43 461.794 378.388 602.178 412.798C612.178 415.242 623.496 415.725 633.593 413.892C718.801 398.262 803.88 382.022 888.959 365.652C1021.82 340.086 1154.68 314.423 1287.47 288.438C1310.37 283.968 1332.88 277.568 1355.54 272.036V271.94Z" fill="#54AE4D"/>
<path d="M631.696 395.947C676.743 387.81 721.823 379.899 766.806 371.441C877.737 350.634 988.572 329.538 1099.5 308.666C1176.38 294.162 1253.29 279.787 1330.24 265.476C1335.42 264.511 1340.75 264.479 1346.03 263.997C1349.21 266.634 1352.39 269.303 1355.58 271.94C1332.91 277.439 1310.4 283.839 1287.51 288.341C1154.71 314.358 1021.85 339.989 888.991 365.556C803.912 381.925 718.833 398.166 633.625 413.795C623.529 415.66 612.21 415.178 602.21 412.702C461.827 378.291 321.571 343.334 181.284 308.57C166.236 304.839 150.834 302.363 136.043 297.86C121.445 293.39 119.484 300.24 119.805 312.171C120.706 346.293 157.522 378.902 195.753 382.954C229.707 386.556 259.643 374.368 293.083 363.819C294.465 371.087 296.845 377.519 296.716 383.887C295.752 442.642 363.436 473.322 409.705 448.27C420.026 442.674 430.316 436.725 439.769 429.746C466.553 410 479.929 419.777 499.254 432.03C518.482 444.186 537.034 461.713 557.999 465.572C579.413 469.527 605.169 463.9 625.715 454.863C649.638 444.347 669.927 425.63 691.791 410.451C693.913 408.971 696.068 407.588 698.897 405.659C707.386 416.722 714.524 428.01 723.559 437.497C767.642 483.806 821.114 486.54 874.49 452.837C893.493 440.841 910.824 425.758 935.743 430.775C943.042 432.255 950.759 432.544 957.575 435.181C992.044 448.592 1025.71 448.27 1058.02 429.521C1074.52 419.938 1089.89 408.425 1106.26 398.616C1110.44 396.107 1117.67 394.403 1121.5 396.333C1182.52 426.852 1236.16 409.614 1287.12 372.117C1290.98 369.287 1296.86 367.132 1301.46 367.646C1350.53 373.274 1373.74 361.054 1394.23 317.928C1404.68 339.861 1404.8 361.697 1389.34 380.928C1377.44 395.722 1360.21 400.931 1341.72 395.464C1332.97 392.859 1325.29 386.588 1315.93 381.282C1298.6 411.062 1269.92 429.2 1236.06 440.262C1211.46 438.333 1186.86 436.403 1162.27 434.442C1156.09 430.872 1150.18 426.691 1143.68 423.861C1127.19 416.657 1120.21 419.391 1110.47 435.664C1099.99 443.575 1089.54 451.486 1079.05 459.397C1050.53 474.705 1020.5 479.947 988.636 472.808C978.154 468.852 967.768 464.639 957.157 460.973C939.408 454.863 922.463 455.795 907.19 467.919C901.37 471.65 895.293 475.091 889.731 479.175C850.053 508.247 807.417 515.419 761.276 496.734C752.594 493.229 742.948 490.592 735.874 484.9C726.517 477.374 719.283 467.244 711.148 458.272C711.148 457.339 710.666 456.857 709.733 456.857C708.447 455.377 707.161 453.898 705.843 452.419L706.228 452.001C698.511 434.281 695.65 433.67 681.952 444.99C668.126 456.406 653.785 467.148 639.638 478.21C633.4 481.362 627.194 484.482 620.956 487.633C579.027 503.295 538.289 503.809 499.607 478.082L483.402 462.838C473.627 452.386 463.37 442.964 447.261 446.823C413.756 462.42 383.982 487.279 344.593 488.373C313.854 481.233 288.517 466.697 274.401 436.918C274.144 435.76 273.919 434.57 273.662 433.412C271.765 423.507 269 413.699 268.196 403.729C267.36 392.988 264.016 392.12 254.016 395.111C218.518 405.691 182.956 417.783 144.982 407.749C133.053 400.867 119.677 395.689 109.484 386.813C76.9764 358.481 80.4812 312.911 115.915 288.116C120.288 285.061 124.661 282.07 129.066 279.015C133.31 279.433 137.683 279.337 141.799 280.334C226.685 300.883 311.539 321.658 396.458 342.208C471.537 360.378 546.648 378.323 621.76 396.365C625.072 396.204 628.352 396.075 631.663 395.915L631.696 395.947Z" fill="#499A44"/>
<path d="M1406.44 594.885C1421.94 606.784 1427.31 622.188 1421.97 639.554C1416.73 656.631 1400.95 667.919 1381.94 668.466C1339.85 669.72 1297.76 671.103 1255.67 672.421C1253.13 673.225 1250.63 674.286 1248.02 674.865C1184.87 688.469 1121.11 699.853 1058.64 716.094C937.833 747.481 820.439 789.578 704.203 834.923C697.708 837.463 688.994 839.232 682.885 837.045C620.442 814.63 558.32 791.315 496.103 768.256C498.578 767.388 501.054 765.941 503.562 765.748C548.192 762.725 590.764 751.565 631.631 733.621C650.345 736.676 669.284 743.365 687.708 742.046C723.559 739.538 760.118 736.193 794.587 726.674C866.741 706.767 937.704 682.584 1009.15 660.233C1027.9 654.38 1046.74 648.816 1065.55 643.124C1080.6 641.516 1095.68 640.133 1110.72 638.3C1151.85 633.251 1189.57 617.557 1226.74 600.32C1261.33 600.577 1295.9 600.866 1330.5 601.124C1336.93 601.059 1343.36 601.413 1349.72 600.802C1368.63 599.033 1387.51 596.879 1406.41 594.885H1406.44Z" fill="#D7A528"/>
<path d="M625.008 951.855C623.529 953.302 622.049 954.781 620.57 956.228C525.556 933.363 430.541 910.562 335.558 887.568C242.119 864.96 148.744 842.191 55.3369 819.422C51.7357 818.554 48.2309 817.171 43.3435 815.563C43.3435 786.973 43.1827 758.223 43.6007 729.44C43.6329 726.739 47.1698 724.07 49.0669 721.368C94.8862 732.849 140.706 744.201 186.461 755.907C205.367 760.731 223.952 766.906 242.955 771.376C268.549 777.422 294.498 782.085 320.156 788.002C351.056 795.142 381.795 802.828 412.567 810.514C427.936 814.341 443.209 818.683 458.547 822.735C471.376 826.111 484.206 829.488 497.067 832.672C515.974 837.367 534.88 841.966 553.819 846.436C576.487 851.775 599.188 856.888 621.857 862.098C622.885 868.24 624.718 874.383 624.815 880.557C625.201 904.291 625.008 928.057 625.04 951.79L625.008 951.855Z" fill="#EE9B31"/>
<path d="M621.76 396.397C546.649 378.356 471.537 360.411 396.458 342.241C311.539 321.691 226.717 300.916 141.799 280.366C137.683 279.369 133.31 279.465 129.066 279.047C104.404 272.776 79.7738 266.152 54.9831 260.395C46.3016 258.369 42.7968 254.864 43.054 245.441C43.7614 221.514 42.8933 197.523 43.665 173.565C43.7936 169.448 48.8739 165.493 51.6713 161.44C61.4461 165.428 70.8672 170.767 81.0278 173.179C115.979 181.508 151.348 188.165 186.235 196.655C227.489 206.689 268.389 218.266 309.578 228.654C353.275 239.684 397.133 250.104 440.894 260.781C485.685 271.715 530.443 282.746 575.266 293.487C589.703 296.96 604.365 299.565 618.931 302.556C620.603 304.55 623.754 306.576 623.721 308.57C623.303 337.867 622.467 367.132 621.728 396.429L621.76 396.397Z" fill="#EF9C31"/>
<path d="M344.626 488.469C384.014 487.408 413.757 462.517 447.293 446.919C449.126 465.508 449.705 484.321 453.113 502.62C456.071 518.41 450.605 528.669 437.904 536.226C429.673 541.114 421.248 545.97 412.374 549.508C355.654 572.084 295.977 581.474 235.656 584.69C186.621 587.295 137.362 585.269 88.1982 585.301C74.0505 580.992 59.8385 576.908 45.8194 572.277C29.2923 566.778 18.6493 557.13 18.5529 537.641C18.4564 516.898 16.1413 496.156 14.823 475.413C26.8486 482.005 38.1989 492.2 50.9961 494.515C86.0439 500.819 121.606 506.704 157.104 507.508C220.158 508.987 282.697 500.658 344.626 488.502V488.469Z" fill="#37905B"/>
<path d="M621.824 862.162C599.156 856.952 576.455 851.806 553.787 846.5C534.848 842.03 515.909 837.431 497.035 832.736C484.173 829.552 471.344 826.175 458.515 822.799C443.177 818.747 427.936 814.405 412.535 810.578C381.763 802.924 351.024 795.206 320.124 788.066C294.465 782.149 268.549 777.486 242.923 771.44C223.92 766.938 205.335 760.795 186.428 755.971C140.673 744.265 94.8218 732.913 49.0347 721.432C91.928 711.688 134.821 701.944 177.682 692.199C193.406 698.052 208.84 704.838 224.884 709.597C257.167 719.181 289.771 727.639 322.246 736.579L322.407 736.676C323.725 737.544 325.044 738.444 326.362 739.313L418.837 765.909C428.226 769.092 437.743 771.987 446.971 775.556C459.286 780.316 471.408 785.622 483.595 790.671C480.637 793.115 477.678 795.56 471.794 800.416C489.415 804.468 502.855 807.844 515.588 797.457C547.388 806.462 579.317 815.113 610.988 824.6C637.483 832.511 663.721 841.355 690.055 849.813C671.406 853.993 652.789 858.174 634.139 862.355C629.991 862.323 625.876 862.258 621.728 862.226L621.824 862.162ZM232.248 723.426C231.765 721.529 231.283 719.663 230.801 717.766C214.917 711.495 198.325 712.813 181.798 715.869C179.451 716.287 177.908 721.046 175.978 723.78C178.84 725.741 181.605 729.279 184.563 729.408C196.718 729.987 208.936 730.019 221.058 729.215C224.884 728.957 228.518 725.42 232.248 723.394V723.426Z" fill="#F2C46C"/>
<path d="M483.659 790.639C471.473 785.558 459.351 780.284 447.036 775.524C437.808 771.955 428.29 769.06 418.901 765.877C433.821 766.391 448.772 766.906 463.692 767.42C474.527 767.71 485.331 767.967 496.167 768.256C558.385 791.315 620.506 814.63 682.949 837.045C689.058 839.232 697.772 837.464 704.267 834.923C820.503 789.578 937.897 747.481 1058.7 716.094C1121.17 699.853 1184.9 688.469 1248.09 674.866C1250.69 674.319 1253.17 673.258 1255.74 672.421C1266.51 676.441 1277.22 680.719 1288.12 684.449C1295.38 686.925 1302.91 688.598 1310.3 690.624C1304.61 693.614 1299.24 697.924 1293.2 699.403C1210.69 719.696 1128.09 739.667 1045.45 759.509C1041.72 760.41 1037.51 759.22 1033.52 758.995C1033.62 755.65 1034.71 749.829 1033.62 749.379C1021.92 744.555 1010.57 744.877 1000.31 757.837C1009.25 759.123 1018.19 760.442 1027.12 761.728C1020.79 764.462 1014.68 767.967 1008.12 769.768C962.206 782.374 916.097 794.273 870.278 807.137C850.374 812.733 830.986 820.065 811.34 826.626C770.954 834.312 730.537 842.03 690.151 849.748C663.817 841.323 637.58 832.479 611.085 824.535C579.413 815.081 547.485 806.398 515.684 797.393C505.009 795.142 494.334 792.858 483.659 790.607V790.639ZM1103.2 719.792C1103.2 721.432 1103.2 723.073 1103.2 724.713C1115.61 731.241 1128.06 732.592 1140.56 719.792H1103.23H1103.2Z" fill="#DBB161"/>
<path d="M344.626 488.469C282.697 500.626 220.158 508.955 157.104 507.476C121.606 506.639 86.0438 500.786 50.9961 494.483C38.1988 492.168 26.8485 482.005 14.8229 475.381C10.4821 458.336 22.1219 449.171 34.1796 444.411C64.8865 432.255 96.526 422.478 127.844 411.962C133.407 410.097 139.259 409.164 144.982 407.814C182.956 417.879 218.518 405.788 254.016 395.207C264.016 392.216 267.36 393.085 268.196 403.826C269 413.795 271.765 423.636 273.662 433.541C245.784 433.541 217.907 433.541 190.03 433.541C190.03 434.699 190.062 435.889 190.094 437.046H274.369C288.485 466.858 313.822 481.362 344.561 488.502L344.626 488.469ZM266.652 453.287C252.022 439.523 227.36 439.844 215.463 453.094C227.296 462.195 251.508 462.645 266.652 453.287ZM85.7866 465.282C99.6449 475.702 125.625 475.381 137.072 465.508C122.989 453.287 103.857 452.901 85.7866 465.282Z" fill="#9FC659"/>
<path d="M185.142 691.01C180.705 688.984 176.364 685.414 171.798 685.124C129.355 682.52 86.8799 679.722 44.3724 678.5C16.3985 677.696 -2.2186 661.327 0.192946 635.921C1.60772 621.192 8.4565 609.775 23.3116 604.662C34.9835 606.27 46.6232 608.521 58.3915 609.293C71.5425 610.161 84.822 609.325 97.973 610.032C103.664 610.354 109.163 613.377 114.886 613.924C143.728 616.625 172.859 617.3 201.412 621.77C235.527 627.109 269.193 635.567 303.018 642.642C305.333 645.022 307.649 647.401 309.964 649.781C293.694 667.437 289.321 687.697 296.588 710.53C285.687 707.861 274.884 704.484 263.855 702.684C237.682 698.406 211.412 694.837 185.174 690.977L185.142 691.01Z" fill="#D6A427"/>
<path d="M303.018 642.642C269.16 635.535 235.527 627.109 201.412 621.77C172.859 617.3 143.728 616.625 114.886 613.924C109.195 613.377 103.664 610.322 97.9729 610.032C84.7898 609.325 71.5424 610.161 58.3914 609.293C46.6553 608.521 35.0155 606.27 23.3115 604.662C42.9576 599.966 62.6036 595.303 82.2818 590.608C106.622 593.084 130.931 596.493 155.335 597.844C192.087 599.902 229.129 598.487 265.656 602.282C305.108 606.366 343.789 604.083 381.313 593.438C433.82 578.516 471.022 547.032 479.254 489.37C480.508 480.526 482.019 471.747 483.402 462.935C488.804 468.016 494.205 473.097 499.607 478.179C486.746 490.817 495.106 506.382 493.787 520.597C493.402 521.723 493.016 522.848 492.63 523.941C477.968 531.531 470.283 545.842 471.794 559.96C473.209 573.21 467.775 579.995 460.701 587.939C456.714 588.228 452.727 588.518 448.708 588.807C447.422 589.579 446.103 590.351 444.817 591.123C424.689 595.786 404.593 600.417 384.464 605.08C363.339 609.196 341.957 612.348 321.153 617.751C309.899 620.677 302.665 629.682 302.986 642.642H303.018Z" fill="#FBBD14"/>
<path d="M483.434 462.935C482.051 471.747 480.54 480.526 479.286 489.37C471.055 547.032 433.853 578.516 381.345 593.438C343.79 604.115 305.141 606.366 265.688 602.282C229.161 598.487 192.12 599.87 155.368 597.844C130.963 596.493 106.654 593.084 82.314 590.608C84.2754 588.839 86.2367 587.07 88.2303 585.302C137.394 585.302 186.653 587.295 235.688 584.691C296.009 581.507 355.719 572.116 412.406 549.508C421.28 545.971 429.705 541.147 437.936 536.226C450.637 528.669 456.103 518.41 453.145 502.62C449.704 484.321 449.126 465.508 447.325 446.92C463.434 443.06 473.691 452.451 483.466 462.935H483.434Z" fill="#E6AF21"/>
<path d="M185.142 691.009C211.38 694.868 237.649 698.406 263.823 702.715C274.884 704.516 285.655 707.893 296.555 710.562C305.141 719.245 313.693 727.896 322.279 736.579C289.803 727.639 257.199 719.181 224.917 709.597C208.872 704.838 193.438 698.084 177.715 692.199L185.142 691.009Z" fill="#DBB161"/>
<path d="M553.819 179.707C542.919 189.29 509.8 193.471 501.73 186.492C499.897 184.917 501.151 175.462 502.373 175.172C519.286 170.992 536.359 168.226 553.819 179.707Z" fill="#FDD187"/>
<path d="M372.149 155.684C359.127 167.551 326.169 167.133 315.623 155.748C328.677 144.589 356.201 144.171 372.149 155.684Z" fill="#FDD187"/>
<path d="M490.411 123.942H446.586C461.344 109.342 473.498 109.31 490.411 123.942Z" fill="#FDD187"/>
<path d="M930.405 495.159C922.946 499.404 915.486 503.681 908.026 507.926C889.473 512.878 870.921 517.863 852.336 522.751C782.369 541.147 711.18 548.897 639.477 539.346C592.018 533.042 545.362 520.854 497.099 511.045C496.81 511.849 495.331 516.223 493.852 520.597C495.17 506.382 486.81 490.817 499.672 478.178C538.353 503.906 579.092 503.391 621.021 487.73C627.001 489.081 632.95 491.364 638.93 491.46C642.339 491.492 645.811 487.955 649.22 486.058C646.036 483.485 642.853 480.912 639.702 478.339C653.818 467.309 668.19 456.535 682.017 445.119C695.714 433.798 698.576 434.377 706.293 452.129C697.836 453.158 689.38 454.188 678.222 455.538C690.762 471.907 701.052 462.967 711.18 458.4C719.315 467.405 726.582 477.535 735.906 485.028C742.98 490.721 752.626 493.326 761.308 496.863C807.449 515.548 850.085 508.344 889.763 479.304C895.326 475.22 901.403 471.779 907.222 468.08C918.894 473.773 928.926 480.816 930.405 495.191V495.159ZM689.155 474.159C679.637 480.237 672.113 485.093 664.557 489.917C673.238 493.647 681.888 500.304 690.569 500.272C698.319 500.272 706.068 492.907 713.817 488.791C706.389 484.385 698.962 479.979 689.155 474.159ZM684.782 527.029C691.084 523.459 695.618 520.854 700.183 518.281C695.714 515.934 691.277 511.849 686.711 511.721C681.856 511.56 676.904 515.097 671.985 517.027C675.907 520.114 679.862 523.202 684.782 527.061V527.029Z" fill="#CD2129"/>
<path d="M274.434 437.014H190.158C190.158 435.856 190.126 434.667 190.094 433.509C217.971 433.509 245.849 433.509 273.726 433.509C273.951 434.667 274.208 435.856 274.434 437.014Z" fill="#7C9C46"/>
<path d="M496.167 768.224C485.331 767.935 474.527 767.678 463.691 767.388C457.036 765.619 450.444 763.336 443.692 762.114C412.342 756.422 382.278 747.835 356.426 727.929C331.153 708.44 328.838 678.885 350.027 655.506C376.779 626.015 411.441 611.608 448.45 601.285C466.36 596.3 484.624 592.537 502.726 588.228C515.459 593.792 527.838 600.513 541.022 604.694C586.262 619.037 633.046 623.7 680.312 624.729C681.213 627.141 681.759 629.842 683.11 631.965C701.341 660.49 699.894 680.944 674.782 703.905C662.049 715.547 646.165 723.78 631.696 733.556C590.828 751.501 548.256 762.661 503.627 765.684C501.086 765.844 498.643 767.324 496.167 768.192V768.224ZM491.923 720.049C500.894 714.711 507.71 710.659 514.495 706.607C507.871 702.683 501.408 696.026 494.591 695.673C488.161 695.319 481.344 701.59 474.72 704.935C480.058 709.63 485.427 714.325 491.923 720.049ZM441.28 620.001C432.856 624.472 426.457 627.848 420.091 631.225C426.779 635.084 433.37 641.741 440.219 642.031C446.618 642.32 453.306 635.856 459.865 632.383C454.077 628.524 448.258 624.665 441.28 620.034V620.001ZM596.391 714.872C603.625 709.823 608.995 706.092 614.365 702.362C607.998 698.76 601.696 692.425 595.233 692.264C588.641 692.103 581.889 698.02 575.233 701.268C581.632 705.385 588.063 709.533 596.391 714.872Z" fill="#C95A29"/>
<path d="M502.758 588.26C484.656 592.569 466.392 596.3 448.483 601.317C411.474 611.608 376.812 626.047 350.06 655.538C328.87 678.918 331.185 708.472 356.458 727.961C382.31 747.9 412.374 756.486 443.724 762.146C450.476 763.368 457.068 765.619 463.724 767.42C448.804 766.906 433.853 766.391 418.933 765.877C388.098 757.001 357.262 748.157 326.459 739.281C325.14 738.412 323.822 737.512 322.504 736.644L322.343 736.547C313.758 727.864 305.205 719.213 296.62 710.53C289.385 687.697 293.726 667.404 309.996 649.781C314.594 646.211 318.838 641.999 323.822 639.136C343.918 627.559 364.272 616.4 384.529 605.079C404.657 600.416 424.753 595.785 444.881 591.122C446.168 590.35 447.486 589.579 448.772 588.807C452.759 588.517 456.746 588.228 460.765 587.971C473.531 587.038 486.296 586.105 499.061 585.173C500.315 586.202 501.537 587.231 502.791 588.26H502.758Z" fill="#E2682C"/>
<path d="M232.248 723.426C228.518 725.452 224.917 728.99 221.058 729.247C208.936 730.051 196.685 730.019 184.563 729.44C181.605 729.311 178.84 725.774 175.978 723.812C177.908 721.078 179.451 716.319 181.798 715.901C198.325 712.846 214.917 711.527 230.801 717.798C231.283 719.695 231.765 721.561 232.248 723.458V723.426Z" fill="#FDD187"/>
<path d="M483.659 790.64C494.334 792.891 505.009 795.174 515.684 797.425C502.951 807.813 489.511 804.436 471.891 800.384C477.775 795.528 480.733 793.084 483.691 790.64H483.659Z" fill="#FDD187"/>
<path d="M266.652 453.287C251.508 462.645 227.296 462.195 215.463 453.094C227.36 439.844 252.022 439.523 266.652 453.287Z" fill="#94B853"/>
<path d="M85.7866 465.283C103.857 452.901 122.989 453.287 137.072 465.508C125.657 475.413 99.6771 475.702 85.7866 465.283Z" fill="#94B853"/>
<path d="M384.496 605.08C364.239 616.4 343.886 627.559 323.79 639.136C318.806 641.999 314.562 646.212 309.964 649.781C307.649 647.401 305.333 645.022 303.018 642.642C302.729 629.682 309.932 620.709 321.185 617.75C341.989 612.315 363.371 609.164 384.496 605.08Z" fill="#E6AF21"/>
<path d="M502.758 588.26C501.504 587.231 500.283 586.202 499.029 585.173C496.906 564.751 494.784 544.362 492.662 523.941C493.048 522.816 493.434 521.69 493.82 520.597C495.299 516.223 496.81 511.849 497.067 511.045C545.362 520.854 592.018 533.042 639.445 539.346C711.148 548.897 782.337 541.114 852.304 522.751C870.889 517.863 889.441 512.878 907.994 507.926C901.403 514.068 894.457 519.825 888.316 526.385C867.673 548.382 866.548 570.958 884.232 595.399C886.033 597.908 887.03 600.963 888.412 603.793C820.31 623.314 750.762 628.427 680.312 624.793C633.078 623.764 586.294 619.101 541.054 604.758C527.871 600.577 515.491 593.856 502.758 588.292V588.26Z" fill="#E62829"/>
<path d="M492.662 523.974C494.784 544.395 496.906 564.784 499.029 585.205C486.263 586.138 473.498 587.07 460.733 588.003C467.807 580.06 473.241 573.274 471.826 560.024C470.315 545.906 478 531.595 492.662 524.006V523.974Z" fill="#E6AF21"/>
<path d="M491.923 720.049C485.427 714.325 480.09 709.63 474.72 704.934C481.376 701.59 488.161 695.319 494.591 695.673C501.408 696.026 507.871 702.715 514.495 706.607C507.678 710.659 500.894 714.711 491.923 720.049Z" fill="#E96830"/>
<path d="M441.28 620.001C448.258 624.664 454.077 628.492 459.865 632.351C453.306 635.824 446.618 642.288 440.219 641.998C433.37 641.709 426.779 635.052 420.091 631.193C426.457 627.816 432.856 624.439 441.28 619.969V620.001Z" fill="#E96830"/>
<path d="M596.391 714.872C588.063 709.501 581.632 705.385 575.233 701.269C581.921 698.02 588.642 692.103 595.233 692.264C601.696 692.425 607.998 698.728 614.365 702.362C608.995 706.093 603.657 709.823 596.391 714.872Z" fill="#E96830"/>
</g>
<defs>
<clipPath id="clip0_4_569">
<rect width="1424" height="957" fill="white"/>
</clipPath>
</defs>
</svg>
