<svg width="1925" height="287" viewBox="0 0 1925 287" fill="none" xmlns="http://www.w3.org/2000/svg">
<path d="M0.15686 219.091C55.0026 180.487 112.075 149.188 179.693 129.787C195.095 125.373 200.462 119.157 199.898 107.061C198.932 86.3333 198.637 65.4079 201.428 44.7993C204.755 20.1521 234.915 1.54304 268.536 0.632385C272.105 0.533401 275.7 0.553162 279.269 0.553162C800.813 0.553162 1322.36 0.63236 1843.87 0.375C1873.5 0.375 1898.29 6.27449 1913.13 25.6755C1919.65 34.1684 1923.76 44.8785 1923.92 54.6186C1924.88 113.059 1924.32 171.5 1924.4 229.96C1924.45 262.565 1890.99 286.54 1847.58 286.5C1344.82 286.005 842.081 286.183 339.32 286.203C316.056 286.203 292.793 286.46 269.556 286.124C232.58 285.609 204.701 266.109 201.159 238.789C198.101 215.271 198.181 214.677 167.511 212.162C115.591 207.886 64.0183 211.153 12.7682 217.785C9.76294 218.181 6.704 218.418 0.15686 219.111V219.091Z" fill="white"/>
</svg>
