<svg width="281" height="615" viewBox="0 0 281 615" fill="none" xmlns="http://www.w3.org/2000/svg">
<g clip-path="url(#clip0_106_417)">
<path d="M171.819 339.447C165.333 337.278 158.833 335.123 152.347 332.94C130.047 325.415 109.864 314.436 94.0374 296.615C80.0464 280.869 72.6086 262.378 71.9386 241.33C71.6572 232.64 71.9118 223.937 71.9118 215.248C71.952 207.723 71.818 200.185 72.153 192.66C72.2602 190.263 73.6674 187.92 74.4714 185.55C75.892 190.236 75.3693 196.583 82.6597 196.677C89.816 196.77 89.8562 190.504 91.3572 185.831C95.8868 171.625 100.135 157.312 104.785 143.146C108.967 130.426 113.094 127.159 126.603 126.771C137.525 126.463 148.487 126.798 159.409 127.333C178.948 128.311 198.287 127.654 216.874 120.799C230.664 115.711 244.227 110.007 258.003 104.906C268.764 100.929 278.293 103.487 285.972 111.935C290.006 116.381 293.704 121.161 297.162 126.075C310.603 145.141 317.452 167.086 324.259 189.005C326.216 195.284 329.553 198.042 336.093 196.114C335.208 206.705 335.182 217.457 333.279 227.874C327.623 258.696 312.761 284.725 289.054 305.157C268.135 323.179 243.556 334.48 216.754 341.014C215.735 341.268 214.998 342.647 214.127 343.504C200.029 342.152 185.944 340.8 171.846 339.447H171.819ZM171.497 192.78C171.35 185.001 165.132 178.855 157.372 178.855C149.479 178.855 142.912 185.55 143.1 193.436C143.287 201.175 149.546 207.241 157.345 207.241C165.547 207.241 171.631 201.028 171.484 192.794L171.497 192.78ZM257.172 207.214C265.267 207.361 271.766 201.055 271.753 193.075C271.74 185.483 265.401 179.016 257.789 178.842C250.083 178.668 243.65 184.747 243.369 192.459C243.074 200.734 248.997 207.067 257.172 207.214Z" fill="#F8BDB6"/>
<path d="M179.122 614.183C147.911 614.197 116.699 614.21 85.4871 614.237C84.4686 602.535 83.5707 590.819 82.4048 579.13C80.8368 563.491 79.0813 547.866 77.3793 532.241C75.8917 518.61 74.364 504.993 72.863 491.363C72.5816 491.376 72.2868 491.403 72.0053 491.416V614.224H0.281237C0.147223 612.577 -0.0135929 611.506 -0.000191571 610.434C0.321441 561.162 0.334842 511.875 1.23273 462.603C1.47396 449.575 3.8728 436.467 6.35205 423.599C10.2787 403.301 22.7285 389.617 41.4234 381.061C71.6033 367.244 103.271 359.853 136.359 358.299C145.271 357.884 154.196 357.764 163.121 357.496C164.18 376.951 168.053 395.602 178.171 412.955C182.339 407.264 186.091 402.15 189.83 397.035C192.162 400.637 194.494 404.238 196.826 407.827C182.392 475.885 175.96 544.626 179.122 614.183Z" fill="#CCEAF6"/>
<path d="M251.731 357.456C290.113 357.603 327.476 362.464 363.699 376.603C392.057 387.676 408.473 406.541 411.113 436.681C412.923 457.301 414.37 478.014 414.692 498.714C415.268 535.28 414.866 571.86 414.866 608.426C414.866 610.153 414.866 611.894 414.866 614.224C390.475 614.224 366.661 614.224 342.86 614.224C342.86 573.279 342.86 532.334 342.86 491.39C340.81 501.7 339.818 512.036 338.773 522.359C337.352 536.472 335.892 550.571 334.444 564.67C332.756 581.192 331.054 597.715 329.365 614.237C298.153 614.224 266.942 614.197 235.716 614.184C238.879 544.626 232.42 475.885 218.013 407.827C220.345 404.225 222.69 400.637 225.022 397.035C228.761 402.15 232.513 407.264 236.668 412.942C246.866 395.616 250.525 376.884 251.718 357.456H251.731ZM278.48 521.636C286.735 521.636 295.004 521.81 303.259 521.489C304.827 521.422 306.315 519.387 307.829 518.262C306.288 517.151 304.76 515.089 303.192 515.076C287.124 514.835 271.042 514.835 254.974 515.076C253.433 515.102 251.932 517.191 250.418 518.329C251.959 519.44 253.46 521.435 255.041 521.502C262.841 521.837 270.667 521.65 278.48 521.65V521.636Z" fill="#CCEAF6"/>
<path d="M336.079 196.114C329.539 198.042 326.202 195.284 324.246 189.004C317.438 167.086 310.59 145.141 297.148 126.074C293.691 121.16 289.992 116.38 285.958 111.935C278.293 103.487 268.751 100.929 257.989 104.906C244.213 110.007 230.651 115.711 216.861 120.799C198.273 127.654 178.935 128.31 159.396 127.333C148.474 126.784 137.511 126.463 126.589 126.771C113.081 127.146 108.953 130.413 104.772 143.146C100.121 157.312 95.8732 171.625 91.3435 185.831C89.856 190.504 89.8024 196.77 82.6461 196.676C75.3691 196.583 75.8784 190.236 74.4578 185.55C73.6269 181.011 72.7961 176.472 71.9652 171.933C67.4757 148.957 64.6882 125.887 65.1171 102.362C65.948 57.4539 88.355 25.9621 131.025 11.2339C150.551 4.51239 170.72 1.72741 191.291 0.442029C204.773 -0.401501 217.946 -0.374722 230.932 3.45463C251.101 9.39951 267.25 21.0349 279.767 37.9054C281.04 39.6193 283.948 41.3867 285.878 41.1858C312.747 38.3205 330.303 49.0052 341.051 75.1145C350.365 97.7559 352.603 121.013 347.671 145.02C345.835 153.938 344.468 162.949 342.874 171.92C342.003 176.914 341.145 181.921 340.274 186.916C338.88 189.982 337.486 193.061 336.093 196.127L336.079 196.114Z" fill="#0B3442"/>
<path d="M218.027 407.826C232.433 475.884 238.893 544.625 235.73 614.183C224.312 614.478 212.881 614.933 201.463 614.986C194.025 615.026 186.574 614.464 179.136 614.183C175.96 544.625 182.406 475.884 196.839 407.826C203.902 407.826 210.978 407.826 218.04 407.826H218.027Z" fill="#D33C54"/>
<path d="M336.079 196.114C337.473 193.048 338.867 189.969 340.261 186.902C341.118 196.275 341.976 205.647 342.834 215.02C342.123 229.815 343.128 244.932 340.328 259.325C335.369 284.899 318.751 303.015 297.282 316.873C281.496 327.062 264.141 333.529 246.022 338.162C245.017 338.416 244.092 339.046 243.127 339.501C233.452 340.84 223.776 342.179 214.1 343.518C214.971 342.661 215.708 341.268 216.727 341.027C243.529 334.493 268.108 323.193 289.027 305.171C312.748 284.738 327.596 258.696 333.252 227.887C335.168 217.484 335.181 206.732 336.066 196.128L336.079 196.114Z" fill="#F6B1A9"/>
<path d="M214.1 343.518C223.776 342.179 233.452 340.84 243.127 339.501C243.235 343.317 243.328 347.119 243.436 350.935C240.313 353.426 237.164 355.889 234.068 358.407C225.438 365.396 216.834 372.412 208.217 379.414C207.694 379.414 207.172 379.414 206.649 379.414C194.909 369.921 183.17 360.415 171.43 350.922C171.564 347.093 171.685 343.263 171.819 339.447C185.917 340.8 200.002 342.152 214.1 343.504V343.518Z" fill="#F4A29F"/>
<path d="M171.43 350.935C183.17 360.428 194.91 369.935 206.649 379.428C201.047 385.292 195.446 391.17 189.83 397.035C186.078 402.15 182.339 407.264 178.171 412.955C168.053 395.616 164.18 376.951 163.122 357.496C165.896 355.3 168.656 353.118 171.43 350.922V350.935Z" fill="#98CEE3"/>
<path d="M208.217 379.427C216.834 372.425 225.438 365.409 234.068 358.42C237.177 355.902 240.313 353.439 243.436 350.948C246.196 353.117 248.97 355.3 251.731 357.469C250.538 376.897 246.866 395.615 236.681 412.954C232.527 407.277 228.788 402.163 225.036 397.048C219.434 391.183 213.819 385.305 208.217 379.441V379.427Z" fill="#98CEE3"/>
<path d="M71.9919 614.223V491.416C72.2733 491.402 72.5682 491.376 72.8496 491.362C74.3506 504.993 75.8783 518.61 77.3659 532.24C79.0678 547.865 80.8368 563.491 82.3914 579.13C83.5573 590.818 84.4552 602.534 85.4737 614.236C80.9708 614.236 76.4814 614.236 71.9785 614.236L71.9919 614.223Z" fill="#98CFE4"/>
<path d="M71.9785 171.919C72.8094 176.458 73.6402 180.997 74.4711 185.536C73.6671 187.906 72.2599 190.249 72.1527 192.646C71.8043 200.157 71.9517 207.709 71.9115 215.234C69.124 214.47 66.2427 213.962 63.5892 212.89C54.0207 209.021 48.9013 199.528 50.5765 189.138C52.1981 179.082 60.4801 172.428 71.9919 171.919H71.9785Z" fill="#F2A09D"/>
<path d="M171.497 192.78C171.645 201.015 165.574 207.227 157.359 207.227C149.559 207.227 143.288 201.162 143.113 193.423C142.926 185.55 149.492 178.842 157.386 178.842C165.132 178.842 171.363 184.988 171.511 192.767L171.497 192.78Z" fill="#F8BDB6"/>
<path d="M257.172 207.214C249.011 207.066 243.074 200.733 243.369 192.459C243.637 184.746 250.083 178.667 257.789 178.842C265.401 179.016 271.74 185.469 271.753 193.074C271.766 201.041 265.267 207.347 257.172 207.214Z" fill="#F8BDB6"/>
<path d="M208.217 379.428C213.819 385.292 219.434 391.17 225.035 397.035C222.704 400.636 220.358 404.225 218.027 407.827C210.964 407.827 203.888 407.827 196.826 407.827C194.494 404.225 192.162 400.636 189.83 397.035C195.432 391.17 201.034 385.306 206.635 379.428C207.158 379.428 207.681 379.428 208.203 379.428H208.217Z" fill="#A02E41"/>
<path d="M278.48 521.636C270.667 521.636 262.841 521.823 255.041 521.489C253.46 521.422 251.959 519.427 250.418 518.315C251.932 517.177 253.447 515.088 254.974 515.062C271.043 514.821 287.124 514.821 303.193 515.062C304.747 515.088 306.288 517.137 307.829 518.248C306.302 519.373 304.814 521.422 303.26 521.475C295.018 521.796 286.749 521.622 278.48 521.622V521.636Z" fill="#98D0E5"/>
</g>
<defs>
<clipPath id="clip0_106_417">
<rect width="415" height="615" fill="white"/>
</clipPath>
</defs>
</svg>
