<svg width="369" height="620" viewBox="0 0 369 620" fill="none" xmlns="http://www.w3.org/2000/svg">
<g clip-path="url(#clip0_106_442)">
<path d="M269.416 347.566C274.305 348.212 279.193 348.824 284.064 349.522C297.21 351.408 305.748 358.584 311.788 370.562C329.858 406.355 340.42 444.541 349.708 483.251C359.118 522.554 365.683 562.242 367.464 602.662C367.726 608.442 368.476 614.221 369 619.983H265.942C261.176 586.372 256.41 552.761 251.644 519.149C251.172 519.184 250.701 519.219 250.23 519.254V619.983H127.967C130.185 614.989 131.983 609.734 134.706 605.019C151.798 575.564 169.239 546.3 186.192 516.775C190.137 509.895 192.651 502.195 195.829 494.879C207.229 493.5 208.451 491.649 203.947 482.448C207.177 477.856 210.86 473.491 213.549 468.602C220.829 455.297 220.532 455.314 210.738 443.232C207.002 438.622 204.087 433.384 199.914 427.116C216.604 428.722 230.589 430.084 244.555 431.429C245.306 434.886 246.074 438.325 246.825 441.783C245.725 454.389 245.201 467.065 243.316 479.549C242.251 486.586 237.188 490.584 229.314 488.995C229.262 482.081 223.727 483.391 219.921 483.478C218.472 483.513 215.574 488.14 215.976 488.681C217.861 491.16 220.533 493.168 223.239 494.845C224.059 495.351 225.892 494.268 227.254 493.902C240.069 494.6 245.952 491.475 248.484 479.2C250.875 467.572 250.858 455.437 251.906 443.529C253.163 440.456 255.205 437.452 255.537 434.292C257.545 414.702 250.369 398.481 236.559 384.914C237.293 384.093 238.707 383.238 238.654 382.452C238.235 375.87 237.397 369.322 236.996 362.739C236.577 356 236.507 349.243 236.28 342.503C238.567 342.643 240.872 342.782 243.159 342.922C244.922 343.341 246.668 343.76 248.431 344.197C250.753 344.389 253.058 344.563 255.38 344.738C256.567 345.122 257.737 345.506 258.924 345.89C261.228 346.135 263.533 346.379 265.837 346.624C267.025 346.938 268.229 347.27 269.416 347.584V347.566Z" fill="#FDFEFE"/>
<path d="M-148 620C-141.628 567.654 -134.522 515.377 -121.114 464.323C-113.275 434.466 -102.52 405.377 -93.1802 375.904C-86.8776 355.982 -71.4443 349.417 -52.5541 347.705C-46.496 347.147 -40.4553 346.501 -34.4147 345.89C-33.2275 345.558 -32.0578 345.243 -30.8706 344.912C-27.9725 344.65 -25.0918 344.388 -22.1937 344.126C-21.0065 343.742 -19.8193 343.358 -18.6496 342.991C-17.5672 342.939 -16.4848 342.886 -15.4023 342.834C-17.8989 369.182 -19.9241 395.599 -23.1539 421.86C-24.1665 430.083 -21.443 431.829 -14.6167 431.341C-8.01736 430.869 -1.43548 430.223 5.16385 429.664C5.25114 437.207 5.35589 444.75 5.44318 452.293C3.85445 453.515 2.26573 454.72 0.659544 455.942C2.42286 458.23 4.16871 460.499 5.93202 462.787C7.31124 478.03 8.8476 493.238 9.89512 508.498C10.0173 510.349 7.88739 512.863 6.15899 514.277C-1.85449 520.807 -4.50818 529.031 -1.13868 538.041C1.91656 546.212 9.16186 550.333 19.6894 549.914C33.2721 546.684 38.5271 538.355 35.9083 524.265C37.759 525.696 40.2206 526.761 41.3554 528.63C55.0429 551.276 68.713 573.957 81.9815 596.847C86.2588 604.216 89.3839 612.265 93.0502 620H-29.212V519.271C-29.6834 519.236 -30.1548 519.201 -30.6262 519.166C-35.3924 552.777 -40.1585 586.389 -44.9247 620H-148Z" fill="#FDFEFE"/>
<path d="M93.0325 620C89.3836 612.265 86.2411 604.216 81.9638 596.848C68.6953 573.957 55.0252 551.294 41.3377 528.63C40.2029 526.762 37.7413 525.697 35.8907 524.265C34.4067 521.716 32.9227 519.167 31.4562 516.617C32.2767 506.787 26.6027 500.292 19.9685 494.286C15.5165 454.406 14.1722 414.492 19.9161 374.647C21.9762 360.347 27.0043 347.095 38.4745 337.265C39.1729 338.958 39.8712 340.634 40.5696 342.328C47.5704 365.9 54.4665 389.506 61.6071 413.043C69.8301 440.141 78.2626 467.187 86.6077 494.251C91.0422 508.237 95.4767 522.222 99.9112 536.208C102.408 546.527 104.363 557.056 109.828 566.257C110.631 566.222 111.434 566.187 112.237 566.153C115.659 555.572 119.098 545.008 122.52 534.427C126.082 527.163 130.359 520.144 132.995 512.567C136.487 502.544 138.39 491.981 141.55 481.836C147.608 462.438 154.068 443.179 160.492 423.432C162.465 423.763 164.42 424.078 166.358 424.409C167.406 430.433 168.471 436.474 169.518 442.498C170.514 453.114 171.09 463.8 172.591 474.346C174.756 489.432 180.709 494.443 194.571 494.041C195.095 494.198 195.497 494.478 195.811 494.914C192.633 502.23 190.119 509.93 186.174 516.81C169.222 546.335 151.763 575.599 134.689 605.054C131.965 609.768 130.167 615.007 127.95 620.018H93.015L93.0325 620ZM79.118 508.184C79.9037 511.886 81.6146 515.675 81.2654 519.271C80.6893 525.452 82.2257 527.932 88.9297 526.483C87.8298 518.992 87.2363 511.833 85.4904 504.989C84.9317 502.771 81.3178 501.322 79.1006 499.524C77.0055 500.257 73.1821 500.938 73.1472 501.741C73.0599 504.5 74.2995 507.311 75.0327 510.105C76.3945 509.459 77.7562 508.83 79.118 508.184ZM146.333 497.044C145.303 497.044 144.273 497.044 143.243 497.044V518.032C144.134 518.032 145.024 518.067 145.914 518.084C147.364 511.117 151.641 504.238 146.333 497.044Z" fill="#E7E9E8"/>
<path d="M250.229 620V519.271C250.701 519.236 251.172 519.201 251.644 519.166C256.41 552.777 261.176 586.388 265.942 620H250.229Z" fill="#E2E2E2"/>
<path d="M-11.4043 337.736C-17.0609 313.728 -23.7824 289.929 -28.1296 265.677C-38.4825 208.058 -39.9141 150.474 -20.1685 94.3036C-10.06 65.5114 3.74973 38.0638 30.5311 21.197C64.8721 -0.436344 102.81 -4.38238 142.179 4.27796C147.556 5.46526 152.741 7.50812 158.136 8.62559C166.813 10.424 175.524 12.5542 184.324 13.1478C202.219 14.3351 215.19 23.0828 223.867 38.0288C228.476 45.9733 231.304 54.9479 234.936 63.4511C235.128 66.2972 234.936 69.248 235.617 71.9718C237.38 79.1131 240.575 86.0623 241.308 93.2734C243.072 110.542 241.832 128.369 253.459 143.175C258.976 197.25 252.133 250.382 240.942 303.147C238.305 315.631 235.11 327.993 232.16 340.407C231.235 341.018 230.205 342.241 229.384 342.118C221.161 340.931 212.956 339.517 204.75 338.172C200.769 335.326 196.684 332.62 192.826 329.617C185.685 324.03 178.684 318.285 171.631 312.593C169.746 311.458 167.86 310.323 165.975 309.188C165.433 308.822 165.241 308.298 165.398 307.669C166.219 303.845 167.04 300.039 167.843 296.215C169.676 293.561 171.509 290.907 173.342 288.253C190.609 270.671 201.119 249.229 208.608 226.094C210.337 225.239 211.995 223.807 213.776 223.65C221.51 222.952 224.461 219.215 224.845 211.253C225.142 205.229 227.778 199.101 230.327 193.444C233.277 186.913 238.026 181.151 240.645 174.516C244.503 164.756 245.219 154.856 236.21 146.842C223.343 138.094 214.143 145.777 204.68 154.804C202.585 149.967 200.787 145.812 199.006 141.656C199.373 140.154 200.281 138.566 200.054 137.169C197.784 123.969 195.427 110.786 192.773 97.656C192.285 95.2639 190.347 93.1687 189.072 90.9337C188.496 90.9337 187.903 90.9337 187.326 90.9337C185.493 90.4798 183.52 89.3274 181.827 89.6591C168.873 92.2258 155.953 95.0195 143.069 97.9353C141.393 98.3195 139.979 99.8909 138.442 100.904C136.103 101.008 133.764 101.113 131.424 101.218C130.412 100.712 129.434 99.8211 128.386 99.7512C101.71 97.9877 75.5567 101.2 50.0847 109.145C47.012 110.105 44.9694 114.4 42.4553 117.142L42.5601 117.072C41.9316 117.473 41.2856 117.893 40.6571 118.294C40.3428 118.766 39.8889 118.975 39.3128 118.905C23.2335 118.8 20.7369 133.362 14.155 143.524L13.1599 140.451C7.1716 141.255 1.20078 142.075 -4.7875 142.878C-5.95723 142.913 -7.1444 142.948 -8.31413 142.983C-11.9106 139.281 -13.1851 139.84 -15.0357 145.899C-17.2529 151.434 -21.7747 157.231 -21.1636 162.434C-20.1859 170.693 -16.5196 178.917 -12.6264 186.459C-7.99987 195.469 -2.23855 203.605 -2.7623 214.64C-2.88451 217.364 2.26576 220.49 5.21625 223.179C7.50332 225.256 10.1221 226.967 12.6012 228.836V228.783C18.991 242.175 25.3983 255.567 31.8056 268.977C34.6688 273.185 37.532 277.393 40.4127 281.618C40.7444 282.09 41.0936 282.561 41.4253 283.033C41.7395 283.417 42.0712 283.801 42.3855 284.168C44.3409 286.647 46.4184 289.022 48.2341 291.606C51.0973 295.674 53.8034 299.847 56.5793 303.985C55.8286 307.425 55.0604 310.882 54.3097 314.322C51.7607 314.164 48.1817 312.837 46.8549 314.025C38.1082 321.899 29.8677 330.315 21.4527 338.557C12.9329 339.395 4.43061 340.53 -4.10662 340.896C-6.49844 341.001 -8.99501 338.836 -11.4392 337.701L-11.4043 337.736Z" fill="#393C3B"/>
<path d="M-11.4045 337.735C-8.96032 338.87 -6.46374 341.035 -4.07192 340.931C4.46531 340.564 12.9676 339.429 21.4874 338.591C14.0326 352.454 8.77757 367.034 7.76498 382.87C6.76984 398.463 6.01912 414.072 5.16366 429.664C-1.43568 430.223 -8.01755 430.851 -14.6169 431.34C-21.4606 431.829 -24.1667 430.083 -23.1541 421.859C-19.9068 395.599 -17.8816 369.181 -15.4025 342.834C-14.0757 341.14 -12.7314 339.429 -11.4045 337.735Z" fill="#E9E8E7"/>
<path d="M204.75 338.172C212.955 339.516 221.161 340.931 229.384 342.118C230.204 342.24 231.234 341 232.16 340.407C233.522 341.088 234.883 341.786 236.263 342.467C236.49 349.207 236.559 355.964 236.978 362.704C237.38 369.286 238.218 375.834 238.637 382.416C238.689 383.185 237.275 384.058 236.542 384.878C230.117 381.788 223.657 378.767 217.303 375.555C215.941 374.874 214.404 373.651 213.881 372.324C209.621 361.185 205.57 349.975 201.38 338.539C202.009 338.469 203.388 338.329 204.75 338.189V338.172Z" fill="#E6E7E6"/>
<path d="M253.442 143.175C241.815 128.351 243.054 110.524 241.291 93.2735C240.558 86.0623 237.363 79.1131 235.599 71.9718C234.918 69.248 235.128 66.2972 234.918 63.4512C246.179 88.8385 251.155 115.693 253.442 143.175Z" fill="#35424A"/>
<path d="M269.416 347.566C268.229 347.234 267.025 346.92 265.837 346.605C267.025 346.937 268.229 347.252 269.416 347.566Z" fill="#E6E7E6"/>
<path d="M244.538 431.428C230.571 430.084 216.604 428.722 199.897 427.115C204.069 433.384 206.985 438.639 210.721 443.231C220.515 455.314 220.812 455.296 213.532 468.601C210.843 473.508 207.159 477.855 203.929 482.447C200.368 484.647 193.786 481.435 192.983 488.558C184.987 490.985 180.151 486.882 179.051 479.811C177.131 467.361 176.485 454.72 175.315 442.166C176.048 437.434 177.323 432.72 177.393 427.988C177.585 413.007 183.73 401.064 195.253 391.898C205.675 383.604 217.739 383.744 227.865 392.422C239.737 402.584 246.511 415.207 244.538 431.428Z" fill="#E9E8E7"/>
<path d="M244.538 431.428C246.528 415.207 239.737 402.584 227.865 392.422C217.739 383.744 205.675 383.622 195.252 391.898C183.73 401.065 177.584 413.007 177.392 427.988C177.322 432.72 176.048 437.452 175.315 442.166C174.355 442.603 173.377 443.039 172.417 443.476H172.452C171.474 443.162 170.496 442.83 169.536 442.498C168.488 436.474 167.423 430.433 166.376 424.409C166.62 422.174 166.865 419.939 167.092 417.704C168.611 412.973 170.13 408.223 171.631 403.492C173.063 401.03 174.477 398.55 175.908 396.088C184.533 388.65 193.14 381.195 203.58 372.185C200.176 365.271 195.776 356.296 191.377 347.339C188.321 343.934 185.249 340.512 182.193 337.107C179.26 335.99 176.327 334.872 173.394 333.755C177.2 326.334 174.756 319.455 171.631 312.61C178.684 318.302 185.685 324.047 192.826 329.634C196.684 332.637 200.769 335.344 204.75 338.19C203.371 338.329 202.009 338.469 201.38 338.539C205.57 349.976 209.621 361.185 213.881 372.325C214.387 373.652 215.941 374.874 217.303 375.555C223.657 378.785 230.117 381.788 236.542 384.879C250.369 398.463 257.545 414.684 255.519 434.257C255.188 437.435 253.145 440.42 251.888 443.493C250.194 442.917 248.501 442.341 246.808 441.765C246.057 438.308 245.289 434.868 244.538 431.411V431.428Z" fill="#525251"/>
<path d="M246.808 441.765C248.501 442.341 250.195 442.917 251.888 443.493C250.841 455.401 250.858 467.536 248.466 479.165C245.935 491.457 240.051 494.565 227.237 493.866C227.935 492.225 228.616 490.601 229.314 488.96C237.188 490.566 242.251 486.55 243.316 479.514C245.202 467.03 245.725 454.353 246.825 441.747L246.808 441.765Z" fill="#ABAAA9"/>
<path d="M229.314 488.977C228.616 490.618 227.935 492.242 227.236 493.883C225.875 494.233 224.042 495.333 223.221 494.826C220.515 493.15 217.844 491.142 215.958 488.663C215.557 488.139 218.455 483.495 219.904 483.46C223.727 483.372 229.244 482.063 229.297 488.977H229.314Z" fill="#585757"/>
<path d="M192.983 488.576C193.786 481.452 200.368 484.665 203.929 482.465C208.434 491.666 207.229 493.517 195.811 494.897C195.514 494.478 195.095 494.181 194.572 494.024C194.03 492.208 193.507 490.392 192.965 488.576H192.983Z" fill="#585757"/>
<path d="M5.16369 429.682C6.01916 414.09 6.76987 398.481 7.76501 382.888C8.7776 367.052 14.0501 352.472 21.4874 338.609C29.9024 330.368 38.1429 321.952 46.8896 314.077C48.2165 312.89 51.8129 314.217 54.3444 314.374C52.1796 320.817 49.9972 327.26 47.8324 333.72C44.7073 334.907 41.5997 336.095 38.4746 337.264C27.0043 347.112 21.9763 360.347 19.9162 374.647C14.1898 414.492 15.5166 454.406 19.9685 494.286C20.0209 500.03 20.0558 505.774 20.1082 511.536C19.3749 512.462 18.6417 513.405 17.9084 514.33C13.7184 516.268 9.52831 518.189 5.35572 520.127C-0.475436 526.779 -0.702388 533.624 4.70976 540.625C10.279 542.651 15.8483 544.659 21.4351 546.684C20.8589 547.767 20.2828 548.849 19.7066 549.914C9.1966 550.333 1.9513 546.213 -1.1214 538.041C-4.50836 529.032 -1.8372 520.808 6.17627 514.278C7.90467 512.863 10.0346 510.367 9.9124 508.498C8.86489 493.238 7.32854 478.012 5.94932 462.787C5.79219 459.295 5.61761 455.803 5.46048 452.311C5.37319 444.768 5.26843 437.225 5.18114 429.682H5.16369Z" fill="#525251"/>
<path d="M19.6895 549.914C20.2656 548.831 20.8417 547.749 21.4179 546.684C23.5478 545.27 25.6777 543.855 27.8077 542.441C28.8552 541.166 29.9027 539.892 30.9502 538.617C35.0006 531.877 34.0928 525.731 28.7854 520.092C25.154 518.171 21.5401 516.25 17.9087 514.33C18.642 513.404 19.3752 512.462 20.1085 511.536C23.897 513.23 27.668 514.923 31.4565 516.617C32.9405 519.166 34.4245 521.716 35.891 524.265C38.5098 538.373 33.2548 546.684 19.672 549.914H19.6895Z" fill="#585757"/>
<path d="M5.44331 452.31C5.60043 455.802 5.77502 459.295 5.93214 462.787C4.16883 460.499 2.42298 458.229 0.659668 455.942C2.2484 454.72 3.83712 453.515 5.44331 452.293V452.31Z" fill="#E9E8E7"/>
<path d="M175.926 396.071C174.494 398.532 173.08 401.012 171.649 403.474C169.938 403.666 166.743 403.823 166.743 404.067C166.638 408.607 166.917 413.164 167.109 417.704C166.865 419.939 166.621 422.174 166.394 424.409C164.456 424.094 162.5 423.763 160.528 423.431C154.103 443.179 147.626 462.437 141.585 481.836C138.425 491.98 136.522 502.544 133.03 512.566C130.377 520.144 126.099 527.163 122.555 534.426C128.351 514.644 134.165 494.844 139.961 475.061C149.721 443.021 159.48 410.999 169.239 378.959C169.501 377.894 169.781 376.829 170.042 375.764C171.876 369.898 173.726 364.048 175.559 358.182C175.943 358.042 176.328 357.955 176.712 357.885C177.759 360.713 180.395 364.136 179.61 366.266C176.135 375.677 171.666 384.721 167.738 393.504C171.265 394.604 173.604 395.337 175.961 396.053L175.926 396.071Z" fill="#D0E6E5"/>
<path d="M86.608 494.251C78.2628 467.187 69.8303 440.141 61.6074 413.043C54.4668 389.506 47.5707 365.9 40.5698 342.328C43.4854 348.719 46.401 355.127 49.3165 361.517C51.5512 368.623 53.7685 375.747 56.0032 382.854C59.6695 394.552 63.1786 406.285 67.0894 417.897C68.1019 420.882 70.3716 423.432 72.0476 426.19C72.5713 430.485 72.5713 434.938 73.7061 439.059C78.7691 457.514 84.1638 475.882 89.4363 494.268C88.4935 494.268 87.5508 494.268 86.5905 494.268L86.608 494.251Z" fill="#3BA09B"/>
<path d="M139.926 475.061C134.13 494.844 128.316 514.644 122.52 534.427C119.081 545.007 115.659 555.571 112.237 566.152C111.434 566.187 110.631 566.222 109.828 566.257C104.363 557.055 102.408 546.527 99.9111 536.207C100.522 534.461 101.133 532.715 101.744 530.969C102.739 532.384 104.293 533.658 104.642 535.212C106.196 542.214 107.418 549.285 108.763 556.339C109.723 556.339 110.666 556.339 111.626 556.339C112.411 554.069 113.494 551.834 113.948 549.495C115.048 543.681 114.192 536.749 117.108 532.174C125.872 518.468 125.977 502.719 130.01 487.912C131.284 483.198 135.544 479.304 138.442 475.026C138.948 475.026 139.455 475.026 139.961 475.044L139.926 475.061Z" fill="#36A49C"/>
<path d="M192.983 488.576C193.524 490.392 194.048 492.207 194.589 494.023C180.727 494.425 174.774 489.431 172.609 474.328C171.09 463.782 170.531 453.114 169.536 442.48C170.514 442.812 171.491 443.144 172.452 443.476H172.417C173.377 443.039 174.355 442.603 175.315 442.166C176.485 454.72 177.131 467.379 179.051 479.811C180.151 486.882 184.987 490.985 192.983 488.558V488.576Z" fill="#ABAAA9"/>
<path d="M49.3164 361.517C46.4008 355.126 43.4852 348.718 40.5696 342.328C39.8713 340.634 39.173 338.958 38.4746 337.264C41.5997 336.077 44.7073 334.89 47.8324 333.72C49.9274 340.459 51.9701 347.217 54.1349 353.921C56.0554 359.875 58.1329 365.777 60.1407 371.696C58.1679 368.798 56.2998 365.812 54.1873 363.018C53.035 361.499 52.9652 355.353 49.3164 361.499V361.517Z" fill="#3B9E94"/>
<path d="M79.1006 499.506C81.3178 501.304 84.9317 502.753 85.4904 504.971C87.2363 511.815 87.8299 518.974 88.9298 526.465C82.2431 527.931 80.6893 525.435 81.2655 519.254C81.5972 515.657 79.9037 511.868 79.118 508.166C79.118 505.285 79.118 502.387 79.1006 499.506Z" fill="#F2E6E8"/>
<path d="M101.727 530.953C101.116 532.699 100.505 534.445 99.8938 536.191C95.4593 522.205 91.0248 508.219 86.5903 494.233C87.5331 494.233 88.4759 494.233 89.4361 494.233C90.6407 497.149 91.8279 500.065 93.0325 502.964C93.0325 503.54 93.0326 504.116 93.05 504.675C93.6261 505.845 94.2023 507.014 94.7609 508.184C97.0829 515.762 99.4049 523.34 101.709 530.9L101.727 530.953Z" fill="#3C9F9D"/>
<path d="M31.4565 516.617C27.668 514.923 23.8969 513.23 20.1084 511.536C20.056 505.792 20.0211 500.047 19.9688 494.285C26.603 500.292 32.277 506.787 31.4565 516.617Z" fill="#FDFEFE"/>
<path d="M146.334 497.044C151.659 504.238 147.364 511.117 145.915 518.084C145.024 518.084 144.134 518.049 143.244 518.031V497.044C144.274 497.044 145.304 497.044 146.334 497.044Z" fill="#E1EDE7"/>
<path d="M79.1008 499.506C79.1008 502.387 79.1008 505.285 79.1183 508.166C77.7565 508.812 76.3947 509.441 75.033 510.087C74.2997 507.293 73.0601 504.482 73.1474 501.723C73.1649 500.92 77.0058 500.239 79.1008 499.506Z" fill="#E1EDE7"/>
<path d="M41.4601 283.067C41.1284 282.596 40.7793 282.124 40.4475 281.653C40.0984 275.734 41.5998 268.54 31.8405 269.011C31.3167 265.397 31.2643 261.643 30.1645 258.221C28.5583 253.297 27.1616 247.745 23.8794 244.043C19.6195 239.241 21.3653 230.057 12.6186 228.8L12.6361 228.853V218.935C2.16095 220.541 0.2405 214.186 -1.1911 206.8C-2.48303 200.113 -3.70512 193.251 -6.39374 187.07C-9.02998 180.994 -14.1104 176.017 -16.9736 170.011C-22.6476 158.103 -13.2724 145.27 -0.0213685 146.055C1.65465 146.16 3.36558 145.741 5.05906 145.567L5.23364 145.689C3.8195 154.192 5.49553 155.606 20.4924 157.911C22.5525 148.971 24.6126 139.979 26.6902 130.987L28.4011 129.171C35.4544 128.682 40.0635 125.086 42.2283 118.363C42.2981 117.909 42.4204 117.473 42.5775 117.036L42.4727 117.106C55.9682 113.003 69.2367 107.555 83.0464 105.163C98.9337 102.422 115.292 102.387 131.459 101.165C133.798 101.06 136.138 100.955 138.477 100.851C154.766 97.5157 171.072 94.1982 187.361 90.8633C187.937 90.8633 188.531 90.8633 189.107 90.8633C190.451 108.166 190.975 125.609 199.041 141.603C200.839 145.759 202.637 149.914 204.715 154.751C214.178 145.724 223.378 138.041 236.245 146.789C236.961 149.408 237.38 152.149 238.462 154.594C242.129 162.905 238.41 178.671 232.23 182.303C229.751 183.77 226.975 186.354 226.276 188.956C224.373 196.149 224.338 203.884 221.912 210.833C220.567 214.657 215.819 217.259 212.763 220.541C211.21 222.218 209.988 224.191 208.626 226.041C201.136 249.176 190.643 270.6 173.359 288.2C166.882 290.732 160.493 293.334 161.173 302.116C156.879 305.486 153.055 309.921 148.219 312.016C136.941 316.87 125.471 322.213 113.546 324.396C96.8387 327.469 82.9766 318.494 69.6382 309.45C66.81 307.529 63.1262 306.883 59.844 305.643C58.7616 305.084 57.6966 304.526 56.6142 303.95C53.8382 299.811 51.1496 295.638 48.269 291.57C46.4533 289.003 44.3757 286.611 42.4204 284.132C42.2458 283.626 41.9315 283.242 41.4601 282.997V283.067Z" fill="#F8DABD"/>
<path d="M161.173 302.186C160.492 293.404 166.882 290.802 173.359 288.271C171.526 290.924 169.693 293.578 167.86 296.232C162.518 299.078 164.124 303.409 165.416 307.669C165.259 308.315 165.451 308.821 165.992 309.188C167.842 317.552 169.693 325.898 171.544 334.261C168.663 345.68 165.782 357.082 162.919 368.501C162.221 370.16 161.522 371.801 160.842 373.46C160.231 374.595 159.602 375.729 158.991 376.882C156.809 380.496 154.609 384.128 152.427 387.742C146.176 394.831 139.996 401.99 133.624 408.991C130.027 412.955 126.117 416.622 122.363 420.428L122.572 420.603C120.058 421.615 117.614 423.117 115.013 423.518C112.324 423.92 109.479 423.257 106.703 423.064C106.912 422.82 107.104 422.576 107.314 422.331C115.048 416.814 122.852 411.401 130.446 405.709C132.402 404.242 133.676 401.885 135.247 399.93C136.627 398.236 139.001 396.629 139.176 394.814C139.664 389.645 142.912 387.271 146.787 384.844C148.882 383.534 150.628 381.526 152.165 379.553C159.672 369.968 162.256 358.566 164.927 346.937C166.795 338.836 168 331.712 164.77 323.506C162.186 316.958 162.273 309.345 161.173 302.204V302.186Z" fill="#D2D6C3"/>
<path d="M56.614 304.02C57.6965 304.578 58.7615 305.137 59.8439 305.696C59.6344 308.577 60.2629 311.859 59.0932 314.269C51.167 330.577 53.1747 345.924 61.904 361.324C71.2443 377.807 79.6419 394.848 93.6611 408.171C98.4098 412.675 102.774 417.582 107.314 422.313C107.104 422.558 106.895 422.802 106.703 423.047C105.149 422.767 103.578 422.506 102.006 422.244H102.146C100.348 421.091 98.5495 419.939 96.7513 418.787L96.9258 418.699C84.9143 403.107 72.9203 387.532 60.8914 371.958C60.7517 371.783 60.3502 371.783 60.0708 371.713L60.1232 371.678C58.1155 365.759 56.0554 359.84 54.1175 353.904C51.9526 347.182 49.91 340.424 47.8149 333.702C49.9798 327.259 52.1621 320.816 54.327 314.356C55.0777 310.916 55.8459 307.459 56.5966 304.02H56.614Z" fill="#D2D6C3"/>
<path d="M5.059 145.637C3.36552 145.812 1.65459 146.213 -0.0214285 146.126C-13.255 145.34 -22.6302 158.174 -16.9737 170.082C-14.1105 176.088 -9.03004 181.064 -6.3938 187.141C-3.70519 193.304 -2.48309 200.183 -1.19116 206.871C0.24044 214.239 2.14343 220.612 12.636 219.006V228.923C10.1569 227.055 7.52066 225.344 5.25105 223.266C2.30055 220.577 -2.84972 217.452 -2.72751 214.728C-2.20375 203.693 -7.96508 195.556 -12.5916 186.547C-16.4674 179.004 -20.1511 170.78 -21.1288 162.521C-21.7399 157.318 -17.2181 151.521 -15.0009 145.986C-12.7662 145.009 -10.514 144.031 -8.27933 143.071C-7.10961 143.036 -5.92242 143.001 -4.75269 142.966C-1.47049 143.874 1.79426 144.782 5.07646 145.69L5.059 145.637Z" fill="#E6D3BE"/>
<path d="M208.608 226.112C209.988 224.279 211.192 222.288 212.746 220.612C215.801 217.329 220.568 214.728 221.894 210.904C224.321 203.955 224.356 196.202 226.259 189.026C226.94 186.425 229.716 183.84 232.212 182.374C238.393 178.742 242.111 162.975 238.445 154.664C237.363 152.22 236.961 149.461 236.228 146.859C245.219 154.874 244.521 164.774 240.662 174.534C238.044 181.169 233.295 186.931 230.344 193.461C227.795 199.118 225.142 205.229 224.862 211.271C224.478 219.233 221.545 222.987 213.794 223.668C212.013 223.825 210.337 225.274 208.626 226.112H208.608Z" fill="#E6D3BE"/>
<path d="M131.424 101.235C115.275 102.457 98.8989 102.492 83.0117 105.233C69.2194 107.625 55.9509 113.073 42.438 117.176C44.952 114.435 46.9947 110.14 50.0674 109.179C75.5394 101.235 101.692 98.022 128.369 99.7855C129.416 99.8554 130.394 100.746 131.407 101.252L131.424 101.235Z" fill="#433C32"/>
<path d="M5.05914 145.637C1.77693 144.729 -1.48781 143.821 -4.77002 142.913C1.21826 142.11 7.18908 141.289 13.1774 140.486L14.1725 143.559C20.7544 133.397 23.251 118.835 39.3303 118.94C35.6814 122.38 32.0326 125.802 28.4012 129.242C27.8251 129.853 27.2664 130.464 26.6903 131.057C22.4828 137.937 18.2927 144.816 14.19 151.521C11.3791 149.705 8.30643 147.732 5.25118 145.759L5.0766 145.637H5.05914Z" fill="#433C32"/>
<path d="M199.024 141.656C190.958 125.68 190.434 108.219 189.09 90.916C190.364 93.1509 192.302 95.2462 192.791 97.6383C195.445 110.768 197.784 123.951 200.071 137.151C200.316 138.548 199.408 140.137 199.024 141.638V141.656Z" fill="#433C32"/>
<path d="M12.6014 228.836C21.3482 230.076 19.5849 239.277 23.8622 244.079C27.1444 247.763 28.5411 253.315 30.1473 258.257C31.2646 261.679 31.2995 265.433 31.8233 269.047C25.416 255.655 19.0087 242.246 12.584 228.853L12.6014 228.836Z" fill="#E6D3BE"/>
<path d="M187.344 90.9335C171.055 94.2684 154.749 97.5858 138.46 100.921C139.996 99.8906 141.41 98.3192 143.086 97.9525C155.971 95.0192 168.89 92.243 181.844 89.6763C183.52 89.3446 185.493 90.4969 187.344 90.9509V90.9335Z" fill="#433C32"/>
<path d="M171.526 334.262C169.676 325.898 167.825 317.552 165.975 309.188C167.86 310.323 169.746 311.458 171.631 312.593C174.756 319.42 177.2 326.317 173.394 333.738C172.766 333.912 172.155 334.087 171.526 334.279V334.262Z" fill="#4E4A40"/>
<path d="M31.8403 269.029C41.5997 268.557 40.0808 275.751 40.4474 281.67C37.5842 277.462 34.721 273.237 31.8403 269.029Z" fill="#E6D3BE"/>
<path d="M28.3838 129.242C32.0326 125.802 35.6815 122.38 39.3128 118.94C39.889 119.01 40.3254 118.801 40.6571 118.329C41.1809 118.329 41.6872 118.364 42.211 118.434C40.0461 125.156 35.437 128.753 28.3838 129.242Z" fill="#E6D3BE"/>
<path d="M165.398 307.669C164.107 303.409 162.5 299.078 167.843 296.232C167.022 300.039 166.202 303.863 165.398 307.669Z" fill="#4E4A40"/>
<path d="M42.1935 118.416C41.6872 118.363 41.1634 118.329 40.6396 118.311C41.2682 117.91 41.9141 117.49 42.5426 117.089C42.3855 117.525 42.2633 117.962 42.1935 118.416Z" fill="#433C32"/>
<path d="M41.46 283.067C41.9313 283.312 42.2456 283.696 42.4202 284.202C42.1059 283.818 41.7742 283.434 41.46 283.067Z" fill="#E6D3BE"/>
<path d="M175.926 396.071C173.587 395.337 171.23 394.604 167.703 393.521C171.631 384.739 176.101 375.694 179.575 366.283C180.361 364.136 177.742 360.731 176.677 357.902C176.904 356.785 177.113 355.667 177.34 354.532C182.019 352.123 186.698 349.713 191.359 347.321C195.759 356.278 200.159 365.253 203.563 372.167C193.123 381.177 184.516 388.632 175.891 396.071H175.926Z" fill="#E7E9E8"/>
<path d="M177.358 354.532C177.131 355.65 176.921 356.767 176.694 357.902C176.293 357.972 175.909 358.059 175.542 358.199C167.86 362.232 170.269 369.426 170.025 375.782C169.763 376.847 169.484 377.912 169.222 378.96C168.297 378.977 167.354 379.012 166.429 379.029C165.276 377.283 164.107 375.537 162.954 373.791C162.954 372.028 162.919 370.264 162.919 368.501C165.8 357.082 168.663 345.68 171.544 334.261C172.172 334.086 172.801 333.912 173.412 333.72C176.345 334.837 179.278 335.955 182.211 337.072C180.587 342.886 178.981 348.701 177.358 354.515V354.532Z" fill="#32A296"/>
<path d="M177.357 354.533C178.964 348.718 180.587 342.904 182.211 337.09C185.266 340.495 188.339 343.917 191.394 347.322C186.715 349.731 182.036 352.141 177.375 354.533H177.357Z" fill="#D0E6E5"/>
<path d="M167.092 417.687C166.9 413.148 166.621 408.59 166.725 404.051C166.725 403.824 169.92 403.667 171.631 403.457C170.112 408.189 168.593 412.938 167.092 417.67V417.687Z" fill="#E7E9E8"/>
<path d="M27.8075 542.441C25.6776 543.855 23.5476 545.269 21.4177 546.684C15.8484 544.658 10.2791 542.65 4.69238 540.625C5.14631 540.188 5.60023 539.752 6.05415 539.315C12.444 543.995 19.1655 544.903 26.2886 541.027C26.7949 541.498 27.3012 541.969 27.825 542.441H27.8075Z" fill="#B7B7B7"/>
<path d="M17.9085 514.312C21.5399 516.233 25.1538 518.154 28.7852 520.074C28.3487 520.493 27.9123 520.93 27.4933 521.332C20.5273 516.216 13.509 517.176 6.45572 521.192C6.0891 520.825 5.70501 520.459 5.33838 520.109C9.52843 518.171 13.7185 516.251 17.8911 514.312H17.9085Z" fill="#B7B7B7"/>
<path d="M4.69262 540.625C-0.702068 533.606 -0.49256 526.779 5.33859 520.127C5.70522 520.494 6.08931 520.843 6.43848 521.192C6.29881 527.216 6.17661 533.275 6.03694 539.316C5.58302 539.752 5.12908 540.189 4.67516 540.625H4.69262Z" fill="#B7B7B7"/>
<path d="M28.7851 520.092C34.075 525.731 35.0003 531.895 30.95 538.617C30.3738 538.111 29.7977 537.587 29.2216 537.081C28.6454 531.843 28.0693 526.605 27.4932 521.366C27.9296 520.947 28.3661 520.511 28.8026 520.092H28.7851Z" fill="#B7B7B7"/>
<path d="M30.95 538.618C29.9025 539.892 28.855 541.167 27.8075 542.441C27.3012 541.97 26.7949 541.498 26.2886 541.027C27.2663 539.718 28.2439 538.391 29.2216 537.081C29.7977 537.587 30.3739 538.111 30.95 538.618Z" fill="#B7B7B7"/>
<path d="M166.411 379.03C167.337 379.012 168.279 378.977 169.205 378.96C159.445 411 149.686 443.022 139.927 475.062C139.42 475.062 138.914 475.062 138.408 475.044C139.595 468.654 140.765 462.263 141.952 455.855C145.444 443.039 148.953 430.224 152.444 417.39V414.003C154.208 410.476 155.936 406.966 157.682 403.439C158.799 401.1 159.917 398.777 161.051 396.438C162.85 390.641 164.63 384.827 166.429 379.03H166.411Z" fill="#3C9F9D"/>
<path d="M170.025 375.764C170.269 369.409 167.86 362.215 175.542 358.182C173.709 364.048 171.858 369.898 170.025 375.764Z" fill="#3C9F9D"/>
<path d="M161.034 396.437C159.916 398.777 158.799 401.099 157.664 403.439C150.331 404.19 150.803 408.817 152.444 414.002C152.444 415.137 152.444 416.272 152.444 417.39C150.052 419.014 145.88 420.341 145.565 422.279C143.854 433.383 143.051 444.645 141.951 455.855C140.782 462.245 139.594 468.636 138.407 475.044C135.509 479.322 131.249 483.215 129.975 487.93C125.942 502.736 125.837 518.485 117.073 532.192C114.157 536.766 115.013 543.698 113.913 549.512C113.476 551.852 112.394 554.07 111.591 556.357C110.631 556.357 109.688 556.357 108.728 556.357C107.383 549.303 106.179 542.231 104.608 535.23C104.258 533.676 102.705 532.384 101.709 530.987C99.3874 523.409 97.0654 515.831 94.7434 508.271C94.1673 507.101 93.5912 505.931 93.0325 504.761C93.0325 504.185 93.0325 503.609 93.015 503.05C92.5611 496.363 92.7532 489.553 91.5485 482.988C88.3885 465.685 76.9183 450.477 78.8038 431.76C79.153 428.25 77.5817 424.042 72.0299 426.225C70.3364 423.466 68.0668 420.917 67.0716 417.931C63.1609 406.32 59.6517 394.569 55.9854 382.888C53.7507 375.782 51.5335 368.658 49.2988 361.552C52.9477 355.405 53.0175 361.552 54.1698 363.071C56.2822 365.864 58.1503 368.833 60.1231 371.748L60.0708 371.783C60.2453 373.477 59.9485 375.45 60.6993 376.829C65.7972 386.171 70.1443 396.141 76.6738 404.382C81.7019 410.72 86.6601 419.014 96.9257 418.769L96.7512 418.856C98.5494 420.009 100.348 421.144 102.146 422.296H102.006C106.161 431.079 112.15 432.441 118.243 425.928C119.796 424.269 121.123 422.401 122.555 420.637L122.345 420.463C127.059 418.141 132.471 416.639 136.312 413.304C142.772 407.699 148.219 400.942 154.102 394.674C156.424 395.267 158.729 395.861 161.051 396.472L161.034 396.437Z" fill="#0FA7A4"/>
<path d="M72.0474 426.172C77.5817 423.99 79.1704 428.215 78.8213 431.707C76.9358 450.425 88.406 465.633 91.566 482.936C92.7707 489.484 92.5786 496.293 93.0325 502.998C91.8279 500.082 90.6407 497.166 89.4361 494.268C84.1636 475.864 78.7689 457.514 73.7059 439.058C72.5711 434.92 72.5711 430.485 72.0474 426.19V426.172Z" fill="#0DABA0"/>
<path d="M93.0503 504.727C93.6264 505.896 94.2025 507.066 94.7612 508.236C94.1851 507.066 93.609 505.896 93.0503 504.727Z" fill="#0DABA0"/>
<path d="M107.314 422.314C102.775 417.582 98.3926 412.693 93.6613 408.171C79.6421 394.849 71.2446 377.807 61.9042 361.325C53.175 345.925 51.1672 330.577 59.0934 314.269C60.2631 311.859 59.6521 308.577 59.8441 305.696C63.1263 306.936 66.8101 307.582 69.6384 309.502C82.9767 318.547 96.8388 327.521 113.547 324.448C125.471 322.248 136.941 316.923 148.219 312.069C153.055 309.991 156.879 305.539 161.174 302.169C162.273 309.31 162.169 316.923 164.77 323.471C168.017 331.677 166.795 338.801 164.927 346.902C162.256 358.531 159.672 369.933 152.165 379.518C150.611 381.491 148.865 383.517 146.788 384.809C142.912 387.218 139.682 389.61 139.176 394.779C139.001 396.595 136.627 398.201 135.248 399.895C133.659 401.85 132.402 404.207 130.447 405.674C122.852 411.366 115.048 416.779 107.314 422.296V422.314Z" fill="#ECD2B2"/>
<path d="M5.23381 145.759C8.30652 147.732 11.3618 149.705 14.1726 151.521C18.2754 144.816 22.4654 137.937 26.6729 131.058C24.6128 140.05 22.5352 149.042 20.4751 157.999C5.49569 155.694 3.80222 154.262 5.21636 145.777L5.23381 145.759Z" fill="#E6D3BE"/>
<path d="M154.103 394.639C148.237 400.907 142.772 407.664 136.33 413.269C132.489 416.604 127.077 418.106 122.363 420.428C126.117 416.621 130.028 412.937 133.624 408.974C139.979 401.972 146.159 394.814 152.427 387.725C153.02 388.336 153.632 388.947 154.225 389.558C154.19 391.252 154.155 392.945 154.12 394.639H154.103Z" fill="#3DA08E"/>
<path d="M122.555 420.603C121.123 422.366 119.797 424.234 118.243 425.893C112.15 432.406 106.161 431.044 102.006 422.261C103.578 422.523 105.131 422.803 106.703 423.064C109.479 423.257 112.324 423.92 115.013 423.518C117.614 423.117 120.058 421.615 122.573 420.603H122.555Z" fill="#3DA08E"/>
<path d="M154.207 389.558C153.614 388.947 153.003 388.336 152.409 387.725C154.591 384.11 156.791 380.479 158.974 376.864L159.55 377.336C157.769 381.404 155.988 385.49 154.207 389.558Z" fill="#3B9E94"/>
<path d="M162.902 368.501C162.902 370.264 162.937 372.028 162.937 373.791C162.413 373.844 161.889 373.914 161.365 373.966L160.824 373.442C161.523 371.783 162.221 370.142 162.902 368.483V368.501Z" fill="#3B9E94"/>
<path d="M158.974 376.865C159.585 375.73 160.213 374.595 160.824 373.442L161.365 373.966C160.754 375.084 160.161 376.219 159.55 377.336L158.974 376.865Z" fill="#3B9E94"/>
<path d="M96.9258 418.7C86.6602 418.944 81.7019 410.633 76.6739 404.312C70.1444 396.089 65.7972 386.101 60.6993 376.76C59.9486 375.381 60.2454 373.408 60.0708 371.714C60.3501 371.784 60.7517 371.766 60.8914 371.958C72.9203 387.533 84.9143 403.108 96.9258 418.7Z" fill="#3DA08E"/>
<path d="M159.55 377.335C160.161 376.218 160.754 375.083 161.365 373.966C161.889 373.896 162.413 373.843 162.954 373.791C164.106 375.537 165.276 377.283 166.428 379.029C164.648 384.826 162.849 390.64 161.051 396.437C158.729 395.843 156.425 395.25 154.103 394.639C154.137 392.945 154.172 391.251 154.207 389.558C155.988 385.489 157.769 381.421 159.55 377.335Z" fill="#0DABA0"/>
<path d="M29.2217 537.081C28.244 538.39 27.2663 539.717 26.2887 541.027C19.1656 544.903 12.4615 543.977 6.0542 539.315C6.17641 533.274 6.29862 527.215 6.45575 521.192C13.509 517.193 20.5273 516.233 27.5108 521.349C28.0694 526.604 28.6456 531.842 29.2217 537.081Z" fill="#808080"/>
<path d="M141.952 455.855C143.069 444.645 143.855 433.401 145.566 422.279C145.862 420.34 150.052 418.996 152.444 417.39C148.953 430.206 145.443 443.021 141.952 455.855Z" fill="#0DABA0"/>
<path d="M152.462 414.003C150.82 408.817 150.349 404.19 157.682 403.439C155.936 406.966 154.19 410.476 152.462 414.003Z" fill="#0DABA0"/>
</g>
<defs>
<clipPath id="clip0_106_442">
<rect width="517" height="620" fill="white" transform="translate(-148)"/>
</clipPath>
</defs>
</svg>
