<svg width="1027" height="364" viewBox="0 0 1027 364" fill="none" xmlns="http://www.w3.org/2000/svg">
<g clip-path="url(#clip0_8_47)">
<path d="M586.548 213.706C581.907 200.65 577.452 188.097 572.663 174.662C583.165 172.019 594.942 169.015 606.719 166.084C677.345 148.531 747.934 130.871 818.634 113.624C826.289 111.754 829.191 108.858 828.618 101.071C827.879 90.9639 828.433 80.7849 828.433 69.1851C824.181 69.1851 820.613 69.1851 817.063 69.1851C790.569 69.1851 764.075 69.3649 737.599 69.1132C707.241 68.8254 685.702 54.6359 672.131 28.5408C670.671 25.7353 669.894 22.588 668.545 18.9373H1016.13C1013.3 31.4902 1006.33 41.3096 997.27 49.8161C983.33 62.9086 966.505 69.2211 947.111 69.1851C921.246 69.1311 895.362 69.1851 869.496 69.1851C865.577 69.1851 861.657 69.1851 856.388 69.1851C856.388 80.0116 856.184 89.795 856.591 99.5784C856.665 101.161 859.217 103.373 861.084 104.02C867.019 106.053 871.696 109.883 870.032 115.71C868.794 120.062 863.968 123.551 860.363 127.076C858.292 129.108 855.648 130.727 852.986 132.058C849.307 133.892 845.517 135.906 841.523 136.734C835.126 138.047 828.174 137.435 822.036 139.377C745.956 163.296 669.987 187.521 593.98 211.638C591.096 212.555 588.138 213.274 586.511 213.724L586.548 213.706ZM842.743 108.301C839.064 113.174 835.255 116.016 835.44 118.606C835.625 121.375 839.563 123.911 841.856 126.555C844.666 124.055 848.974 121.933 849.787 118.911C850.379 116.735 846.312 113.372 842.743 108.301Z" fill="#673957"/>
<path d="M171.111 233.92C139.958 233.92 110.432 234.028 80.8871 233.884C53.3947 233.759 32.4102 222.069 17.9892 199.409C15.1419 194.949 13.3116 189.877 10.4644 183.942H359.102C349.858 209.318 332.886 225.09 307.353 231.798C300.642 233.561 293.357 233.777 286.313 233.831C257.711 234.046 229.091 233.92 199.713 233.92V267.209C282.8 246.581 365.24 226.097 448.272 205.487V247.768C424.108 252.21 400.313 256.617 376.5 260.951C319.685 271.292 262.87 281.597 206.054 291.937C204.242 292.261 201.765 292.153 200.767 293.268C191.874 303.07 181.15 300.642 169.928 298.843C163.327 297.782 158.668 295.75 157.134 289.384C155.673 283.269 158.409 278.144 164.363 276.543C170.834 274.781 171.277 270.95 171.167 265.77C170.963 255.645 171.111 245.52 171.111 233.956V233.92ZM173.94 283.557C178.821 287.1 181.76 290.876 184.515 290.75C187.252 290.625 189.803 286.578 192.447 284.258C189.895 281.561 187.714 277.334 184.7 276.669C182.352 276.165 178.987 280.14 173.958 283.557H173.94Z" fill="#673957"/>
<path d="M629.294 336.052H403.974C404.067 309.166 410.519 300.012 435.922 290.624C452.876 284.348 462.194 271.291 462.509 253.397C462.768 238.74 461.769 223.921 463.581 209.444C467.186 180.777 491.536 161.192 519.435 162.829C547.556 164.483 569.779 187.503 570.463 216.026C570.777 228.903 570.26 241.797 570.63 254.674C571.129 271.219 579.023 284.564 595.09 289.401C617.313 296.092 628.684 309.094 629.331 331.431C629.349 332.312 629.737 333.175 629.885 334.056C629.922 334.326 629.719 334.632 629.275 336.052H629.294ZM534.207 211.476C534.189 202.178 526.091 194.373 516.495 194.409C506.955 194.445 498.746 202.43 498.802 211.584C498.857 220.684 507.251 228.759 516.643 228.741C526.054 228.741 534.263 220.684 534.226 211.476H534.207Z" fill="#673957"/>
<path d="M516.588 342.329C553.86 342.329 591.152 342.239 628.425 342.473C631.919 342.491 638.186 344.163 638.353 345.584C638.797 349.631 638.15 355.781 635.413 357.759C630.662 361.158 624.006 363.64 618.126 363.694C567.912 364.126 517.697 363.928 467.464 363.928C448.975 363.928 430.487 364.27 412.017 363.676C407.246 363.532 401.404 361.554 398.224 358.371C395.34 355.475 394.767 349.81 394.656 345.35C394.637 344.433 401.219 342.545 404.769 342.509C442.042 342.293 479.333 342.383 516.606 342.383V342.347L516.588 342.329Z" fill="#673957"/>
<path d="M184.626 176.371C128.883 176.371 73.1406 176.371 17.4162 176.371C14.0328 176.371 10.3351 177.144 7.33994 176.083C4.5112 175.058 2.422 172.091 0 169.968C2.422 168.152 4.58515 165.706 7.32145 164.699C9.74345 163.8 12.7941 164.429 15.5673 164.429C129.198 164.429 242.828 164.429 356.459 164.429C358.918 164.429 361.765 163.746 363.743 164.699C366.11 165.85 369.234 168.422 369.253 170.4C369.271 172.324 366.128 175.04 363.762 176.047C361.414 177.036 358.307 176.353 355.553 176.353C298.59 176.353 241.608 176.353 184.645 176.353L184.626 176.371Z" fill="#673957"/>
<path d="M842.781 11.5999C786.409 11.5999 730.038 11.5999 673.666 11.5999C671.503 11.5999 669.358 11.6538 667.195 11.528C662.943 11.2762 657.156 11.7078 658.321 5.66511C658.764 3.34515 664.422 0.395742 667.713 0.377758C727.782 0.0540424 787.851 0.143963 847.92 0.143963C903.367 0.143963 958.815 0.161948 1014.26 0.179932C1016.72 0.179932 1019.55 -0.431531 1021.55 0.521631C1023.86 1.61867 1026.37 3.92064 1026.98 6.16867C1027.31 7.35562 1024.1 10.2691 1021.95 11.0963C1019.53 12.0135 1016.5 11.5459 1013.73 11.5459C956.744 11.5459 899.744 11.5459 842.762 11.5459V11.5819L842.781 11.5999Z" fill="#673957"/>
</g>
<defs>
<clipPath id="clip0_8_47">
<rect width="1027" height="364" fill="white"/>
</clipPath>
</defs>
</svg>
