<svg width="41" height="61" viewBox="0 0 41 61" fill="none" xmlns="http://www.w3.org/2000/svg">
<g clip-path="url(#clip0_10_61)">
<path d="M20.6604 47.1506C19.0765 47.1506 17.4876 47.1308 15.9038 47.1506C12.2599 47.2 10.1147 48.8712 9.48312 52.451C9.17236 54.2113 9.16735 56.0457 9.23752 57.8405C9.29767 59.398 9.17236 60.8022 7.31784 60.9654C5.40317 61.1335 4.92701 59.6502 4.96209 58.1668C5.02224 55.7094 5.01723 53.2075 5.52346 50.8194C6.24021 47.4176 8.2852 44.8069 11.7386 43.6499C13.132 43.1851 13.5781 42.4434 13.3726 41.1331C13.3626 41.054 13.3726 40.97 13.3726 40.8859C13.3726 36.3568 14.2848 31.5804 13.112 27.3677C11.9792 23.3132 8.58593 19.9065 6.38055 16.1042C4.3105 12.5392 2.42089 8.87042 0.581406 5.18184C-0.53632 2.94694 0.015025 1.11748 1.75928 0.326364C3.63886 -0.529031 5.09241 0.415365 6.45573 2.72938C10.0896 8.90008 13.7335 15.0757 17.6731 21.0586C19.8584 24.3713 21.0463 24.3615 23.2116 21.1525C26.9407 15.6196 30.344 9.8692 33.8726 4.20283C34.1332 3.7875 34.2786 3.30294 34.4941 2.85794C35.677 0.370864 37.2107 -0.489475 39.1054 0.271975C40.9499 1.01859 41.6265 2.99144 40.3233 5.30545C36.9651 11.2586 33.5669 17.2068 29.8277 22.9226C28.4093 25.0883 27.4018 27.0265 27.5321 29.657C27.7176 33.5186 27.5071 37.4 27.6424 41.2617C27.6675 42.0132 28.314 43.1455 28.9656 43.4076C33.0105 45.0491 35.1658 48.1048 35.7772 52.184C36.1181 54.4387 36.088 56.7972 35.8073 59.0618C35.7171 59.7936 34.2886 60.3622 33.4716 61.005C32.8852 60.2287 31.9078 59.5117 31.7825 58.6712C31.4868 56.6588 31.8176 54.5524 31.4818 52.5549C30.8552 48.802 28.7351 47.1852 24.9258 47.1555C23.5073 47.1456 22.0889 47.1555 20.6704 47.1555L20.6604 47.1506Z" fill="#C599B6"/>
<path d="M20.4899 60.56C17.227 60.5699 14.5554 57.9988 14.5103 54.8096C14.4652 51.6402 17.0966 48.9751 20.3396 48.9009C23.7128 48.8268 26.4444 51.4622 26.4194 54.7799C26.3943 57.9741 23.7479 60.5501 20.4899 60.56Z" fill="#C599B6"/>
</g>
<defs>
<clipPath id="clip0_10_61">
<rect width="41" height="61" fill="white"/>
</clipPath>
</defs>
</svg>
