<svg width="56" height="58" viewBox="0 0 56 58" fill="none" xmlns="http://www.w3.org/2000/svg">
<g clip-path="url(#clip0_10_76)">
<path d="M46.6841 40.4012C46.4225 37.5708 46.1837 34.8654 45.9062 32.1668C45.8835 31.9463 45.581 31.7576 45.4081 31.553C45.2717 31.8213 44.9965 32.1032 45.0192 32.3578C45.1648 34.0538 45.3763 35.7452 45.5582 37.4389C45.631 38.1119 45.6811 38.7871 45.7516 39.601C45.2626 39.601 44.8623 39.6123 44.462 39.601C40.6729 39.485 36.886 39.3486 33.0969 39.2486C29.7672 39.1599 27.2267 40.7536 26.1691 43.5454C25.0887 46.3986 25.9689 49.2517 28.5936 51.4092C28.6709 51.4729 28.73 51.5593 28.887 51.7366C28.4571 51.7639 28.1364 51.8003 27.8157 51.8003C25.5186 51.8048 23.2238 51.8025 20.7651 51.8025C21.0153 51.2592 21.17 50.8863 21.3542 50.5271C24.8681 43.6954 28.398 36.8706 31.8869 30.0253C32.3941 29.0272 32.6966 27.9246 33.1446 26.7379C35.6101 26.7379 38.2211 26.7128 40.8321 26.7447C43.177 26.7742 45.5355 26.7265 47.8645 26.9652C50.4505 27.2312 52.2404 28.7339 53.4799 31.0574C56.7028 37.0979 56.6868 43.2317 54.2532 49.4813C53.6937 50.9159 52.6202 51.7775 51.0509 51.7843C44.7599 51.8094 38.4667 51.8457 32.1757 51.7684C28.9188 51.7298 26.4648 48.9676 26.5489 45.7052C26.6331 42.4973 29.3032 39.9693 32.5942 40.042C36.8382 40.1375 41.08 40.2807 45.324 40.399C45.7288 40.4103 46.1359 40.399 46.6863 40.399L46.6841 40.4012Z" fill="#C599B6"/>
<path d="M20.9448 22.2206C16.9646 18.8445 15.973 11.9514 18.6931 6.90666C21.6521 1.42085 28.0181 -1.22316 34.0111 0.545578C39.9746 2.30522 43.8592 7.99337 43.3634 14.2385C42.9108 19.938 38.2802 25.1624 32.9672 25.8808C32.4418 23.0504 30.9976 20.9042 28.1091 20.054C25.2775 19.2196 22.9121 20.154 20.947 22.2206H20.9448Z" fill="#C599B6"/>
<path d="M25.7483 20.5701C30.6496 20.5519 33.4471 25.142 31.4115 29.2206C29.5351 32.9808 27.5746 36.6956 25.6527 40.4332C23.1941 45.2142 20.756 50.0066 18.2701 54.774C17.0965 57.027 14.8471 58.2183 12.4636 57.9705C9.99585 57.7113 8.04897 56.1222 7.3621 53.7464C6.93452 52.271 7.05051 50.8114 7.75557 49.4383C12.1656 40.8515 16.5757 32.2647 21.0153 23.6938C22.0865 21.6273 23.8924 20.6611 25.7483 20.5724V20.5701Z" fill="#C599B6"/>
<path d="M4.09402 4.39902C6.16599 3.67379 8.36304 3.51238 10.5442 4.37174C14.4493 5.91313 15.3659 10.8147 12.3137 13.6951C11.7905 14.1885 11.1651 14.5977 10.7398 15.1615C10.2758 15.7753 9.83685 16.4869 9.65717 17.2212C9.34785 18.4943 7.20538 19.5038 6.17736 18.6808C5.87941 18.4421 5.70428 17.9033 5.68609 17.4918C5.60421 15.7617 6.31382 14.334 7.5147 13.1199C8.0469 12.5834 8.61095 12.0673 9.07265 11.474C9.86414 10.4509 9.71858 9.32102 9.1659 8.25932C8.68146 7.32721 7.76943 7.14306 6.81419 7.25446C5.61103 7.39541 4.80135 8.06608 4.42608 9.23235C4.41471 9.26873 4.40561 9.3051 4.39424 9.34148C3.83246 11.3148 3.18426 11.7445 1.05316 11.5558C0.159324 11.4762 -0.0658401 10.9056 0.0183123 10.1213C0.298062 7.50226 1.58082 5.58575 4.09629 4.39902H4.09402Z" fill="#C599B6"/>
<path d="M18.5909 26.6128C15.0428 33.5127 11.6745 40.067 8.17873 46.8669C7.16436 42.8838 6.59121 39.1326 7.40772 35.3155C8.33339 30.9914 11.0376 28.2565 15.2771 27.0743C16.2414 26.806 17.2763 26.7878 18.5909 26.6128Z" fill="#C599B6"/>
<path d="M5.9384 23.6233C5.45851 22.4707 5.99299 21.1794 7.14383 20.711C8.29239 20.2427 9.63656 20.7565 10.1187 21.8477C10.6077 22.9549 10.0755 24.3303 8.97244 24.8146C7.79203 25.3307 6.42739 24.7964 5.9384 23.6256V23.6233Z" fill="#C599B6"/>
</g>
<defs>
<clipPath id="clip0_10_76">
<rect width="56" height="58" fill="white"/>
</clipPath>
</defs>
</svg>
