<svg width="68" height="51" viewBox="0 0 68 51" fill="none" xmlns="http://www.w3.org/2000/svg">
<g clip-path="url(#clip0_10_98)">
<path d="M0 25.5861C9.25266 20.0743 18.4459 14.6003 27.6263 9.13043C30.552 11.9766 33.4098 14.7514 36.3397 17.6017C43.2229 13.4165 50.0679 9.25636 57.0191 5.0291C56.051 3.35415 55.1592 1.81773 54.1019 -0.00415039C58.9002 0.570959 63.3079 1.10409 68 1.6666C66.3694 5.94424 64.7941 10.0666 63.0658 14.5919C61.7877 12.5811 60.7176 10.9019 59.5881 9.13043C51.5074 14.0377 43.5669 18.8611 35.6645 23.6593C32.6879 20.8593 29.7792 18.1223 26.7601 15.2845C18.8662 19.9777 10.811 24.7633 2.57749 29.658C1.73673 28.3273 0.92569 27.047 0.00424628 25.5819L0 25.5861Z" fill="#C599B6"/>
<path d="M53.8854 50.9454C53.8854 49.4299 53.8854 48.0446 53.8854 46.6593C53.8854 37.2981 53.9788 27.9368 53.8217 18.5755C53.7792 16.1618 54.3737 14.5792 56.6709 13.6976C57.2484 13.4751 57.758 13.0889 58.5265 12.6523V50.9454H53.8854Z" fill="#C599B6"/>
<path d="M50.1698 50.9917H45.5032V48.6703C45.5032 40.2745 45.6008 31.8746 45.4395 23.4788C45.397 21.2162 45.9575 19.7553 48.0934 18.9157C48.7346 18.6639 49.3078 18.2315 50.1698 17.7319V50.9875V50.9917Z" fill="#C599B6"/>
<path d="M25.2442 50.9832H20.4544C20.4544 50.2066 20.4544 49.4719 20.4544 48.7331C20.4544 40.69 20.5435 32.6469 20.3949 24.6037C20.3567 22.5006 20.9002 21.1699 22.862 20.3723C23.6136 20.0658 24.2888 19.5705 25.2399 19.0164V50.9832H25.2442Z" fill="#C599B6"/>
<path d="M41.9405 22.7104V50.9664H37.2398C37.2016 50.2317 37.1379 49.4887 37.1337 48.7457C37.1252 42.0417 37.2271 35.3377 37.0742 28.6379C37.0233 26.4298 37.4819 24.8808 39.6687 24.037C40.3694 23.7683 40.9851 23.2772 41.9405 22.7104Z" fill="#C599B6"/>
<path d="M29.0361 20.834C31.775 23.231 34.0595 25.2795 33.775 29.3851C33.3291 35.7826 33.6561 42.2306 33.6561 48.6575C33.6561 49.4047 33.6561 50.152 33.6561 50.9957H29.0361V20.834Z" fill="#C599B6"/>
<path d="M12.1316 50.9623V33.5956C12.1316 32.6175 12.1316 31.6352 12.1316 30.6571C12.1316 26.1486 12.2293 26.0143 16.8917 24.2554V50.9665H12.1316V50.9623Z" fill="#C599B6"/>
<path d="M8.46283 50.9999H3.80466C3.80466 48.074 3.80466 45.2404 3.80466 42.4069C3.80466 39.8294 3.97875 37.2309 3.74946 34.6744C3.55837 32.5041 4.18258 31.0852 6.23778 30.2666C6.93841 29.9853 7.57111 29.5488 8.46283 29.0576V50.9999Z" fill="#C599B6"/>
</g>
<defs>
<clipPath id="clip0_10_98">
<rect width="68" height="51" fill="white"/>
</clipPath>
</defs>
</svg>
