<svg width="59" height="32" viewBox="0 0 59 32" fill="none" xmlns="http://www.w3.org/2000/svg">
<g clip-path="url(#clip0_10_50)">
<path d="M0 14.6196C0.559844 13.7556 1.11707 12.8905 1.68019 12.0282C3.87433 8.66735 6.06782 5.30647 8.26852 1.94841C8.65792 1.35369 9.07682 0.773026 9.4872 0.18899C9.58881 0.0450894 9.7114 -0.0633985 9.93757 0.0574559C11.3791 0.8298 12.8246 1.59765 14.2682 2.36718C14.3055 2.38742 14.3442 2.40597 14.4065 2.43688C14.0453 3.01867 13.7136 3.57404 13.3589 4.11873C11.1772 7.46443 8.99685 10.8107 6.79942 14.1491C6.17271 15.1013 5.48831 16.0254 4.83734 16.9658C4.70296 17.1598 4.55349 17.1879 4.32732 17.0839C2.83003 16.3947 1.35307 15.6775 0 14.7882C0 14.732 0 14.6758 0 14.6196Z" fill="#C599B6"/>
<path d="M58.9999 14.8443C58.0468 15.3648 57.0995 15.8943 56.1371 16.4019C55.6645 16.6515 55.1597 16.8561 54.6752 17.0899C54.4333 17.2063 54.2832 17.1883 54.1318 16.9595C52.4221 14.3828 50.6855 11.8196 48.987 9.23777C47.5998 7.12872 46.2527 4.99944 44.8904 2.87802C44.6223 2.46093 44.6059 2.42721 45.0641 2.17931C46.372 1.47105 47.6995 0.789207 49.0211 0.098932C49.0932 0.0612704 49.1797 0.0432827 49.3056 0C49.6773 0.517707 50.0634 1.0253 50.4141 1.55087C52.4011 4.52951 54.392 7.50646 56.3548 10.4969C57.2312 11.8331 58.0448 13.1996 58.8878 14.552C58.916 14.5975 58.9619 14.6352 58.9993 14.6762V14.8449L58.9999 14.8443Z" fill="#C599B6"/>
<path d="M14.3979 4.79102C15.9339 5.84104 17.7465 6.12266 19.5788 6.35819C19.8443 6.39248 20.1045 6.45319 20.4356 6.51446C19.9833 7.0805 19.5552 7.59652 19.152 8.12603C18.5568 8.90906 17.9582 9.69152 17.4004 10.4948C16.9703 11.1137 16.8438 11.8039 16.9028 12.5229C16.9559 13.1665 17.6292 13.7067 18.4552 13.7781C20.2665 13.9349 21.8477 13.4183 23.3207 12.5791C24.4817 11.9175 25.4145 11.0535 26.2445 10.1047C26.4398 9.88152 26.668 9.75054 26.9793 9.68197C27.4743 9.57292 27.9574 9.42564 28.4524 9.31659C28.594 9.28511 28.7808 9.2913 28.9093 9.34582C34.0508 11.5296 38.8547 14.1749 43.4049 17.1637C44.6262 17.9658 45.8266 18.7921 47.0282 19.6162C47.2655 19.7792 47.4812 19.9692 47.6851 20.1643C48.4711 20.9169 48.3446 22.1294 47.3894 22.7191C47.1475 22.8686 46.8119 22.9321 46.5077 22.9743C46.1439 23.0249 45.7676 23.0232 45.3972 23.0164C45.2562 23.0136 45.1054 22.9495 44.9789 22.8849C42.2964 21.5184 39.6191 20.1446 36.934 18.782C36.5413 18.583 36.1184 18.4262 35.7002 18.2677C35.4662 18.1789 35.2118 18.1221 35.0499 18.384C34.8939 18.6359 34.9417 18.8276 35.2629 19.0029C36.4593 19.6561 37.6577 20.307 38.8672 20.9417C40.5048 21.8006 42.1561 22.6421 43.7943 23.4998C43.8914 23.551 43.9726 23.6797 43.9871 23.7803C44.0212 24.0108 44.033 24.248 44.0113 24.4796C43.9379 25.2727 43.3322 25.8557 42.4223 26.0198C41.7175 26.1468 41.0436 26.112 40.3959 25.7927C38.4765 24.8467 36.5472 23.9147 34.6205 22.9793C34.1741 22.7629 33.7093 22.5724 33.2786 22.3363C32.9993 22.1834 32.6801 22.3335 32.4795 22.5842C32.2841 22.8281 32.4585 23.0046 32.6728 23.1249C33.2655 23.4582 33.8692 23.7781 34.4789 24.0878C36.0922 24.9085 37.72 25.7078 39.3241 26.5414C40.234 27.0142 40.2688 27.1963 39.8649 28.031C39.4546 28.8781 38.5361 29.1969 37.423 29.0249C36.7379 28.9186 36.0712 28.669 35.4295 28.4206C33.9394 27.8433 32.4703 27.2272 30.9913 26.6291C30.8635 26.5774 30.7304 26.5324 30.5954 26.4987C30.2814 26.42 30.0152 26.5296 29.9031 26.7747C29.7923 27.0164 29.8782 27.2238 30.1745 27.3531C31.5453 27.9495 32.9213 28.5375 34.2927 29.1322C34.7405 29.3261 35.1797 29.5347 35.6268 29.7297C35.8103 29.8096 35.8759 29.8961 35.7251 30.0507C34.9411 30.8534 34.0436 31.4464 32.7312 31.4352C30.8937 31.4195 29.1492 31.0535 27.4441 30.5049C27.3858 30.4863 27.3347 30.4515 27.2075 30.3885C28.0604 29.3987 28.4563 28.3441 27.768 27.1699C27.1019 26.0344 25.9822 25.4987 24.5007 25.3869C24.6384 24.4717 24.3552 23.6567 23.6675 22.9821C22.9923 22.32 22.1413 21.9012 21.0577 21.9186C21.0243 21.5308 21.0164 21.1491 20.9554 20.7736C20.667 18.9906 18.189 17.8135 16.3829 18.6241C15.9831 18.8034 15.6645 19.1288 15.3386 19.4121C15.1269 19.5965 14.9689 19.8259 14.7618 20.0642C14.6149 19.8292 14.4904 19.6151 14.3507 19.4088C13.4815 18.1221 11.6361 17.5639 10.2181 18.1738C9.85164 18.3312 9.52386 18.5555 9.14233 18.7691C8.8611 18.4661 8.58839 18.1654 8.30715 17.8708C7.89153 17.4363 7.48378 16.9956 7.0439 16.5797C6.84264 16.3897 6.82888 16.2525 6.97703 16.0299C8.07902 14.3722 9.16069 12.7039 10.2555 11.0428C11.5921 9.0153 12.9354 6.99057 14.276 4.96471C14.3022 4.92536 14.3304 4.88714 14.3966 4.79214L14.3979 4.79102Z" fill="#C599B6"/>
<path d="M31.5098 3.96628C34.1235 3.80889 36.6533 4.24959 39.1798 4.73975C40.0058 4.89995 40.8495 5.00338 41.6913 5.09613C42.5632 5.19281 43.3996 4.96628 44.2388 4.81114C44.5252 4.7583 44.6622 4.82744 44.8025 5.04104C47.0019 8.39011 49.2118 11.7336 51.4191 15.0787C51.5908 15.339 51.7731 15.5953 51.9278 15.8629C51.9684 15.9331 51.9678 16.0748 51.9133 16.1225C50.9162 17.0017 49.9355 17.8971 48.711 18.5565C48.0174 18.9297 48.0213 18.9286 47.3762 18.4801C43.8795 16.05 40.2425 13.7847 36.4252 11.7392C34.113 10.5003 31.7255 9.36988 29.2652 8.35639C28.9217 8.21474 28.5972 8.18101 28.2294 8.28669C27.4454 8.51209 26.6469 8.70152 25.8655 8.93368C25.6924 8.98539 25.5318 9.13323 25.4243 9.27095C24.4469 10.5261 23.1921 11.52 21.6404 12.2288C20.8918 12.5706 20.0796 12.751 19.2293 12.7858C19.0241 12.7943 18.8111 12.7881 18.6111 12.7521C18.3319 12.7015 18.1693 12.5655 18.1549 12.285C18.126 11.7257 18.2322 11.2125 18.6144 10.7414C20.016 9.01462 21.409 7.28219 22.7995 5.54863C23.1941 5.05622 23.7546 4.80383 24.4095 4.65937C26.5991 4.17651 28.8306 3.99495 31.0837 3.96572C31.2253 3.96403 31.3669 3.96572 31.5092 3.96572L31.5098 3.96628Z" fill="#C599B6"/>
<path d="M19.8156 21.4266C19.8687 21.7015 19.6648 21.9736 19.4485 22.2321C18.6159 23.2276 17.7768 24.2198 16.9305 25.2068C16.5365 25.6667 16.111 26.1057 15.717 26.5655C14.9481 27.4632 13.8008 27.2501 13.1309 26.774C12.4727 26.3063 12.0879 25.7201 12.2629 24.9539C12.2911 24.8297 12.3612 24.7026 12.4484 24.6003C13.7635 23.0613 15.0667 21.5154 16.4113 19.9955C17.0616 19.2602 17.8863 19.1855 18.7765 19.7189C19.4321 20.1118 19.7933 20.6565 19.8143 21.4261L19.8156 21.4266Z" fill="#C599B6"/>
<path d="M18.7875 29.738C17.5833 29.7982 16.358 28.6048 16.6504 27.5334C16.7107 27.3125 16.8379 27.0893 16.9959 26.9066C18.0041 25.7436 19.0412 24.5986 20.0436 23.4322C20.4723 22.9336 21.0138 22.874 21.6379 23.0281C22.7117 23.2923 23.3948 24.1523 23.2669 25.1017C23.2394 25.3063 23.1398 25.5261 23.0001 25.6942C22.0456 26.8443 21.0872 27.9927 20.0967 29.1203C19.626 29.6559 19.3408 29.7521 18.7875 29.7386V29.738Z" fill="#C599B6"/>
<path d="M23.4807 31.9988C22.1814 32.0055 20.9581 30.734 21.3154 29.7762C21.419 29.4985 21.6189 29.2377 21.8202 28.9982C22.3997 28.3091 22.9851 27.6227 23.6026 26.9577C24.0543 26.4709 24.624 26.3557 25.2972 26.5682C26.0728 26.8133 26.5854 27.2922 26.845 27.9572C26.9964 28.3445 26.9774 28.7385 26.6804 29.0831C25.9567 29.924 25.2349 30.766 24.4922 31.5946C24.2346 31.8818 23.8596 32.0156 23.4807 31.9993V31.9988Z" fill="#C599B6"/>
<path d="M13.6499 20.9117C13.5673 21.1394 13.5424 21.4019 13.3909 21.5885C12.9314 22.1551 12.4542 22.7161 11.9251 23.235C11.4059 23.7437 10.8723 23.8151 10.1505 23.5312C9.35927 23.2198 8.83155 22.6965 8.70044 21.9477C8.65848 21.7066 8.69913 21.3997 8.84532 21.1996C9.28913 20.5913 9.79194 20.0135 10.2928 19.4373C10.7235 18.9415 11.3246 18.887 11.9704 19.0388C12.9294 19.2648 13.5765 20.0146 13.6492 20.9112L13.6499 20.9117Z" fill="#C599B6"/>
</g>
<defs>
<clipPath id="clip0_10_50">
<rect width="59" height="32" fill="white"/>
</clipPath>
</defs>
</svg>
