<svg width="1806" height="1071" viewBox="0 0 1806 1071" fill="none" xmlns="http://www.w3.org/2000/svg">
<path d="M1715.35 5C1579.35 84.2598 1545.03 142.31 1550.83 168.099C1555.97 190.974 1581.81 195.553 1649.67 239.926C1731.36 293.348 1773.46 320.872 1774.21 351.658C1775.96 423.057 1554.49 478.683 1560.72 501.299C1566.41 521.969 1748.58 464.707 1788.05 527.237C1802.7 550.441 1788.82 576.099 1778.17 619.016C1736.03 788.709 1834.98 862.642 1788.05 954.212C1746.2 1035.87 1617.14 1075.41 1523.16 1045.99C1463.2 1027.22 1428.89 983.941 1376.87 918.298C1348.71 882.763 1282.01 798.615 1303.73 768.657C1329.72 732.793 1446.73 823.845 1525.13 772.648C1580.13 736.734 1600.6 640.944 1568.62 605.05C1545.48 579.072 1499.46 589.398 1450.01 597.069C1179.49 639.058 1074.07 559.978 1023.02 630.988C997.834 666.014 1018.41 692.331 1028.95 872.408C1031.99 924.414 1033.12 970.812 1033.32 1009.73" stroke="#E6B2BA" stroke-width="10" stroke-miterlimit="10"/>
<path d="M1030.91 1070C1021.65 1041.62 1005.83 1006.38 989 984.495L1031.16 1001.86L1073.45 984.894C1056.45 1006.61 1040.36 1041.7 1030.91 1069.99V1070Z" fill="#E6B2BA"/>
<path d="M147.05 5C108.458 26.4694 35.0074 80.3172 37.2396 120.058C42.2952 210.04 329.323 243.774 326.632 299.385C324.312 347.285 111.564 317.895 60.1793 426.906C-8.78084 573.217 234.997 921.997 314.28 887.178C386.902 855.288 368.691 480.883 278.988 450.816C184.424 419.125 -52.4279 749.067 17.8292 911.088C88.7568 1074.64 471.258 1063.87 564.852 899.133C620.683 800.852 562.319 667.772 637.2 610.218C677.159 579.503 738.24 584.245 774.838 614.203C804.659 638.611 807.844 683.612 811.894 821.425C813.879 888.832 815.291 951.985 816.279 1010.38" stroke="#E6B2BA" stroke-width="10" stroke-miterlimit="10"/>
<path d="M817.188 1070.49C807.412 1042.41 790.957 1007.66 773.788 986.256L816.032 1002.49L857.685 984.443C841.257 1006.56 825.993 1042 817.188 1070.49Z" fill="#E6B2BA"/>
</svg>
