<svg width="196" height="475" viewBox="0 0 196 475" fill="none" xmlns="http://www.w3.org/2000/svg">
<path d="M151.354 441.065C149.259 422.144 146.729 403.222 145.151 384.246C142.322 350.317 132.61 318.345 117.594 287.298C116.751 293.307 116.125 299.369 115.037 305.323C106.223 353.416 97.3001 401.509 88.4317 449.575C79.8625 446.53 71.3206 443.512 62.7515 440.467C63.0507 422.959 62.8059 405.424 63.758 387.97C65.1454 362.904 68.0562 337.92 69.0627 312.854C70.0421 288.549 69.4163 264.19 69.4979 239.831C70.8581 239.205 72.1911 238.58 73.5513 237.955C77.4958 235.1 81.4131 232.218 85.3577 229.364C101.789 228.331 118.247 227.27 134.678 226.237C138.813 239.015 149.694 232.517 157.665 234.285C159.95 240.619 161.555 247.361 164.928 253.07C166.152 255.137 171.566 254.756 175.075 255.49C175.293 257.719 175.919 260.003 175.674 262.205C171.539 299.505 173.389 336.805 175.402 374.132C176.381 392.157 177.714 410.154 178.122 428.179C178.258 434.215 175.919 440.277 174.694 446.34C166.914 444.573 159.134 442.805 151.381 441.038L151.354 441.065Z" fill="#788653"/>
<path d="M157.665 234.312C149.694 232.517 138.813 239.015 134.678 226.264C130.733 179.096 120.069 132.498 122.681 84.7856C123.715 77.4724 124.721 70.1592 125.755 62.8732L125.837 62.7917C127.523 60.9974 129.21 59.2031 130.896 57.4087C132.039 55.4785 133.154 53.5483 134.297 51.5908C140.2 66.7881 153.911 70.567 167.404 75.9228C174.014 78.5599 180.652 85.8187 183.481 92.561C203.612 140.627 195.478 188.285 179.401 235.508C178.748 237.411 176.49 238.743 174.966 240.347C169.199 238.335 163.432 236.324 157.665 234.312Z" fill="#E87C52"/>
<path d="M85.3577 229.363C81.4132 232.218 77.4958 235.1 73.5513 237.954C71.0486 236.269 68.5187 234.583 65.9887 232.898C64.6829 211.91 61.8809 190.867 62.4794 169.961C63.2683 142.72 66.7232 115.533 69.2803 88.374C69.498 86.0631 71.0214 83.3717 72.7896 81.7676C80.1074 75.1069 87.7516 68.7997 95.287 62.3564C97.3545 63.4439 99.4219 64.5314 101.462 65.6188C100.51 69.2075 99.5307 72.7961 98.5786 76.3847C95.7766 84.6494 91.6417 92.7238 90.4447 101.206C87.3979 122.928 84.5416 144.786 83.6711 166.671C82.855 187.551 84.6504 208.511 85.3033 229.445L85.3577 229.363Z" fill="#E87C52"/>
<path d="M62.7515 440.467C71.3206 443.512 79.8626 446.529 88.4317 449.574C90.1456 470.345 86.5547 473.254 66.3968 470.263C55.3521 468.632 43.9266 469.665 32.8275 468.251C26.2715 467.409 20.0418 464.119 13.6489 461.917C13.7305 460.177 13.8122 458.437 13.921 456.67C30.1887 451.26 46.4837 445.877 62.7515 440.467Z" fill="#322524"/>
<path d="M101.489 65.592C99.4218 64.5046 97.3543 63.4171 95.3141 62.3296C93.7362 54.3912 92.1584 46.4527 90.5806 38.487C95.9669 38.3511 101.38 38.188 106.794 38.052L106.685 36.4752C112.044 37.0461 117.403 37.6171 122.762 38.2152C123.143 37.3724 123.524 36.5296 123.932 35.6868C123.987 33.8653 124.041 32.0166 124.123 30.1951C126.789 29.162 129.455 28.1561 132.121 27.123C133.726 30.9292 136.391 34.6265 136.691 38.5414C137.017 42.8097 135.195 47.2139 134.324 51.591C133.181 53.5212 132.066 55.4514 130.924 57.4089C129.237 59.2032 127.55 60.9975 125.837 62.7918L125.755 62.8734C117.675 63.7977 109.596 64.6949 101.489 65.6192V65.592Z" fill="#F6A881"/>
<path d="M151.354 441.065C159.134 442.832 166.914 444.6 174.667 446.367C174.885 450.39 176.082 454.659 175.048 458.329C173.524 463.793 171.457 472.139 167.73 473.309C161.12 475.375 153.013 473.417 145.777 471.949C144.906 471.786 144.852 463.984 145.668 459.96C147.001 453.544 149.395 447.345 151.326 441.038L151.354 441.065Z" fill="#322524"/>
<path d="M132.093 27.1226C129.427 28.1557 126.761 29.1616 124.096 30.1947C112.643 30.1403 101.163 30.1131 89.7102 30.0588C90.2543 24.4855 90.7984 18.9395 91.3424 13.3662C103.829 13.6381 116.315 13.9371 128.802 14.209C129.89 18.5045 130.978 22.7999 132.093 27.0954V27.1226Z" fill="#E9A07D"/>
<path d="M128.802 14.2363C116.315 13.9372 103.829 13.6653 91.3423 13.3935C92.9745 2.76354 100.918 0.235188 109.732 0.0176959C118.6 -0.17261 126.489 2.32855 129.074 12.4691C129.291 13.3119 129.699 14.1003 130.026 14.9159C129.618 14.6984 129.21 14.4538 128.829 14.2363H128.802Z" fill="#56271C"/>
<path d="M89.7102 30.0586C101.163 30.113 112.643 30.1402 124.096 30.1945C124.041 32.016 123.987 33.8647 123.905 35.6862C123.524 36.529 123.143 37.3718 122.735 38.2146C117.376 37.6436 112.017 37.0727 106.658 36.4746L106.767 38.0514C101.353 38.1874 95.967 38.3505 90.5535 38.4864C90.2815 35.6862 89.9822 32.8588 89.7102 30.0586Z" fill="#322524"/>
<path d="M157.665 234.311C163.432 236.323 169.199 238.335 174.966 240.347C174.993 245.403 175.048 250.46 175.075 255.49C171.566 254.756 166.152 255.163 164.928 253.07C161.555 247.361 159.977 240.619 157.665 234.284V234.311Z" fill="#F6A881"/>
<path d="M65.9888 232.897C68.5187 234.583 71.0214 236.269 73.5514 237.954C72.1912 238.579 70.8582 239.232 69.498 239.857C68.3282 237.546 67.1585 235.208 65.9888 232.897Z" fill="#B4B5C0"/>
<path d="M85.3576 229.363C84.7047 208.429 82.9092 187.469 83.7254 166.589C84.5959 144.704 87.425 122.846 90.499 101.124C91.696 92.6419 95.831 84.5674 98.633 76.3027C104.482 85.3287 112.126 89.162 122.708 84.7306C120.069 132.443 130.733 179.041 134.705 226.209C118.274 227.243 101.843 228.303 85.3848 229.336L85.3576 229.363Z" fill="#FBCA82"/>
<path d="M5.35176 225.313C3.74675 224.959 2.11454 224.606 0.509521 224.279C0.509521 207.369 0.509521 190.459 0.509521 172.462C9.3779 189.943 11.3366 207.206 5.35176 225.313Z" fill="#C599B6"/>
<path d="M122.681 84.7579C112.126 89.2165 104.454 85.356 98.6057 76.3301C99.5578 72.7415 100.51 69.1528 101.489 65.5642C109.569 64.6399 117.675 63.7427 125.755 62.8184C124.721 70.1315 123.715 77.4447 122.681 84.7307V84.7579Z" fill="#E9A07D"/>
<path d="M125.809 62.7638C127.496 60.9695 129.183 59.1752 130.896 57.3809C129.21 59.1752 127.523 60.9695 125.809 62.7638Z" fill="#E9A07D"/>
<path d="M122.763 38.2149C123.144 37.3721 123.524 36.5293 123.932 35.6865C123.552 36.5293 123.171 37.3721 122.763 38.2149Z" fill="#E9A07D"/>
</svg>
