<svg width="117" height="455" viewBox="0 0 117 455" fill="none" xmlns="http://www.w3.org/2000/svg">
<path d="M32.2522 401.669C30.62 394.764 27.7364 387.913 27.6004 380.98C26.7843 343.137 28.3077 305.13 19.793 267.83C21.5884 258.668 24.4448 250.566 35.5439 251.926C39.9236 238.224 36.224 227.621 26.213 217.861C22.7038 214.435 22.4317 206.986 22.0509 201.25C21.4252 191.816 21.9421 182.301 21.9693 172.813C44.5755 184.422 67.4265 171.644 90.0871 172.487C92.0186 176.809 93.5692 180.344 95.147 183.878C97.7041 203.615 98.6291 223.135 86.6323 241.513C90.4408 240.97 92.6987 240.643 97.1873 240.018C89.4887 250.24 84.9456 259.157 95.3374 267.911C92.8347 287.078 90.332 306.272 87.8292 325.438C85.2993 344.686 83.2046 363.989 79.8314 383.074C78.852 388.62 74.0914 393.486 71.0446 398.679C66.5288 397.591 61.9858 396.504 57.47 395.416V343.68C56.0826 343.572 54.7224 343.49 53.335 343.381C52.791 348.302 52.1109 353.223 51.7572 358.171C50.7235 372.389 49.7986 386.635 48.8464 400.881C43.3241 401.153 37.8018 401.397 32.2794 401.669H32.2522Z" fill="#E87C52"/>
<path d="M95.1471 183.905C93.5692 180.371 91.9914 176.837 90.0872 172.514C67.4266 171.671 44.6027 184.449 21.9693 172.84C14.842 173.738 7.68741 174.608 0.560059 175.505C2.3555 147.448 3.52526 119.31 6.51766 91.3895C7.06173 86.1697 14.9236 81.7654 19.4394 76.9806C24.336 83.2335 18.46 97.0171 32.8508 97.153C34.0205 91.9604 34.2109 87.0124 36.2784 83.016C38.8627 78.0409 43.0249 73.8542 46.507 69.3412C47.3775 69.3412 48.2208 69.314 49.0913 69.3412C53.3623 77.3612 57.6333 85.3813 64.0533 97.3977C68.6779 87.529 71.3711 81.7926 74.0642 76.0563C82.9326 79.1827 91.801 82.3364 100.669 85.4628C105.212 92.3954 112.884 99.0017 113.727 106.369C116.067 126.678 115.55 147.339 116.175 167.838C113.101 170.366 110.082 172.976 106.899 175.396C103.063 178.332 99.0916 181.105 95.1471 183.933V183.905Z" fill="#FBCA82"/>
<path d="M100.642 85.4353C91.7737 82.3089 82.9054 79.1552 74.037 76.0288C73.4113 73.6907 72.7856 71.3255 72.1599 68.9875C72.3776 64.5561 71.3982 59.5537 73.0849 55.7748C78.3896 43.8671 78.4712 32.639 69.4396 23.015C65.2502 18.5564 57.5788 12.3579 53.8791 13.6628C48.3023 15.6474 41.5014 23.3684 41.2294 28.9417C40.7397 38.6745 44.8203 48.6247 46.9694 58.4935C46.6973 59.3906 46.8062 60.2606 47.323 61.049C47.2414 62.9249 47.1598 64.8007 47.051 66.7038C46.8606 67.601 46.6701 68.4709 46.4797 69.3681C42.9976 73.8811 38.8627 78.0678 36.2512 83.0429C34.1837 87.0122 33.9932 91.9873 32.8235 97.1799C18.4328 97.044 24.3088 83.2604 19.4121 77.0075C22.6765 58.4663 25.2337 39.7891 29.3414 21.4382C33.422 3.25036 50.2882 -4.74248 68.6779 3.54942C80.3754 8.82361 85 20.976 85.3537 33.4546C85.8978 52.2677 89.5702 69.8574 100.642 85.4625V85.4353Z" fill="#56271C"/>
<path d="M0.560059 175.504C7.68741 174.607 14.842 173.737 21.9693 172.84C21.9421 182.328 21.4252 191.843 22.0509 201.277C22.4318 206.986 22.7038 214.462 26.2131 217.888C36.224 227.648 39.9237 238.251 35.5439 251.953C24.4448 250.593 21.5885 258.695 19.793 267.857C5.23908 238.767 8.80276 205.899 0.560059 175.504Z" fill="#F6A881"/>
<path d="M95.1471 183.905C99.0644 181.05 103.036 178.305 106.899 175.368C110.082 172.949 113.101 170.339 116.175 167.811C114.543 198.314 117.672 229.497 103.308 258.124C101.458 261.794 98.0307 264.676 95.3375 267.939C84.9457 259.185 89.4615 250.295 97.1873 240.045C92.6987 240.671 90.4408 240.997 86.6323 241.541C98.6291 223.162 97.7042 203.615 95.1471 183.905Z" fill="#F7AD86"/>
<path d="M57.4429 395.417C61.9587 396.504 66.5017 397.592 71.0175 398.679C71.9424 407.08 73.493 415.481 73.6018 423.881C73.6834 428.938 71.5344 434.049 70.3918 439.133C65.0871 438.997 59.5104 437.746 54.5593 439.024C47.976 440.71 41.9096 444.325 35.5984 447.126C24.5809 432.717 34.8095 416.731 32.2251 401.67C37.7475 401.398 43.2698 401.153 48.7921 400.881C51.0772 402.377 53.3623 403.845 56.7356 406.02C57.0348 401.371 57.2253 398.38 57.4429 395.39V395.417Z" fill="#F6A881"/>
<path d="M35.6255 447.125C41.9095 444.325 48.0031 440.709 54.5864 439.024C59.5375 437.773 65.1142 439.024 70.4189 439.132C61.4689 455.798 44.3579 459.74 35.6527 447.125H35.6255Z" fill="#322524"/>
<path d="M57.4427 395.416C57.2523 398.407 57.0619 401.37 56.7354 406.046C53.3622 403.871 51.0771 402.376 48.792 400.908C49.7441 386.662 50.669 372.416 51.7028 358.198C52.0564 353.25 52.7365 348.329 53.2806 343.408C54.668 343.517 56.0282 343.599 57.4155 343.707V395.443L57.4427 395.416Z" fill="#F7AD86"/>
<path d="M72.1598 68.96C72.7855 71.298 73.4112 73.6632 74.0369 76.0013C71.3437 81.7376 68.6506 87.5012 64.026 97.3427C57.6059 85.2991 53.3349 77.279 49.064 69.2862L72.1598 68.96Z" fill="#E9A07D"/>
<path d="M46.4797 69.3137C46.6702 68.4165 46.8606 67.5466 47.051 66.6494C47.7311 67.5194 48.4112 68.3893 49.0913 69.2865C48.2208 69.2865 47.3775 69.2865 46.5069 69.2865L46.4797 69.3137Z" fill="#E9A07D"/>
<path d="M49.0641 69.2866C48.384 68.4166 47.7039 67.5466 47.0238 66.6495C47.1055 64.7736 47.1871 62.8977 47.2959 60.9947C47.5407 60.7228 48.0032 60.315 47.9488 60.1519C47.7039 59.5266 47.2959 59.01 46.9422 58.4391C44.7932 48.5704 40.7126 38.6201 41.2023 28.8873C41.4743 23.3141 48.2752 15.5659 53.852 13.6085C57.5517 12.3035 65.2503 18.5021 69.4124 22.9607C78.444 32.5847 78.3624 43.8127 73.0577 55.7205C71.3711 59.5266 72.3776 64.5017 72.1328 68.9331C64.4342 69.0419 56.7355 69.1506 49.0369 69.2594L49.0641 69.2866Z" fill="#F6A881"/>
<path d="M46.9421 58.4668C47.2958 59.0377 47.7038 59.5814 47.9486 60.1796C48.0031 60.3427 47.5406 60.7233 47.2958 61.0223C46.7789 60.2339 46.6701 59.364 46.9421 58.4668Z" fill="#E9A07D"/>
</svg>
