<svg width="159" height="477" viewBox="0 0 159 477" fill="none" xmlns="http://www.w3.org/2000/svg">
<path d="M0.357844 234.212C0.521066 227.932 0.684268 221.679 0.847489 215.399C1.11953 212.708 1.36438 210.016 1.63642 207.325C1.63642 171.928 3.8671 136.776 15.5647 103.037C17.4417 97.5999 21.3319 91.347 26.0653 88.7371C36.5659 82.9735 46.1415 77.074 50.4125 65.2207C51.1198 65.9276 51.8271 66.6072 52.5344 67.3141C51.1198 87.1059 63.035 101.868 69.3463 118.724C70.7881 118.642 72.2298 118.561 73.6444 118.452C78.3506 102.711 83.0841 86.9428 87.7903 71.2018C87.3007 65.8188 86.8382 60.4087 86.3485 55.0257L86.4301 54.0742C93.6391 65.8732 105.337 70.359 117.823 74.1651C128.813 77.4818 136.077 84.795 139.205 96.5124C144.319 115.652 151.637 134.302 155.636 153.659C160.914 179.377 151.746 201.289 132.785 219.178C128.704 213.442 124.978 206.727 116.273 212.681C87.219 214.502 58.1383 216.296 29.0849 218.118C29.0849 207.869 29.0849 197.646 29.0849 187.397C27.9423 187.288 26.7998 187.18 25.6573 187.071L20.815 234.403C13.9869 234.321 7.13158 234.24 0.303467 234.158L0.357844 234.212Z" fill="#B67858"/>
<path d="M29.1392 218.145C58.1926 216.324 87.2733 214.53 116.327 212.708C119.238 217.438 122.176 222.196 125.086 226.927C131.262 296.524 137.41 366.149 143.585 435.747C136.376 437.568 129.14 439.39 121.931 441.211C118.013 419.516 114.477 397.74 110.015 376.181C107.73 365.089 105.119 353.698 100.304 343.584C88.5519 318.98 78.5137 294.159 77.752 266.429C77.6704 263.601 75.7662 260.828 74.7052 258.028C73.4811 257.919 72.2296 257.811 71.0055 257.702C69.999 265.749 68.0947 273.823 68.1491 281.871C68.53 334.993 69.3189 388.143 69.9717 441.265C58.9271 442.271 51.4461 437.051 46.2502 427.754C44.2099 400.431 42.8497 373 39.9661 345.759C37.1914 319.47 32.8388 293.343 29.1663 267.163C29.1663 250.824 29.1663 234.457 29.1663 218.118L29.1392 218.145Z" fill="#554234"/>
<path d="M53.9762 60.3542C50.4941 47.5766 42.1971 35.4242 48.9436 21.3415C50.2222 20.9609 51.6639 20.825 52.7249 20.1181C68.8022 9.29788 78.7859 11.7447 87.5727 28.3013C88.6336 30.3131 91.9253 31.1559 94.1832 32.5424C91.6261 39.7196 89.0417 46.9241 86.4846 54.1013L86.4029 55.0529C76.3376 61.333 65.9186 65.4653 54.0034 60.3542H53.9762Z" fill="#F6A881"/>
<path d="M46.2233 427.78C51.4191 437.051 58.9001 442.271 69.9448 441.292V462.797C55.8261 464.917 42.7956 467.174 29.7106 468.56C26.9631 468.859 21.5495 466.113 21.4407 464.536C21.2503 461.193 22.9641 456.924 25.3308 454.423C30.1731 449.312 36.5932 445.669 41.1906 440.395C43.9925 437.187 44.6182 432.049 46.196 427.78H46.2233Z" fill="#322524"/>
<path d="M121.931 441.238C129.14 439.416 136.376 437.595 143.585 435.773C148.454 444.147 154.33 452.14 157.758 461.057C159.472 465.461 156.697 471.605 155.963 476.961C148.264 474.895 139.831 474.134 133.111 470.328C128.133 467.5 124.379 461.166 122.04 455.565C120.326 451.487 121.822 446.05 121.904 441.238H121.931Z" fill="#322524"/>
<path d="M94.1831 32.5696C91.9252 31.1831 88.6607 30.3403 87.5726 28.3285C78.7858 11.7719 68.8021 9.35232 52.7247 20.1454C51.6638 20.8522 50.2221 20.961 48.9435 21.3688C47.6377 11.4185 52.5071 5.81807 61.4843 2.39256C73.998 -2.39227 85.5051 -0.0542303 92.442 10.6029C95.9513 16.013 93.7751 25.1205 94.1831 32.5696Z" fill="#56271C"/>
<path d="M0.35791 234.212C7.18602 234.293 14.0414 234.375 20.8695 234.457C22.9369 245.44 25.0044 256.423 27.0991 267.407C24.1883 267.679 21.2503 267.95 18.3395 268.222C17.469 268.277 16.5713 268.331 15.7008 268.413C5.2274 267.298 1.88134 260.719 1.82693 251.068C1.82693 245.44 0.874779 239.84 0.35791 234.239V234.212Z" fill="#F7AD86"/>
<path d="M53.9761 60.3541C65.9185 65.4652 76.3103 61.3328 86.3757 55.0527C86.8653 60.4357 87.3278 65.8458 87.7903 71.2287C75.8026 81.7409 64.5674 80.0916 54.085 66.2808C53.8945 64.8127 53.6769 63.3446 53.4865 61.8766C53.2689 61.2513 53.4321 60.7347 53.949 60.3541H53.9761Z" fill="#E9A07D"/>
<path d="M27.099 267.407C25.0316 256.424 22.9641 245.44 20.8694 234.457C22.4744 218.689 24.0794 202.893 25.7116 187.125C26.8542 187.234 27.9968 187.342 29.1393 187.451C29.1393 197.701 29.1393 207.923 29.1393 218.172C29.1393 234.511 29.1393 250.877 29.1393 267.217C28.4592 267.325 27.7791 267.407 27.099 267.407Z" fill="#C599B6"/>
<path d="M125.086 226.953C122.176 222.223 119.238 217.465 116.327 212.735C125.005 206.781 128.732 213.496 132.84 219.232C130.255 221.815 127.671 224.398 125.086 226.953Z" fill="#E9A07D"/>
<path d="M1.63634 207.352C1.3643 210.043 1.09224 212.735 0.847412 215.426C1.11945 212.735 1.3643 210.043 1.63634 207.352Z" fill="#F7AD86"/>
<path d="M53.5139 61.9043C53.7043 63.3724 53.9219 64.8404 54.1123 66.3085C53.5683 66.6076 53.0513 66.961 52.5345 67.3416C51.8272 66.6348 51.1199 65.9551 50.4126 65.2482C51.4463 64.1336 52.4801 63.0189 53.5139 61.9043Z" fill="#B67858"/>
<path d="M52.5616 67.3407C53.0513 66.9601 53.5954 66.6067 54.1395 66.3076C64.622 80.1003 75.857 81.7496 87.8447 71.2556C83.1385 86.9966 78.4051 102.765 73.6988 118.506C72.257 118.587 70.8153 118.669 69.4007 118.778C63.0623 101.922 51.1471 87.1597 52.5889 67.3679L52.5616 67.3407Z" fill="#E8D4CB"/>
</svg>
