<svg width="114" height="453" viewBox="0 0 114 453" fill="none" xmlns="http://www.w3.org/2000/svg">
<path d="M42.668 401.726C38.9955 389.003 34.1533 376.497 32.0314 363.529C30.1544 352.083 30.78 340.121 31.2969 328.431C32.3579 304.344 29.9911 281.262 21.3132 258.208C16.7974 246.165 18.9737 231.62 18.1304 218.217C28.0597 218.57 38.0162 218.924 47.9455 219.277C53.7399 224.361 60.1055 228.928 65.1654 234.692C73.4625 244.153 83.0382 243.772 88.6693 232.952C92.5051 230.396 96.368 227.868 101.265 224.633C102.298 234.882 103.114 243.228 103.958 251.575C98.5986 284.171 94.1645 316.931 87.4996 349.256C84.3984 364.372 77.0534 378.645 71.6399 393.271C67.6138 394.331 60.3776 394.848 60.1055 396.561C58.3645 406.701 50.5299 403.656 44.7083 405.016L44.8987 404.825C44.137 403.792 43.4025 402.759 42.6408 401.726H42.668Z" fill="#FCB35F"/>
<path d="M12.2271 83.399C13.3696 81.4416 14.5393 79.4842 15.6819 77.5267C23.6525 73.775 31.6232 70.0232 39.5667 66.2715C46.1499 77.3636 56.1337 79.5929 67.9128 77.2549C73.9792 83.834 80.0456 90.4132 86.1121 96.9651C86.7649 99.0585 86.901 102.511 88.1523 102.973C98.7617 106.943 99.8227 116.159 100.013 125.076C100.448 145.004 100.312 164.959 99.9315 184.914C99.5778 203.971 94.518 210.17 75.285 216.967C71.3133 213.595 66.7975 210.687 63.5058 206.772C54.8007 196.441 46.0683 186.083 38.5329 174.909C34.806 169.417 32.3849 162.24 31.7592 155.607C30.0454 137.718 30.263 119.639 28.386 101.777C27.4338 92.8871 23.7342 84.0787 12.2271 83.3447V83.399Z" fill="#9FCFD4"/>
<path d="M12.2271 83.3984C23.7343 84.1325 27.4339 92.9137 28.386 101.831C30.2903 119.692 30.0455 137.772 31.7593 155.66C32.385 162.294 34.8333 169.444 38.533 174.963C46.0684 186.109 54.828 196.495 63.5059 206.825C66.7976 210.74 71.3134 213.649 75.2851 217.02C79.7465 222.349 84.2079 227.677 88.6693 233.006C83.0381 243.826 73.4625 244.207 65.1654 234.746C60.1327 229.01 53.7398 224.442 47.9455 219.331C39.1043 209.327 30.2631 199.295 21.4219 189.29C18.2935 183.01 15.1379 176.757 12.0095 170.477C10.2957 153.186 8.55461 135.896 6.84079 118.632C6.70477 110.503 6.54154 102.402 6.40552 94.2731C6.54154 93.3487 6.67756 92.3972 6.84079 91.4728C8.63622 88.8086 10.4317 86.1171 12.2271 83.4528V83.3984Z" fill="#F7AD86"/>
<path d="M67.9402 77.2541C56.161 79.6193 46.1501 77.3628 39.594 66.2979C53.0598 54.1727 37.0641 43.2165 38.2882 32.505C41.9879 27.992 44.4635 22.5547 48.6256 20.407C55.6714 16.764 64.0773 12.8491 71.3407 13.6919C75.7748 14.2085 79.4201 23.2888 83.011 28.8076C85.2145 32.1788 86.5747 36.0936 88.3157 39.7638C88.6693 41.6125 89.0502 43.4612 89.4039 45.3099C87.3364 44.9836 83.9087 43.7059 83.3918 44.4399C76.4005 54.4717 63.5876 61.8937 67.913 77.2269L67.9402 77.2541Z" fill="#F6A881"/>
<path d="M88.6964 232.979C84.235 227.65 79.7736 222.322 75.3123 216.993C94.5452 210.224 99.5779 203.998 99.9588 184.94C100.34 165.012 100.503 145.058 100.04 125.103C99.85 116.185 98.789 106.942 88.1796 103C86.9282 102.538 86.7922 99.0578 86.1393 96.9917C88.0436 95.7683 91.0632 94.8983 91.6072 93.2399C92.9402 89.1891 93.1306 84.7849 93.7835 80.5166C110.378 121.976 121.205 163.816 108.174 208.919C104.284 222.43 105.236 237.356 103.958 251.602C103.114 243.255 102.298 234.909 101.265 224.66C96.3679 227.895 92.5322 230.45 88.6692 232.979H88.6964Z" fill="#E9A07D"/>
<path d="M88.3428 39.7639C86.6018 36.0937 85.2144 32.1788 83.0381 28.8077C79.4744 23.2888 75.8019 14.2085 71.3677 13.692C64.0772 12.8492 55.6985 16.7912 48.6527 20.4071C44.4906 22.5548 42.015 27.9921 38.3153 32.5051C37.0912 43.2166 53.0869 54.1456 39.6211 66.298C31.6504 70.0497 23.6798 73.8015 15.7363 77.526C20.6602 60.181 25.176 42.7 30.6167 25.4909C34.8877 12.0336 43.9193 2.70861 58.5548 1.26772C84.8607 -1.34219 95.4429 12.5773 88.37 39.7639H88.3428Z" fill="#E95E2E"/>
<path d="M44.7356 405.016C50.5571 403.684 58.419 406.729 60.1328 396.561C60.432 394.848 67.6682 394.332 71.6671 393.271C76.0197 404.173 80.3995 415.075 84.7521 425.977C81.3516 427.853 77.7336 429.457 74.5779 431.686C68.4843 435.982 62.6356 440.658 56.678 445.171C46.0957 433.752 40.5734 420.811 44.7083 405.016H44.7356Z" fill="#F7AD86"/>
<path d="M93.7835 80.4629C93.1306 84.7312 92.9402 89.1626 91.6072 93.1862C91.0631 94.8718 88.0436 95.7146 86.1393 96.938C80.0729 90.3588 74.0065 83.7797 67.9401 77.2277C63.6147 61.8945 76.4276 54.4454 83.4189 44.4407C83.9358 43.7067 87.3634 44.9845 89.4309 45.3107C82.0859 58.1156 93.5931 68.5824 93.7835 80.4629Z" fill="#E95E2E"/>
<path d="M21.4762 189.264C30.3174 199.268 39.1586 209.3 47.9998 219.305C38.0704 218.951 28.1139 218.598 18.1846 218.245C19.2999 208.566 20.3881 198.915 21.5034 189.264H21.4762Z" fill="#9FCFD4"/>
<path d="M56.7051 445.17C62.6627 440.657 68.5115 435.981 74.6051 431.686C77.7607 429.456 81.3788 427.852 84.7792 425.977C89.4311 431.06 94.7357 436.144 87.1459 442.805C73.5985 454.713 67.5049 455.121 56.7051 445.17Z" fill="#8192B9"/>
<path d="M6.86794 118.578C8.60897 135.868 10.3228 153.159 12.0366 170.422C9.23464 170.286 6.45985 170.151 3.68508 170.015C2.59694 152.833 1.5088 135.678 0.420654 118.496C2.56974 118.523 4.71885 118.55 6.86794 118.578Z" fill="#C599B6"/>
<path d="M6.84068 91.4189C6.70467 92.3433 6.56864 93.2948 6.40542 94.2192C6.21499 93.5395 5.94298 92.8326 5.91577 92.153C5.91577 91.9355 6.51424 91.6636 6.84068 91.4189Z" fill="#F4E8E1"/>
</svg>
