<svg width="134" height="476" viewBox="0 0 134 476" fill="none" xmlns="http://www.w3.org/2000/svg">
<path d="M60.5281 424.599C57.182 428.351 53.8088 432.103 50.4627 435.855C35.3919 439.96 37.4866 425.469 32.1819 418.999C37.5682 408.913 42.9273 398.854 48.3136 388.767C60.7729 391.105 63.8469 381.563 67.9818 373.326C68.1723 372.918 68.3627 372.483 68.5531 372.075C68.3083 372.456 68.0907 372.809 67.8458 373.19C62.5139 375.935 57.182 378.708 51.8501 381.454C51.7685 379.633 51.6597 377.811 51.5781 375.99C57.454 354.268 81.2844 354.077 93.6621 339.342C87.5413 341.245 81.4204 343.176 72.8785 345.84C73.8034 334.693 74.5923 325.097 75.3812 315.472C76.3334 315.527 77.2855 315.581 78.2648 315.636C78.7001 318.626 79.1353 321.589 79.7066 325.532C81.7741 320.149 83.4335 315.772 85.2017 311.231C79.1625 307.48 68.3355 309.111 70.403 296.306C73.0145 280.347 64.527 260.692 87.8677 251.503C80.9036 250.904 74.9732 250.388 68.3355 249.817C67.2201 235.789 66.2136 222.848 65.2071 209.934C67.0841 209.635 68.9612 209.336 70.8654 209.037C79.8426 209.227 88.7926 209.391 97.7698 209.581C100.545 209.635 103.319 209.717 106.067 209.771C107.754 210.342 109.44 210.886 111.127 211.457C107.209 222.44 112.759 230.188 119.995 237.365C121.111 288.612 111.807 337.249 83.7871 381.182C82.8622 382.623 82.835 384.635 82.3726 386.375C75.082 399.126 67.7914 411.876 60.5281 424.627V424.599ZM74.4019 364.327C74.2659 364.707 74.1299 365.088 73.9939 365.496C74.3203 365.605 74.8916 365.904 74.9732 365.822C75.218 365.523 75.3812 365.088 75.354 364.707C75.354 364.571 74.7283 364.463 74.4019 364.354V364.327Z" fill="#9D8379"/>
<path d="M111.1 211.43C109.413 210.859 107.726 210.315 106.04 209.744C104.489 208.167 102.911 206.563 101.361 204.987C100.164 206.509 98.9396 208.031 97.7426 209.554C88.7654 209.364 79.8154 209.2 70.8382 209.037C70.2398 203.709 69.8317 198.38 69.0156 193.079C64.0101 160.428 58.9503 127.804 53.8904 95.1528L54.0536 90.1777C59.6576 84.6588 65.2887 79.14 70.8926 73.6211C80.822 75.3882 90.7241 77.1553 100.653 78.9225C92.4379 109.806 101.279 138.76 109.957 166.49H133.216C132.509 172.906 131.829 179.35 131.121 185.766C117.492 180.491 113.738 182.721 113.33 195.77C113.167 201.017 111.888 206.21 111.127 211.43H111.1Z" fill="#E8D4CB"/>
<path d="M65.2071 209.934C66.2136 222.848 67.2473 235.789 68.3355 249.817C74.9732 250.388 80.8764 250.904 87.8677 251.503C64.5542 260.692 73.0145 280.347 70.403 296.306C68.3083 309.111 79.1353 307.48 85.2017 311.231C83.4607 315.799 81.7741 320.149 79.7066 325.532C79.1353 321.589 78.7001 318.626 78.2648 315.636C77.3127 315.581 76.3605 315.527 75.3812 315.473C74.5923 325.069 73.8034 334.693 72.8785 345.84C81.4204 343.176 87.5412 341.245 93.6621 339.342C81.2572 354.077 57.454 354.268 51.5781 375.99C50.3267 372.156 48.504 368.405 47.9056 364.463C41.6487 322.677 34.9022 280.946 29.8968 239.024C28.6182 228.312 32.998 216.894 34.7662 205.829C43.9066 206.781 53.0743 207.732 62.2147 208.657C63.194 209.091 64.2005 209.526 65.1799 209.961L65.2071 209.934Z" fill="#91776F"/>
<path d="M62.2147 208.63C53.0742 207.678 43.9066 206.754 34.7662 205.802C38.6019 191.285 39.7445 177.066 30.06 164.071C20.8108 147.541 11.5887 131.039 2.3667 114.537C6.93691 109.236 11.4527 103.88 16.0501 98.6056C21.7357 92.0536 27.4756 85.556 33.1884 79.0312C38.4115 85.5832 43.6346 92.108 48.8577 98.66C50.4355 114.618 51.7141 130.604 53.6727 146.508C56.2299 167.252 59.3583 187.941 62.2691 208.657L62.2147 208.63Z" fill="#E8D4CB"/>
<path d="M48.8305 98.6328C43.6074 92.0808 38.3843 85.556 33.1612 79.0041C30.0872 70.0597 26.6868 61.2241 24.1296 52.1166C23.0143 48.1745 23.5856 43.7703 23.3951 39.5836C24.9457 36.9193 26.9316 34.4453 27.9653 31.5907C33.1884 16.9915 44.2059 12.7504 57.6717 20.5258C60.5553 22.1842 63.0852 24.4135 65.7784 26.3981C64.7446 37.4358 63.4933 48.4736 62.8676 59.5385C62.7044 62.3931 64.5542 65.3564 65.4791 68.2654C61.6706 75.5786 57.8621 82.8918 54.0536 90.1778C53.9992 91.8361 53.9448 93.4945 53.8904 95.1801C52.2038 96.3491 50.5172 97.4909 48.8305 98.66V98.6328Z" fill="#E9A07D"/>
<path d="M133.216 166.49H109.957C101.279 138.76 92.4378 109.806 100.653 78.9221C111.888 77.59 116.567 85.61 118.499 93.9291C124.076 117.962 128.374 142.267 133.189 166.49H133.216Z" fill="#DCC4B8"/>
<path d="M25.2994 199.495C24.1568 206.128 24.184 213.306 21.6269 219.341C13.5202 238.372 17.1655 257.456 19.505 276.732C19.8587 279.668 18.9065 284.589 17.0567 285.486C14.6356 286.655 8.95001 285.812 7.78026 283.909C4.40701 278.472 0.51689 272.083 0.489686 266.047C0.380872 241.036 1.63224 215.997 2.36674 190.985C10.011 193.813 17.628 196.64 25.2722 199.495H25.2994Z" fill="#F7AD86"/>
<path d="M2.33957 114.51C11.5616 131.012 20.8108 147.541 30.0329 164.044C29.8968 170.269 29.788 176.495 29.652 182.721C20.566 182.775 11.48 182.83 2.36677 182.884C1.55066 164.316 0.516923 145.747 5.45797e-05 127.152C-0.10876 122.965 1.52346 118.724 2.33957 114.51Z" fill="#DCC4B8"/>
<path d="M32.1819 418.999C37.4866 425.469 35.3919 439.96 50.4627 435.855C45.7293 445.723 42.0568 456.353 35.7455 465.08C32.9708 468.941 22.8238 471.931 19.5866 469.838C15.6421 467.282 12.4592 457.821 14.1731 453.308C18.6889 441.319 26.0066 430.363 32.2363 418.999H32.1819Z" fill="#422C22"/>
<path d="M84.6304 440.938C92.0842 460.241 88.1125 469.539 69.206 474.922C65.5879 475.955 58.1613 475.112 57.6444 473.508C56.121 468.75 56.2026 462.878 57.5084 457.957C59.0318 452.139 62.5139 446.811 65.1526 441.292C71.6271 441.183 78.1288 441.047 84.6032 440.938H84.6304Z" fill="#422C22"/>
<path d="M65.7783 26.3985C63.0852 24.441 60.5552 22.1846 57.6716 20.5262C44.1786 12.778 33.1884 17.0191 27.9653 31.5911C26.9588 34.4457 24.9457 36.9197 23.3951 39.584C15.37 30.123 17.7639 14.7626 28.727 5.24733C35.2831 -0.434658 54.108 -0.81527 58.8142 5.68232C63.0036 11.5002 65.2886 18.6775 68.3627 25.2838C68.5259 25.6101 68.2538 26.48 68.145 26.5072C67.3561 26.5616 66.5672 26.4529 65.7783 26.3985Z" fill="#422C22"/>
<path d="M84.6305 440.939C78.156 441.048 71.6544 441.184 65.1799 441.293C63.6293 435.719 62.0787 430.146 60.5281 424.573C67.8186 411.822 75.1092 399.072 82.3726 386.321C83.1343 404.509 83.8688 422.724 84.6033 440.912L84.6305 440.939Z" fill="#91776F"/>
<path d="M111.099 211.43C111.861 206.21 113.14 201.017 113.303 195.77C113.711 182.721 117.465 180.464 131.094 185.766C127.394 202.948 123.668 220.157 119.941 237.339C112.732 230.161 107.155 222.413 111.072 211.43H111.099Z" fill="#F6A881"/>
<path d="M2.39392 182.884C11.4799 182.829 20.5659 182.775 29.6791 182.721C28.2102 188.321 26.7412 193.894 25.2994 199.495C17.6824 196.667 10.0381 193.84 2.39392 191.013C2.39392 188.294 2.39392 185.602 2.39392 182.884Z" fill="#E8D4CB"/>
<path d="M54.0537 90.178C57.8622 82.8648 61.6707 75.5516 65.4792 68.2656C67.2747 70.0599 69.0973 71.8271 70.8927 73.6214C65.2888 79.1402 59.6577 84.6591 54.0537 90.178Z" fill="#DCC4B8"/>
<path d="M67.9819 373.325C63.847 381.563 60.7458 391.133 48.3137 388.767C49.4835 386.321 50.6804 383.901 51.8502 381.454C57.1821 378.708 62.514 375.935 67.8459 373.189L67.9819 373.325Z" fill="#91776F"/>
<path d="M48.8304 98.6332C50.5171 97.4914 52.2037 96.3223 53.8903 95.1533C58.9502 127.777 64.01 160.428 69.0155 193.079C69.8316 198.381 70.2397 203.709 70.8382 209.038C68.9611 209.337 67.0841 209.636 65.1798 209.935C64.2005 209.5 63.1939 209.065 62.2146 208.63C59.331 187.914 56.2026 167.225 53.6183 146.482C51.6596 130.577 50.381 114.592 48.8032 98.6332H48.8304Z" fill="#DCC4B8"/>
<path d="M97.7427 209.581C98.9396 208.059 100.164 206.536 101.361 205.014C102.911 206.59 104.489 208.194 106.04 209.771C103.265 209.717 100.49 209.635 97.7427 209.581Z" fill="#DCC4B8"/>
<path d="M74.4019 364.327C74.7284 364.436 75.3541 364.544 75.3541 364.68C75.3541 365.061 75.2181 365.523 74.9732 365.795C74.8916 365.904 74.3475 365.605 73.9939 365.469C74.1299 365.088 74.2659 364.708 74.4019 364.3V364.327Z" fill="#91776F"/>
<path d="M67.8457 373.19C68.0905 372.809 68.3082 372.456 68.553 372.075C68.3626 372.483 68.1721 372.918 67.9817 373.326L67.8457 373.19Z" fill="#91776F"/>
</svg>
