<svg width="177" height="461" viewBox="0 0 177 461" fill="none" xmlns="http://www.w3.org/2000/svg">
<g clip-path="url(#clip0_51_15)">
<path d="M121.446 219.439C127.101 252.785 142.958 284.237 140.334 319.152C139.901 324.912 138.845 330.646 138.088 336.379C129.699 336.812 121.337 337.244 112.949 337.677C96.4693 338.461 79.9897 339.381 63.5101 339.976C56.9615 340.219 49.3035 341.707 48.2752 331.592C44.4057 329.456 40.5902 325.642 36.6935 325.561C31.6604 325.48 26.5731 328.374 21.4858 329.969C20.5387 312.904 19.5645 295.839 18.6174 278.801C7.54983 237.91 26.6272 200.264 33.2298 158.048C23.9212 159.643 16.9126 160.86 9.90405 162.05C12.1771 138.549 12.6642 114.641 17.8056 91.7888C19.321 85.0277 33.9875 81.2415 42.6197 76.103C52.5237 88.4623 74.6047 83.405 82.2086 67.0431C83.2639 66.989 84.3193 66.9349 85.4017 66.8809C86.1323 67.3947 86.8359 68.3413 87.5665 68.3413C112.326 68.206 120.444 82.7019 120.877 104.987C121.175 119.131 122.88 133.248 123.962 147.365C107.645 140.225 102.991 143.281 102.558 161.591C102.477 164.728 102.558 167.892 102.937 171.002C106.13 197.073 110.297 222.982 98.9858 248.566C96.9834 253.082 100.961 260.249 102.233 266.442C115.871 261.763 120.066 254.569 119.173 242.994C118.577 235.233 120.58 227.255 121.419 219.358L121.446 219.439Z" fill="#7FB5BD"/>
<path d="M21.5127 329.996C26.5729 328.373 31.6602 325.48 36.7204 325.588C40.6171 325.669 44.4596 329.482 48.3021 331.619C46.2185 368.589 35.9627 404.963 40.2382 442.393C36.3686 450.642 29.4683 451.48 21.6209 449.992C27.0059 420.893 21.1338 392.225 18.942 363.342C18.1031 352.362 20.5656 341.111 21.5127 329.996Z" fill="#F7AD86"/>
<path d="M85.4288 66.9354C84.3734 66.9895 83.3181 67.0436 82.2357 67.0977C74.0635 65.9077 71.0058 59.7416 73.5223 53.4943C79.8815 37.7004 70.0045 28.1807 61.4535 18.2554C53.985 9.60116 44.6222 11.0075 42.755 22.0957C40.942 32.9135 43.0797 44.6508 44.9469 55.739C45.9211 61.5806 51.8472 67.0436 43.2692 71.6141C31.471 59.7146 21.1881 48.4641 26.0319 28.5323C32.391 2.29915 53.4979 -8.24819 76.093 7.14011C92.4915 18.3095 103.721 49.7351 85.4288 66.9354Z" fill="#E95E2E"/>
<path d="M112.976 337.677C121.364 337.244 129.726 336.812 138.115 336.379C142.715 355.067 148.695 373.538 151.482 392.469C154.297 411.481 161.035 427.789 173.726 441.906C168.151 442.664 162.604 443.448 157.03 444.205C151.591 436.416 146.179 428.601 140.739 420.812C135.896 407.452 130.781 394.2 126.289 380.732C121.554 366.479 117.387 352.038 112.976 337.677Z" fill="#F7AD86"/>
<path d="M121.446 219.439C120.607 227.309 118.577 235.287 119.2 243.076C120.093 254.651 115.898 261.845 102.26 266.523C100.988 260.33 97.0104 253.163 99.0129 248.647C110.324 223.063 106.157 197.127 102.964 171.083C102.585 167.973 102.504 164.809 102.585 161.672C103.045 143.363 107.672 140.307 123.989 147.447C123.15 171.462 122.312 195.45 121.446 219.466V219.439Z" fill="#F7AD86"/>
<path d="M9.931 162.078C16.9396 160.861 23.9481 159.671 33.2568 158.075C26.6271 200.292 7.54971 237.938 18.6443 278.829C6.06141 278.071 -1.02833 270.878 0.135249 256.76C2.48948 227.796 6.11553 198.912 9.20038 170.002C9.47098 167.378 9.68746 164.728 9.931 162.078Z" fill="#F7AD86"/>
<path d="M43.2421 71.5869C51.8201 67.0163 45.921 61.5534 44.9198 55.7118C43.0527 44.6235 40.9149 32.8862 42.7279 22.0684C44.5951 10.9802 53.9579 9.5739 61.4265 18.2281C69.9774 28.1534 79.8544 37.6731 73.4952 53.4671C70.9787 59.7143 74.0364 65.8805 82.2086 67.0704C74.6047 83.4323 52.4966 88.4626 42.6197 76.1303C42.8362 74.6158 43.0256 73.1014 43.2421 71.5598V71.5869Z" fill="#F6A881"/>
<path d="M140.713 420.812C146.152 428.6 151.564 436.416 157.003 444.232C156.894 446.233 156.786 448.235 156.651 450.236C146.206 446.855 138.602 432.792 140.685 420.839L140.713 420.812Z" fill="#B4B5C0"/>
<path d="M21.6211 449.993C29.4685 451.48 36.3688 450.642 40.2384 442.394C43.7562 449.479 44.7304 456.862 36.0982 460.054C28.1426 463.001 22.5953 458.945 21.6211 449.993Z" fill="#9FCFD4"/>
<path d="M156.678 450.209C156.786 448.208 156.894 446.206 157.03 444.205C162.604 443.448 168.151 442.663 173.726 441.906C174.808 446.071 175.918 450.209 177 454.374C170.235 452.994 163.443 451.588 156.678 450.209Z" fill="#9FCFD4"/>
</g>
<defs>
<clipPath id="clip0_51_15">
<rect width="177" height="461" fill="white"/>
</clipPath>
</defs>
</svg>
