<svg width="136" height="456" viewBox="0 0 136 456" fill="none" xmlns="http://www.w3.org/2000/svg">
<path d="M34.3004 274.856C31.8793 268.549 27.5811 262.269 27.4451 255.907C27.0643 237.611 28.3972 219.287 29.0229 200.99C27.5267 193.432 34.5724 180.791 17.8694 182.259C22.5756 152.707 26.3841 122.965 32.6682 93.7393C34.1372 86.9155 43.9577 81.886 49.9152 76.0137C49.9969 81.016 50.0513 86.0183 50.1329 91.0206C48.6367 94.2558 47.1133 97.5182 45.5899 100.753C46.3788 101.868 47.1949 103.01 47.9838 104.125C53.5061 102.031 59.0557 99.9378 64.578 97.8445C69.5563 86.7252 78.5063 83.6803 96.4334 87.0786C99.6979 95.6152 102.99 104.152 106.444 113.178C124.181 106.327 117.489 92.3528 119.284 81.5053C122.821 88.5467 128.017 95.2346 129.567 102.684C135.933 133.676 139.198 164.914 129.785 196.042C125.514 196.314 121.216 196.559 118.795 196.722C115.966 221.299 113.354 243.945 110.743 266.619C108.73 272.953 106.744 279.288 104.731 285.622C94.8012 284.806 84.8719 283.991 74.9426 283.175C73.256 283.175 71.5693 283.121 69.8827 283.094C58.0219 280.348 46.1339 277.602 34.2732 274.856H34.3004Z" fill="#FBD783"/>
<path d="M74.97 283.176C84.8993 283.991 94.8286 284.807 104.758 285.622C106.798 321.454 105.9 356.77 93.7676 391.351C90.0407 401.926 92.3259 414.568 91.6186 426.231C91.3193 431.07 90.3944 435.855 89.7687 440.667C83.3214 439.281 76.1397 439.226 70.6718 436.127C65.0406 432.919 61.0689 426.748 56.3899 421.881C64.3877 407.065 62.2658 392.846 57.7228 376.833C48.256 343.312 41.9176 308.894 34.3005 274.856C46.1613 277.602 58.0221 280.348 69.9101 283.094C71.2702 307.562 72.6032 332.03 73.9634 356.498C85.8514 331.649 77.2279 307.507 74.97 283.176Z" fill="#F7AD86"/>
<path d="M119.339 81.4783C117.544 92.3257 124.236 106.3 106.499 113.151C103.044 104.125 99.7523 95.5881 96.4879 87.0515C95.1549 81.6414 93.8492 76.2041 92.5162 70.794C91.156 65.1663 89.6326 59.5387 88.4357 53.8839C86.4226 44.3686 85.7697 34.3912 82.3965 25.3924C76.4933 9.6242 71.4878 8.64548 57.2331 17.9161C56.7162 15.3606 56.2266 12.805 55.7097 10.2495L55.5737 10.4942C56.2266 9.35233 56.8795 8.2105 57.5324 7.06866L57.7772 6.7968C58.5117 5.9812 59.219 5.13842 59.9535 4.32282L60.552 3.7519C68.2234 2.50132 75.8676 1.27793 83.539 0.0273438C95.2366 2.36539 100.106 11.2826 102.99 21.396C108.702 41.3509 113.925 61.469 119.339 81.5055V81.4783Z" fill="#56271C"/>
<path d="M17.8695 182.232C34.5453 180.764 27.4996 193.405 29.023 200.963C24.7793 214.339 20.6715 227.769 16.2645 241.118C15.0404 244.842 12.9185 248.241 11.2046 251.802C7.99462 249.736 3.07076 248.349 1.9282 245.468C0.132765 240.846 -0.710512 234.729 0.73128 230.107C5.81836 213.958 12.048 198.163 17.8695 182.232Z" fill="#F7AD86"/>
<path d="M110.743 266.592C113.354 243.918 115.966 221.272 118.795 196.695C121.243 196.532 125.514 196.287 129.785 196.016C129.785 213.17 129.948 230.298 129.731 247.453C129.54 263.03 125.977 266.429 110.743 266.592Z" fill="#F7AD86"/>
<path d="M56.3626 421.881C61.0689 426.747 65.0134 432.918 70.6445 436.126C76.1125 439.226 83.2943 439.28 89.7415 440.667C86.0418 445.696 83.1582 453.254 78.316 454.885C74.8067 456.054 68.9307 448.741 63.626 446.267C51.6564 440.721 49.4257 432.783 56.3626 421.854V421.881Z" fill="#91776F"/>
<path d="M55.6826 10.25C56.1994 12.8055 56.6891 15.3611 57.2059 17.9166C57.3964 29.8515 57.5596 41.8136 57.7501 53.7485C56.3355 63.8075 55.0841 73.8937 53.4247 83.9256C53.0166 86.3996 51.2756 88.656 50.1602 90.9941C50.0786 85.9918 50.0242 80.9894 49.9426 75.9871C51.8741 54.0747 53.7783 32.1624 55.7098 10.25H55.6826Z" fill="#422C22"/>
<path d="M57.7499 53.7478C57.5595 41.8129 57.3962 29.8508 57.2058 17.9159C71.4877 8.61808 76.4932 9.62398 82.3692 25.3922C85.7424 34.3909 86.3681 44.3684 88.4084 53.8837C89.6053 59.5657 91.1287 65.1661 92.4889 70.7937C93.8219 76.2039 95.1277 81.6412 96.4607 87.0513C78.5335 83.653 69.5835 86.6979 64.6052 97.8172C63.4354 82.9461 72.4671 66.4983 57.7499 53.7478Z" fill="#F6A881"/>
<path d="M57.75 53.748C72.4671 66.4985 63.4627 82.9464 64.6053 97.8175C59.0829 99.9108 53.5335 102.004 48.0111 104.098C47.2222 102.983 46.4061 101.841 45.6172 100.726C47.1406 97.4912 48.6367 94.2288 50.1601 90.9936C51.2755 88.6284 53.0166 86.3991 53.4246 83.9251C55.084 73.8933 56.3354 63.8071 57.75 53.748Z" fill="#56271C"/>
<path d="M74.9698 283.175C77.2277 307.507 85.8512 331.676 73.9632 356.497C72.603 332.03 71.2701 307.562 69.9099 283.094C71.5965 283.094 73.2832 283.148 74.9698 283.175Z" fill="#C599B6"/>
</svg>
