<svg width="136" height="458" viewBox="0 0 136 458" fill="none" xmlns="http://www.w3.org/2000/svg">
<path d="M106.849 419.302C90.8535 372.215 74.8306 325.128 61.0111 284.429C61.5824 325.073 62.2353 372.16 62.8882 419.248C55.788 417.426 48.6879 415.605 41.5877 413.81C34.1884 367.566 26.789 321.322 19.3896 275.077C18.2742 258.793 17.1317 242.481 16.0164 226.196C19.6344 223.341 22.9533 218.529 26.8978 217.985C39.7379 216.164 52.8229 215.892 65.799 215.049C66.7511 215.049 67.7032 214.995 68.6553 214.968C70.3148 214.995 71.947 215.022 73.6064 215.077C79.9721 224.918 87.8067 222.145 95.859 217.714C98.4977 218.285 101.109 218.855 103.748 219.399C104.047 239.055 104.7 258.711 104.537 278.367C104.21 315.531 119.009 349.732 124.695 385.699C126.327 395.922 127.034 406.307 128.15 416.61C121.077 417.508 113.977 418.405 106.904 419.302H106.849Z" fill="#BFCFE9"/>
<path d="M103.721 219.371C101.082 218.8 98.4706 218.229 95.8319 217.686C86.9091 195.039 83.1006 193.327 67.4857 202.57C69.7164 207.164 71.6479 211.079 73.5793 215.021C71.9199 214.994 70.2877 214.967 68.6283 214.913C67.6761 214.94 66.724 214.967 65.7719 214.994C52.7957 215.864 39.7108 216.136 26.8707 217.93C22.9262 218.474 19.6073 223.286 15.9892 226.141C11.7183 227.147 7.42013 228.153 3.14916 229.158L3.12193 229.104C3.01311 228.125 2.87713 227.119 2.76831 226.141C3.80205 200.259 4.56371 174.35 6.08711 148.469C6.44076 142.46 9.32436 136.615 11.0382 130.689C12.0175 129.955 13.0241 129.221 14.0306 128.459L14.1938 128.323C19.8522 125.741 27.3603 124.653 30.788 120.331C39.5476 109.266 46.5117 96.7327 54.2103 84.7978C63.3235 83.9006 72.4368 83.0307 81.55 82.1335V134.821C94.1724 135.936 99.2595 131.178 100.32 121.772C101.817 108.504 103.177 95.2102 104.591 81.916C124.423 89.6914 130.843 106.058 132.475 125.469C133.563 142.651 134.651 159.805 135.74 176.987C125.076 191.097 114.412 205.234 103.775 219.344L103.721 219.371Z" fill="#F65453"/>
<path d="M104.564 81.9438C103.15 95.238 101.789 108.505 100.293 121.799C99.2323 131.206 94.1452 135.963 81.5227 134.849C81.5227 117.504 81.5227 99.8325 81.5227 82.1613C83.291 69.4651 85.1136 56.769 86.773 44.0457C86.9907 42.3873 86.8002 40.158 85.8481 38.9346C80.9243 32.6002 75.9732 26.2113 70.4509 20.3934C63.8948 13.4608 56.2778 13.2977 48.4431 18.5447C45.1787 20.7196 41.8599 22.8402 38.541 24.9879C39.1667 10.0625 49.0416 4.29895 61.8817 1.49873C74.8851 -1.32867 85.8209 3.99989 89.3302 15.4998C95.9679 37.1675 99.6131 59.7323 104.51 81.9438H104.564Z" fill="#EE8C14"/>
<path d="M54.183 84.8251C46.5116 96.76 39.5475 109.293 30.7607 120.358C27.3331 124.681 19.8249 125.795 14.1665 128.378C14.4657 120.14 14.765 111.903 15.0642 103.638C22.8989 77.4303 30.7335 51.2225 38.5682 25.0146C41.887 38.1186 45.1787 51.2497 48.5791 64.3536C50.3473 71.2046 52.3332 78.0284 54.2102 84.8523L54.183 84.8251Z" fill="#EE8C14"/>
<path d="M41.588 413.783C48.6881 415.605 55.7883 417.426 62.8884 419.221C63.3781 424.984 63.8949 430.748 64.3302 435.995C55.2986 440.671 46.7295 446.625 37.2354 449.479C31.7947 451.11 24.8578 447.712 18.5737 446.57C20.5868 441.758 21.7837 436.294 24.8033 432.243C29.7544 425.609 35.9024 419.9 41.5608 413.783H41.588Z" fill="#F4E8E1"/>
<path d="M106.849 419.302C113.95 418.405 121.023 417.508 128.095 416.61C130.054 424.44 131.822 432.324 134.053 440.072C136.474 448.473 136.175 456.058 125.81 457.39C116.126 458.641 110.876 452.388 109.461 443.308C108.21 435.369 107.693 427.322 106.822 419.329L106.849 419.302Z" fill="#F4E8E1"/>
<path d="M3.17625 229.186C7.44721 228.18 11.7454 227.174 16.0164 226.168C17.1317 242.453 18.2742 258.765 19.3896 275.049C7.61041 273.962 -0.795501 261.13 1.24477 247.836C2.1969 241.664 2.55056 235.411 3.17625 229.186Z" fill="#F7AD86"/>
<path d="M15.0643 103.639C14.7651 111.876 14.4658 120.114 14.1666 128.378L14.0034 128.514C13.0785 128.65 12.1535 128.786 11.2014 128.949C12.48 120.522 13.7586 112.094 15.0371 103.666L15.0643 103.639Z" fill="#F65453"/>
<path d="M2.79537 226.168C2.90418 227.147 3.04021 228.153 3.14903 229.131C2.74097 228.479 2.25129 227.854 1.97925 227.147C1.89764 226.956 2.49613 226.494 2.79537 226.168Z" fill="#F7AD86"/>
<path d="M11.2286 128.922C12.1536 128.786 13.0785 128.65 14.0306 128.487C13.0241 129.221 12.0448 129.983 11.0382 130.717C10.7662 130.064 10.8206 129.466 11.2286 128.922Z" fill="#EE8C14"/>
<path d="M73.5792 215.022C71.6478 211.08 69.7163 207.138 67.4856 202.57C83.1277 193.327 86.909 195.04 95.8318 217.686C87.7795 222.09 79.9177 224.891 73.5792 215.022Z" fill="#F6A881"/>
<path d="M65.772 215.022C66.7241 215.022 67.6762 214.968 68.6284 214.94C67.6762 214.94 66.7241 214.995 65.772 215.022Z" fill="#F6A881"/>
<path d="M54.1831 84.8257C52.306 78.0019 50.3474 71.178 48.5519 64.327C45.1515 51.2231 41.8871 38.092 38.541 24.9881C41.8327 22.8403 45.1515 20.7198 48.4431 18.5449C56.2778 13.2978 63.8948 13.4882 70.4508 20.3935C75.9732 26.2115 80.9243 32.6003 85.8481 38.9348C86.8002 40.1582 86.9907 42.3603 86.773 44.0458C85.1408 56.7692 83.291 69.4653 81.5227 82.1614C72.4095 83.0586 63.2963 83.9285 54.1831 84.8257Z" fill="#F6A881"/>
</svg>
