<svg width="174" height="465" viewBox="0 0 174 465" fill="none" xmlns="http://www.w3.org/2000/svg">
<path d="M145.404 225.811C149.919 228.475 154.462 231.14 158.978 233.831C155.224 238.806 151.47 243.781 147.716 248.729C145.431 241.036 143.173 233.369 140.888 225.702C141.595 225.675 142.221 225.458 142.792 225.05C143.635 225.43 144.479 225.675 145.376 225.838L145.404 225.811Z" fill="#E9A07D"/>
<path d="M145.403 225.812C144.505 225.676 143.635 225.404 142.819 225.023C143.689 225.295 144.56 225.54 145.403 225.812Z" fill="#282244"/>
<path d="M147.716 248.702C134.032 287.035 139.826 327.38 135.392 366.664C132.835 389.256 129.027 411.685 125.789 434.196C107.59 434.087 107.917 434.087 107.481 416.334C107.046 398.717 105.904 381.101 105.06 363.511C103.999 331.784 102.503 300.085 93.7707 269.146C82.2092 303.483 68.1449 336.814 67.0296 373.57C66.6487 386.592 64.0644 399.56 62.4594 412.528C61.8609 417.911 61.2896 423.294 60.6911 428.677C60.2015 430.498 59.7118 432.347 59.2221 434.169C51.7683 434.169 44.3146 434.196 36.8336 434.223C35.9086 407.988 33.9228 381.753 34.3852 355.545C34.9021 325.314 37.4592 295.082 39.4451 264.905C39.9076 257.837 41.6758 250.85 42.8456 243.808C60.9904 246.527 68.4442 235.489 72.8239 220.482C78.5911 219.395 84.3583 218.307 93.0362 216.676C103.238 223.799 108.053 218.851 128.537 210.668C132.645 215.67 136.78 220.7 140.887 225.702C143.172 233.369 145.43 241.035 147.716 248.702Z" fill="#282244"/>
<path d="M140.915 225.703C136.807 220.701 132.672 215.671 128.564 210.669C128.455 207.216 129.407 203.22 128.047 200.338C112.813 168.312 106.203 134.574 107.073 99.2584C108.95 89.4441 110.855 79.6297 112.732 69.8154C114.282 67.5045 115.833 65.1937 117.383 62.8828C123.287 73.9749 135.583 70.1688 144.315 74.573C148.749 76.8295 154.924 79.2763 156.421 83.1368C175.409 131.909 181.094 181.389 161.97 231.684C161.617 232.636 159.984 233.098 158.978 233.805C154.462 231.14 149.919 228.476 145.403 225.785C144.533 225.54 143.662 225.268 142.819 225.023C142.248 225.431 141.622 225.649 140.915 225.676V225.703Z" fill="#393150"/>
<path d="M72.8513 220.455C68.4715 235.435 61.0177 246.473 42.8729 243.781C44.9404 221.869 46.9807 199.93 49.1297 176.875C42.1656 175.543 34.739 174.129 27.3124 172.661C15.6693 170.378 10.8543 163.282 14.3907 152.054C19.4234 136.15 28.2374 120.871 30.1688 104.695C33.2972 78.5143 51.4421 71.1196 71.4911 64.0783C71.872 63.9424 72.3888 64.1327 72.8241 64.187C73.6946 66.0629 74.5923 67.9388 75.4901 69.7875C75.8437 82.3477 76.1973 94.9078 76.5238 107.468C77.0135 119.947 77.5031 132.425 77.9656 144.904C72.0352 149.471 64.4726 153.033 60.8001 159.014C58.5422 162.657 60.4737 171.764 63.8469 175.19C67.0025 178.425 74.4835 177.446 80.0603 178.343C77.6391 192.399 75.2452 206.427 72.8241 220.483L72.8513 220.455ZM48.2592 150.232H49.5922V144.251H48.2592V150.232Z" fill="#393150"/>
<path d="M77.7206 53.3128C65.0981 33.4123 66.5671 14.7623 79.8153 0C88.2484 0.434985 93.9883 0.570917 99.7011 1.06028C103.537 1.38651 108.352 0.951529 110.936 3.07208C118.118 8.89 121.002 33.7385 117.166 42.2751C114.881 47.359 114.146 53.1497 112.704 58.6414C100 63.7525 87.2419 69.2713 77.6934 53.3672L77.7206 53.3128Z" fill="#F6A881"/>
<path d="M36.8881 434.196C44.3419 434.196 51.7957 434.169 59.2767 434.142C60.6913 438.872 63.1396 443.603 63.1668 448.36C63.1668 451.269 60.0112 456.163 57.454 456.788C43.7434 460.105 29.8424 462.715 15.9141 464.754C11.1535 465.433 6.0392 463.693 1.06094 463.068C0.707292 461.709 0.353647 460.349 0 458.99C12.296 450.725 24.5921 442.488 36.8881 434.223V434.196Z" fill="#322524"/>
<path d="M105.087 363.512C105.931 381.129 107.073 398.718 107.509 416.335C107.944 434.088 107.617 434.088 125.817 434.197C126.225 440.015 127.694 446.023 126.769 451.623C125.273 460.568 118.308 463.749 110.202 461.329C106.856 460.323 102.204 455.538 102.231 452.548C102.694 422.86 104.027 393.199 105.115 363.539L105.087 363.512Z" fill="#322524"/>
<path d="M77.7209 53.3125C87.2421 69.2166 100.028 63.6978 112.732 58.5867C114.283 60.0276 115.86 61.4685 117.411 62.9094C115.833 65.2202 114.283 67.5311 112.732 69.8419C91.1867 86.3985 88.2759 86.3985 75.4902 69.8147C74.5925 67.9389 73.7219 66.063 72.8242 64.2143C74.4564 60.5985 76.0887 56.9555 77.7209 53.3397V53.3125Z" fill="#E9A07D"/>
<path d="M77.9927 144.931C77.503 132.453 77.0134 119.974 76.5509 107.495C80.7947 114.265 85.0384 121.034 90.2887 129.408C92.5194 125.221 94.5869 121.116 96.8448 117.12C100.191 111.138 103.673 105.239 107.101 99.2852C106.23 134.6 112.841 168.339 128.075 200.365C129.435 203.247 128.483 207.216 128.591 210.696C108.107 218.879 103.292 223.827 93.0907 216.704C84.4128 218.335 78.6456 219.423 72.8784 220.51C75.2995 206.455 77.6934 192.426 80.1146 178.371C88.0852 172.798 96.2735 168.013 93.3627 155.398C91.2136 146.073 85.4737 144.959 78.0199 144.931H77.9927Z" fill="#BFCFE9"/>
<path d="M107.074 99.2583C103.646 105.212 100.164 111.112 96.8179 117.093C94.56 121.089 92.4925 125.194 90.2618 129.381C85.0115 121.008 80.7677 114.238 76.524 107.469C76.1703 94.9085 75.8167 82.3483 75.4902 69.7881C88.2759 86.3719 91.1867 86.3719 112.732 69.8153C110.855 79.6296 108.951 89.444 107.074 99.2583Z" fill="#F4E8E1"/>
<path d="M77.9927 144.932C85.4465 144.932 91.1865 146.073 93.3356 155.398C96.2192 168.013 88.0581 172.798 80.0874 178.371C74.5107 177.501 67.0297 178.453 63.874 175.217C60.528 171.792 58.5966 162.712 60.8273 159.041C64.4997 153.088 72.0623 149.526 77.9927 144.932Z" fill="#F6A881"/>
<path d="M48.2593 150.233V144.252H49.5922V150.233H48.2593Z" fill="#FDFCFC"/>
</svg>
