<svg width="186" height="456" viewBox="0 0 186 456" fill="none" xmlns="http://www.w3.org/2000/svg">
<path d="M156.76 229.797C153.386 255.651 150.448 281.56 146.504 307.333C141.199 342.077 135.16 376.713 129.42 411.403C123.19 411.702 116.961 412.028 110.731 412.327C107.14 391.122 102.162 370.052 100.285 348.683C97.6191 318.234 97.2654 287.568 95.9324 257.01C94.7899 256.738 93.6201 256.494 92.4775 256.222C86.7376 264.487 81.0521 272.778 75.2033 280.989C71.0139 286.861 67.6135 293.902 62.0911 298.171C39.9474 315.38 37.3902 336.504 46.2858 361.461C50.2031 372.417 51.6994 384.243 54.2837 395.689C51.5633 406.183 43.5926 407.216 34.6698 406.564C23.598 377.447 12.0364 348.493 1.86227 319.05C-0.178003 313.151 1.04621 304.424 4.03861 298.714C17.4772 273.105 32.1399 248.147 46.2042 222.864C48.3261 219.031 49.5502 214.654 51.1824 210.548C54.9093 210.548 58.6362 210.548 63.3152 210.548C63.5329 206.552 63.7777 202.773 63.9953 198.994C85.4318 200.299 106.895 201.468 128.305 203.018C135.486 203.534 142.587 205.03 149.687 206.063C147.021 209.298 144.355 212.533 142.369 214.953C147.402 220.172 152.081 224.984 156.733 229.797H156.76Z" fill="#8192B9"/>
<path d="M149.714 206.062C142.587 205.029 135.487 203.534 128.305 203.017C106.868 201.468 85.4318 200.299 63.9954 198.994C58.0378 191.545 53.0052 195.595 48.0541 200.299C46.7755 196.601 44.7353 192.958 44.3272 189.179C40.5187 151.608 44.3272 115.286 65.138 82.6897C68.3752 77.6058 75.693 75.1046 81.1065 71.4073C86.2752 70.5645 91.4439 69.7217 96.6126 68.8789C101.183 79.5904 118.947 80.9769 130.019 71.5432C160.677 75.159 169.11 98.7297 175.694 123.306C179.883 138.911 185.65 155.033 185.079 170.72C184.453 187.548 177.435 204.186 172.565 220.743C172.048 222.483 167.179 222.945 164.35 224.005C161.684 218.432 158.99 212.886 156.324 207.313C162.309 189.179 160.351 171.943 151.482 154.462V206.307C150.884 206.307 150.285 206.225 149.714 206.089V206.062Z" fill="#BFCFE9"/>
<path d="M130.046 71.5434C118.974 81.0043 101.237 79.5906 96.64 68.8791C96.3951 64.9914 96.0687 61.1309 95.9327 57.2432C95.5791 47.1027 95.3071 36.9621 95.0078 26.8215C96.0688 24.8369 97.1297 22.8522 98.2178 20.8404L97.9458 21.1939C98.8979 20.188 99.85 19.1821 100.802 18.1761L100.585 18.448C101.618 17.5509 102.625 16.6809 103.659 15.7837L103.414 16.0556C105.563 14.9138 107.739 13.7719 109.888 12.6029L110.459 12.8476C120.987 10.5095 125.721 16.0012 126.319 25.5165C127.081 37.6961 126.999 49.9029 127.298 62.1096C128.223 65.2361 129.148 68.3625 130.073 71.489L130.046 71.5434Z" fill="#F6A881"/>
<path d="M95.0076 26.8209C95.3068 36.9615 95.5789 47.102 95.9325 57.2426C96.0685 61.1303 96.3949 64.9908 96.6397 68.8785C91.4711 69.7213 86.3024 70.564 81.1337 71.4068C79.0663 69.8572 75.5026 68.5522 75.2034 66.7307C71.9389 46.5311 71.15 26.2771 83.9629 8.79618C92.5049 -2.86685 104.746 -0.637553 116.634 3.38606C117.777 4.09291 118.92 4.79976 120.062 5.50661L120.552 5.91441C117.178 8.25245 113.805 10.5633 110.432 12.9014L109.861 12.6567C107.712 13.7985 105.535 14.9403 103.386 16.1094C103.386 16.1094 103.631 15.8375 103.604 15.8103C102.57 16.7075 101.564 17.5774 100.53 18.4746L100.748 18.2027C99.7954 19.2086 98.8433 20.2145 97.8912 21.2204L98.1632 20.867C97.1023 22.8516 96.0413 24.8363 94.9804 26.8481L95.0076 26.8209Z" fill="#282244"/>
<path d="M34.6973 406.536C43.5928 407.188 51.5907 406.182 54.3111 395.661C67.7224 397.292 69.2458 400.038 64.9477 411.62C61.52 420.809 59.7246 430.623 56.1881 439.785C54.2294 444.896 50.6386 449.654 46.8301 453.65C45.8779 454.656 38.805 452.399 38.6418 451.176C36.8736 436.359 35.8942 421.434 34.6973 406.536Z" fill="#F4E8E1"/>
<path d="M110.731 412.299C116.961 412 123.191 411.674 129.42 411.375C129.556 422.603 129.611 433.858 129.883 445.086C130.127 454.683 124.279 456.287 116.607 455.58C108.365 454.819 108.528 450.252 109.589 443.183C111.112 433.07 110.459 422.603 110.704 412.272L110.731 412.299Z" fill="#F4E8E1"/>
<path d="M110.432 12.902C113.805 10.5639 117.178 8.25308 120.552 5.91504C135.214 18.9102 136.139 36.4727 135.704 54.0352C135.623 56.8083 130.209 59.4454 127.244 62.164C126.945 49.9573 127.026 37.7505 126.264 25.5709C125.666 16.0556 120.933 10.5639 110.405 12.902H110.432Z" fill="#322524"/>
<path d="M156.352 207.313C159.045 212.886 161.711 218.432 164.377 224.006C161.82 225.936 159.29 227.866 156.733 229.796C152.081 224.984 147.402 220.145 142.369 214.953C144.355 212.56 147.021 209.298 149.687 206.062C150.285 206.198 150.884 206.28 151.482 206.28C153.087 206.606 154.72 206.96 156.325 207.313H156.352Z" fill="#F7AD86"/>
<path d="M48.0542 200.325C53.0325 195.595 58.0379 191.544 63.9955 199.02C63.7779 202.799 63.5602 206.578 63.3154 210.548C58.6364 210.548 54.9095 210.548 51.1826 210.548C50.1489 207.149 49.0879 203.724 48.0542 200.325Z" fill="#F7AD86"/>
<path d="M103.386 16.1099C105.535 14.9681 107.684 13.7991 109.861 12.6572C107.712 13.7991 105.563 14.9681 103.386 16.1099Z" fill="#322524"/>
<path d="M95.0078 26.8209C96.0688 24.8363 97.1296 22.8516 98.1906 20.8398C97.1296 22.8245 96.0688 24.8091 95.0078 26.8209Z" fill="#322524"/>
<path d="M100.557 18.4748C101.591 17.5777 102.597 16.7077 103.631 15.8105C102.625 16.7077 101.591 17.5777 100.557 18.4748Z" fill="#322524"/>
</svg>
