<svg width="115" height="108" viewBox="0 0 115 108" fill="none" xmlns="http://www.w3.org/2000/svg">
<g clip-path="url(#clip0_26_671)">
<path d="M16.5023 13.7382C16.5023 16.2415 16.4482 18.4131 16.5121 20.5796C16.7185 27.9086 22.6452 33.7397 29.7463 33.6442C36.8082 33.5487 42.5285 27.793 42.7103 20.5645C42.7644 18.398 42.7202 16.2315 42.7202 13.8739H72.3486C72.3486 15.7992 72.3338 17.7697 72.3486 19.7452C72.4223 27.6875 78.0934 33.6894 85.4846 33.6492C92.7872 33.609 98.4436 27.6925 98.596 19.901C98.6353 17.9154 98.6009 15.9349 98.6009 13.7834C101.835 13.7834 104.783 13.5321 107.678 13.8438C111.815 14.2861 114.808 18.0964 114.921 22.9472C115.059 28.8889 114.98 34.8355 114.98 40.7822C114.98 59.2907 114.98 77.7942 114.97 96.3028C114.97 97.5595 114.97 98.8212 114.823 100.063C114.268 104.672 110.695 107.995 106.144 107.995C73.7246 108.02 41.3048 108.02 8.88506 107.995C3.73976 107.995 0.132651 104.024 0.0441934 98.3034C-0.0442643 92.3568 0.0196218 86.4101 0.0196218 80.4685C0.0196218 61.6282 0.00487885 42.7828 0.0294505 23.9425C0.0343648 18.4081 3.1009 14.2107 7.61225 13.8035C10.438 13.5472 13.3079 13.7533 16.4973 13.7533L16.5023 13.7382ZM9.75489 97.9063C10.664 97.9666 11.3078 98.0521 11.9467 98.0521C42.3123 98.0571 72.6778 98.042 103.039 98.0973C104.985 98.0973 105.545 97.5192 105.535 95.5387C105.471 79.2972 105.442 63.0558 105.574 46.8193C105.594 44.1853 104.803 43.6625 102.39 43.6726C72.437 43.753 42.4793 43.7279 12.5266 43.7279C11.6518 43.7279 10.7771 43.7279 9.75489 43.7279V97.9113V97.9063Z" fill="black"/>
<path d="M36.6018 13.6627C36.6018 15.8343 36.6657 18.0109 36.5871 20.1824C36.4445 24.2742 33.5991 27.1847 29.7758 27.2551C25.8247 27.3305 22.7729 24.4502 22.65 20.2528C22.5223 15.8293 22.5124 11.3906 22.6599 6.96708C22.7975 2.77979 25.8935 -0.095518 29.825 -9.52953e-06C33.6188 0.095499 36.4396 3.03113 36.5871 7.14302C36.6657 9.31458 36.6018 11.4861 36.6018 13.6627Z" fill="black"/>
<path d="M92.3449 13.7633C92.3449 16.0203 92.4531 18.2823 92.3204 20.5243C92.0747 24.6211 89.1359 27.3456 85.2438 27.2551C81.4057 27.1646 78.5799 24.2441 78.521 20.1422C78.4571 15.7991 78.4522 11.456 78.521 7.11285C78.5849 3.02609 81.4352 0.0804053 85.2536 -2.29166e-05C89.1261 -0.0854779 92.0894 2.67421 92.3253 6.75092C92.4629 9.08334 92.3499 11.4258 92.3499 13.7633H92.3449Z" fill="black"/>
<path d="M9.75488 97.9063V43.7228C10.782 43.7228 11.6518 43.7228 12.5266 43.7228C42.4793 43.7228 72.437 43.753 102.39 43.6675C104.803 43.6625 105.594 44.1802 105.574 46.8143C105.442 63.0557 105.471 79.2972 105.535 95.5337C105.545 97.5092 104.985 98.0923 103.039 98.0923C72.6729 98.037 42.3073 98.0521 11.9467 98.047C11.3029 98.047 10.664 97.9666 9.75488 97.9013V97.9063ZM27.928 85.8471C31.9529 85.8471 35.7271 86.1587 39.4276 85.7616C43.3836 85.3343 46.1503 82.8059 47.4084 78.89C49.0006 73.9236 49.035 68.8365 47.6885 63.8299C46.799 60.5172 44.7792 57.7223 41.349 57.1744C36.9753 56.4707 32.4984 56.4606 27.928 56.1389V85.8471ZM67.1394 56.5762H51.9443V86.1286H67.3605V82.4289H58.3968V71.8023H65.3555V68.1428H58.3477V60.1654H67.1443V56.5762H67.1394ZM85.7155 56.6114C84.197 56.4204 82.7571 56.1088 81.3074 56.0736C74.8696 55.9328 70.6187 59.4164 69.803 65.9411C69.3803 69.304 69.454 72.7825 69.7292 76.1756C70.5598 86.2492 79.4203 87.893 85.6959 85.5857V82.3987C84.9489 82.4791 84.3788 82.5495 83.8088 82.6048C79.3416 83.0421 77.1646 81.4688 76.4913 76.9397C76.1031 74.3107 75.9557 71.6063 76.0294 68.9421C76.2407 61.2964 78.3195 59.4566 85.7057 60.2106V56.6114H85.7155Z" fill="#C599B6"/>
<path d="M27.9281 85.8471V56.1389C32.4984 56.4606 36.9803 56.4707 41.3491 57.1744C44.7793 57.7274 46.7991 60.5172 47.6886 63.8299C49.0351 68.8415 48.9958 73.9286 47.4085 78.89C46.1553 82.8009 43.3886 85.3344 39.4276 85.7616C35.7271 86.1587 31.9529 85.8471 27.9281 85.8471ZM34.1742 60.3614C34.1742 66.675 34.1447 72.863 34.2037 79.0459C34.2135 80.1317 34.5379 82.1273 34.8032 82.1424C36.1989 82.2228 37.8452 82.1675 38.9804 81.4487C40.0222 80.7902 41.0739 79.2771 41.1673 78.0707C41.4965 73.7728 41.8258 69.3945 41.3688 65.1318C40.9314 61.0551 38.6855 59.8537 34.1791 60.3664L34.1742 60.3614Z" fill="black"/>
<path d="M67.1394 56.5762V60.1653H58.3428V68.1427H65.3506V71.8022H58.392V82.4288H67.3557V86.1285H51.9395V56.5762H67.1345H67.1394Z" fill="black"/>
<path d="M85.7156 56.6113V60.2105C78.3244 59.4615 76.2506 61.2963 76.0393 68.942C75.9656 71.6011 76.1081 74.3055 76.5012 76.9396C77.1696 81.4687 79.3515 83.037 83.8187 82.6047C84.3887 82.5494 84.9539 82.4841 85.7057 82.3986V85.5856C79.4302 87.8929 70.5696 86.2491 69.7391 76.1755C69.459 72.7875 69.3902 69.3039 69.8128 65.941C70.6286 59.4163 74.8795 55.9277 81.3173 56.0735C82.767 56.1036 84.2069 56.4153 85.7254 56.6113H85.7156Z" fill="black"/>
<path d="M34.1742 60.3614C38.6806 59.8487 40.9264 61.0501 41.3638 65.1268C41.8208 69.3844 41.4916 73.7678 41.1623 78.0657C41.0689 79.2771 40.0173 80.7851 38.9754 81.4437C37.8451 82.1575 36.1989 82.2178 34.7983 82.1373C34.5329 82.1223 34.2086 80.1266 34.1987 79.0409C34.1398 72.8579 34.1692 66.675 34.1692 60.3564L34.1742 60.3614Z" fill="#C599B6"/>
</g>
<defs>
<clipPath id="clip0_26_671">
<rect width="115" height="108" fill="white"/>
</clipPath>
</defs>
</svg>
