<svg width="116" height="107" viewBox="0 0 116 107" fill="none" xmlns="http://www.w3.org/2000/svg">
<g clip-path="url(#clip0_2_427)">
<path d="M16.631 13.5381C16.631 16.0426 16.5814 18.1885 16.6409 20.3345C16.8293 27.6488 22.6606 33.3498 29.9 33.3448C37.0899 33.3398 42.9311 27.5442 43.0749 20.2449C43.1145 18.1089 43.0798 15.9729 43.0798 13.6875H72.9798C72.9798 15.8434 72.9501 17.8998 72.9848 19.9561C73.1186 27.4396 78.6573 33.1904 85.8571 33.3398C93.1759 33.4942 99.0419 27.9176 99.4336 20.3594C99.5476 18.2134 99.4485 16.0625 99.4485 13.3987C102.994 13.5879 106.4 13.4037 109.648 14.041C113.114 14.7181 114.964 17.4964 115.708 20.8872C115.955 22.0075 115.985 23.1925 115.985 24.3526C116 48.3318 116.01 72.3059 115.955 96.2851C115.955 98.0726 115.737 99.9845 115.088 101.623C113.843 104.769 111.408 106.696 107.923 106.9C105.696 107.03 103.465 107 101.234 107C71.0757 107 40.9179 107 10.7601 107C3.3917 107 0.00501533 103.614 5.67927e-05 96.2303C-0.00490174 72.2512 -0.00490174 48.277 5.67927e-05 24.2978C5.67927e-05 16.9836 3.48095 13.5431 10.8245 13.5431C12.6294 13.5431 14.4344 13.5431 16.626 13.5431L16.631 13.5381ZM106.43 96.9822C106.43 95.8768 106.43 94.9059 106.43 93.94C106.43 78.1862 106.43 62.4275 106.43 46.6737C106.43 44.4298 105.311 43.3079 103.073 43.3079C72.8459 43.3079 42.6236 43.3378 12.3964 43.2631C10.2345 43.2581 9.60474 43.7709 9.61962 46.0016C9.71879 62.0889 9.6692 78.1763 9.67416 94.2636C9.67416 95.1399 9.7535 96.0212 9.79812 96.9822H106.43Z" fill="black"/>
<path d="M22.8043 13.6227C22.8043 11.4718 22.7349 9.31585 22.8192 7.16489C22.9828 2.99244 25.953 0.00998319 29.8554 2.50705e-05C33.7677 -0.00993305 36.7626 2.94763 36.8668 7.14498C36.9709 11.4469 36.9907 15.7587 36.8866 20.0607C36.7924 24.0489 33.7925 27.0264 30.0041 27.1259C26.2902 27.2255 23.1564 24.3227 22.8738 20.3245C22.7151 18.0989 22.844 15.8534 22.844 13.6178H22.8043V13.6227Z" fill="black"/>
<path d="M79.2027 13.3936C79.2027 11.158 79.1283 8.92243 79.2225 6.68684C79.3812 2.98242 82.277 0.144351 85.9017 0.00493739C89.6503 -0.139455 92.9031 2.54924 93.0767 6.37813C93.2899 11.168 93.2849 15.9827 93.0717 20.7726C92.9031 24.482 89.685 27.1906 86.0951 27.1259C82.3761 27.0562 79.3713 24.1484 79.2225 20.3494C79.1333 18.0341 79.2076 15.7139 79.2076 13.3986L79.2027 13.3936Z" fill="black"/>
<path d="M106.43 96.9822H9.79803C9.7534 96.0212 9.67406 95.1449 9.67406 94.2636C9.6691 78.1763 9.71373 62.0889 9.61952 46.0016C9.60464 43.771 10.2344 43.2581 12.3963 43.2631C42.6235 43.3328 72.8458 43.3079 103.073 43.3079C105.308 43.3079 106.427 44.4299 106.43 46.6738C106.43 62.4275 106.43 78.1862 106.43 93.94C106.43 94.9059 106.43 95.8768 106.43 96.9822ZM67.3567 84.7835H73.6293V66.5302C76.8126 71.4944 79.4456 76.5332 82.0687 81.577C83.4141 84.1594 85.6884 85.1868 88.8916 84.659V55.5763H82.7083V73.1873C81.8902 72.6943 81.4885 72.1118 81.1613 71.4944C78.9696 67.3169 76.7878 63.1345 74.621 58.9471C72.5086 54.8743 72.2954 54.7697 67.3518 55.7307V84.7835H67.3567ZM43.0797 55.5464C43.0351 56.4875 42.9706 57.2941 42.9706 58.1007C42.9607 63.8216 42.9508 69.5426 42.9706 75.2635C42.9954 82.1794 45.6532 84.9229 52.491 85.127C53.3984 85.1519 54.3108 85.127 55.2133 85.0623C60.4594 84.6889 63.2907 81.6716 63.3304 76.3489C63.375 70.2147 63.3651 64.0805 63.3601 57.9463C63.3601 57.1597 63.251 56.368 63.1965 55.5913H56.9487C56.9487 56.6817 56.9487 57.5879 56.9487 58.4891C56.9487 64.6233 56.9735 70.7575 56.9289 76.8917C56.9041 80.0484 55.7091 81.5421 53.3736 81.5919C50.825 81.6467 49.4961 80.2227 49.4118 76.9813C49.3076 72.9234 49.3721 68.8555 49.3721 64.7926C49.3721 61.7553 49.3721 58.7131 49.3721 55.5415H43.0847L43.0797 55.5464ZM27.1727 90.9675C34.2436 92.7948 37.9774 90.0065 37.9873 83.0358C38.0022 75.8311 37.9774 68.6314 38.0071 61.4267C38.0071 60.7197 38.146 59.455 38.4137 59.4002C40.9426 58.8675 39.7724 57.08 39.9112 55.5564H29.29C29.6421 56.8958 29.7016 58.753 30.2669 58.9222C31.8338 59.4052 31.5809 60.411 31.5809 61.4217C31.5958 68.5418 31.5958 75.6618 31.5858 82.7819C31.5858 87.1884 31.4619 87.3178 27.1678 87.9203V90.9675H27.1727Z" fill="#C599B6"/>
<path d="M67.3568 84.7835V55.7307C72.3005 54.7697 72.5137 54.8743 74.626 58.9471C76.7979 63.1345 78.9796 67.3169 81.1663 71.4944C81.4936 72.1168 81.8952 72.6943 82.7134 73.1873V55.5763H88.8967V84.659C85.6902 85.1868 83.4159 84.1594 82.0738 81.577C79.4457 76.5332 76.8127 71.4944 73.6343 66.5302V84.7835H67.3618H67.3568Z" fill="black"/>
<path d="M43.0797 55.5464H49.3671C49.3671 58.718 49.3671 61.7553 49.3671 64.7975C49.3671 68.8604 49.3027 72.9233 49.4068 76.9862C49.4911 80.2276 50.82 81.6516 53.3687 81.5968C55.7091 81.547 56.9041 80.0533 56.924 76.8966C56.9686 70.7624 56.9438 64.6282 56.9438 58.494C56.9438 57.5928 56.9438 56.6916 56.9438 55.5962H63.1915C63.2461 56.3729 63.3552 57.1646 63.3552 57.9513C63.3552 64.0855 63.3651 70.2197 63.3254 76.3539C63.2858 81.6765 60.4544 84.6888 55.2083 85.0672C54.3058 85.132 53.3935 85.1569 52.4861 85.132C45.6433 84.9278 42.9905 82.1844 42.9657 75.2684C42.9458 69.5475 42.9558 63.8266 42.9657 58.1056C42.9657 57.299 43.0351 56.4924 43.0748 55.5514L43.0797 55.5464Z" fill="black"/>
<path d="M27.1727 90.9675V87.9203C31.4718 87.3178 31.5908 87.1884 31.5908 82.7819C31.5957 75.6618 31.6007 68.5418 31.5858 61.4217C31.5858 60.406 31.8387 59.4002 30.2718 58.9222C29.7065 58.748 29.652 56.8908 29.295 55.5564H39.9162C39.7773 57.085 40.9475 58.8725 38.4187 59.4002C38.146 59.455 38.0121 60.7197 38.0121 61.4267C37.9823 68.6314 38.0071 75.8311 37.9923 83.0358C37.9774 90.0065 34.2486 92.7948 27.1777 90.9675H27.1727Z" fill="black"/>
</g>
<defs>
<clipPath id="clip0_2_427">
<rect width="116" height="107" fill="white"/>
</clipPath>
</defs>
</svg>
