<svg width="113" height="104" viewBox="0 0 113 104" fill="none" xmlns="http://www.w3.org/2000/svg">
<g clip-path="url(#clip0_2_435)">
<path d="M16.2022 13.1615C16.2022 15.339 16.2119 17.1777 16.2022 19.0116C16.1587 26.5166 21.611 32.3038 28.8324 32.4102C36.0538 32.5118 41.7526 26.923 41.9943 19.4616C42.0571 17.4632 42.004 15.46 42.004 13.3164H71.0153C71.0153 15.4987 70.9331 17.6471 71.0298 19.7858C71.3294 26.4295 76.0857 31.5779 82.5627 32.357C88.6869 33.0925 94.6854 29.0763 96.353 23.0181C96.6914 21.7988 96.7349 20.4778 96.7784 19.2003C96.846 17.289 96.7977 15.3777 96.7977 13.2777C99.9734 13.2777 102.878 12.9777 105.701 13.3454C110.138 13.9261 112.971 17.6616 112.985 22.4907C113.019 34.099 112.995 45.712 113 57.3203C113 69.7366 113.01 82.1529 113.005 94.5693C113.005 100.337 109.384 103.956 103.705 103.961C73.0212 103.966 42.3327 103.981 11.6489 103.99C10.1989 103.99 8.73911 104.053 7.30353 103.879C3.05962 103.366 0.0192842 99.5629 0.0144506 94.7241C-0.00971738 77.469 0.0144506 60.2139 0.0144506 42.9588C0.0144506 36.2667 -0.014551 29.5747 0.00961703 22.8827C0.0289514 16.6648 3.55748 13.1664 9.76866 13.1519C11.7746 13.1519 13.7757 13.1519 16.2022 13.1519V13.1615ZM103.439 42.2571H9.55115V94.2305H103.434V42.2571H103.439Z" fill="black"/>
<path d="M90.7654 13.1808C90.7654 15.3534 90.8282 17.526 90.7509 19.6987C90.6204 23.3181 87.9184 26.081 84.3512 26.3471C80.9097 26.6036 77.4971 24.0729 77.2893 20.4971C76.9993 15.6147 76.9993 10.684 77.2941 5.80166C77.5116 2.21613 80.8468 -0.212945 84.385 0.014478C87.8217 0.232223 90.572 2.9371 90.7364 6.42587C90.8427 8.6759 90.7557 10.9308 90.7557 13.1857H90.7654V13.1808Z" fill="black"/>
<path d="M35.875 13.3115C35.875 15.4841 36.0152 17.6664 35.846 19.8197C35.5367 23.7294 32.4867 26.4923 28.8518 26.3617C25.0429 26.2262 22.2684 23.2213 22.2491 19.1906C22.2298 15.1696 22.1911 11.1486 22.2346 7.12752C22.2733 3.15488 24.9752 0.193545 28.6246 0.0145103C32.5157 -0.179041 35.4593 2.41939 35.7929 6.56623C35.9717 8.80174 35.8267 11.0663 35.8267 13.3163C35.8412 13.3163 35.8605 13.3163 35.875 13.3163V13.3115Z" fill="black"/>
<path d="M103.439 42.2571V94.2305H9.55115V42.2571H103.434H103.439ZM39.2488 64.2881C39.476 64.3219 39.6983 64.3606 39.9255 64.3945V82.3948H46.1415C46.1415 81.2722 46.1415 80.319 46.1415 79.3657C46.1415 72.1172 46.1802 64.8687 46.1319 57.6202C46.1077 53.5556 46.9874 53.7879 42.2215 53.9137C41.4143 53.9331 40.3025 54.6637 39.8917 55.3895C38.1854 58.3944 36.7015 61.5251 35.1161 64.6026C34.6714 65.4687 34.159 66.301 33.4872 67.4817C31.2927 63.1848 29.3593 59.2993 27.3098 55.4766C26.9521 54.8089 26.1884 54.0444 25.502 53.9234C24.1245 53.6815 22.6696 53.8508 21.1856 53.8508V82.419H27.3291V64.3945C29.1031 66.6881 30.268 69.1269 31.6262 71.4543C32.0371 72.1559 32.9265 72.9156 33.6612 72.9834C34.2315 73.0366 35.1112 72.1801 35.4883 71.522C36.8272 69.1607 38.0066 66.7075 39.2488 64.2881ZM47.8188 82.5593C49.293 82.5593 50.4193 82.4625 51.5262 82.5835C53.0052 82.7432 53.6336 82.1529 53.9768 80.7206C54.9822 76.4963 55.0354 76.5108 59.4001 76.5108C59.9608 76.5108 60.5312 76.5544 61.087 76.506C62.4308 76.3899 63.1703 76.8737 63.3927 78.3012C63.615 79.7044 64.079 81.0641 64.4319 82.4335H71.0491C68.613 73.1672 66.2397 64.08 63.8132 55.0073C63.6972 54.5718 63.1607 53.9524 62.7933 53.9331C60.71 53.8315 58.6122 53.8266 56.5289 53.9331C56.1713 53.9524 55.6637 54.6057 55.5381 55.0508C52.9714 64.0848 50.4531 73.1334 47.8188 82.5593ZM82.1809 66.3591L81.6154 66.2865C80.4456 62.6961 79.3001 59.1009 78.0723 55.5299C77.8645 54.9202 77.3425 54.0056 76.8929 53.9621C75.0368 53.7831 73.1517 53.8895 71.1603 53.8895C74.0701 63.601 80.0541 72.0398 78.0868 82.3609H84.7185C83.3361 75.4076 85.4387 69.3107 88.1794 63.301C89.5328 60.3396 90.5817 57.2331 91.7853 54.146C88.4275 53.575 86.2556 54.7008 85.2696 57.5234C84.24 60.4703 83.2104 63.4122 82.1809 66.3591Z" fill="#C599B6"/>
<path d="M39.2488 64.2881C38.0066 66.7075 36.8272 69.1608 35.4883 71.5221C35.1161 72.185 34.2364 73.0366 33.6612 72.9834C32.9265 72.9157 32.0371 72.156 31.6263 71.4543C30.2728 69.1269 29.1031 66.6881 27.3292 64.3946V82.419H21.1857V53.8508C22.6696 53.8508 24.1197 53.6815 25.5021 53.9234C26.1836 54.0444 26.9473 54.8041 27.3098 55.4767C29.3545 59.2993 31.2879 63.18 33.4872 67.4817C34.1591 66.3059 34.6714 65.4736 35.1161 64.6026C36.7015 61.5252 38.1855 58.3945 39.8917 55.3896C40.3026 54.6686 41.4143 53.9379 42.2215 53.9137C46.9874 53.7928 46.1077 53.5557 46.1319 57.6203C46.1754 64.8688 46.1416 72.1173 46.1416 79.3658C46.1416 80.319 46.1416 81.2722 46.1416 82.3948H39.9256V64.3946C39.6984 64.3607 39.476 64.322 39.2488 64.2881Z" fill="black"/>
<path d="M47.8188 82.5594C50.4532 73.1286 52.9763 64.0849 55.5381 55.0509C55.6638 54.6009 56.1713 53.9525 56.529 53.9331C58.6123 53.8267 60.7101 53.8267 62.7934 53.9331C63.1607 53.9525 63.6972 54.5718 63.8132 55.0073C66.2397 64.08 68.613 73.1673 71.0492 82.4336H64.4319C64.0791 81.069 63.6151 79.7045 63.3927 78.3012C63.1655 76.8738 62.426 76.3899 61.0871 76.506C60.5264 76.5544 59.9609 76.5109 59.4002 76.5109C55.0354 76.5109 54.9822 76.4964 53.9769 80.7206C53.6385 82.1529 53.0053 82.7432 51.5262 82.5836C50.4193 82.4626 49.2883 82.5594 47.8188 82.5594ZM59.2938 60.2187C59.0908 60.209 58.8878 60.2042 58.68 60.1945C57.7132 64.322 56.7465 68.4495 55.7411 72.7463H62.1505C61.1548 68.3769 60.2267 64.2978 59.2938 60.2187Z" fill="black"/>
<path d="M82.1809 66.3591C83.2105 63.4123 84.24 60.4703 85.2696 57.5235C86.2556 54.7009 88.4275 53.575 91.7853 54.146C90.5817 57.2332 89.5328 60.3397 88.1794 63.301C85.4387 69.3108 83.3361 75.4125 84.7185 82.361H78.0868C80.0541 72.0399 74.0701 63.601 71.1603 53.8896C73.1566 53.8896 75.0368 53.788 76.8929 53.9622C77.3425 54.0057 77.8645 54.9202 78.0723 55.5299C79.3001 59.1009 80.4408 62.701 81.6154 66.2865L82.1809 66.3591Z" fill="black"/>
<path d="M59.2938 60.2186C60.2218 64.2977 61.1547 68.372 62.1504 72.7463H55.7411C56.7465 68.4494 57.7132 64.3219 58.6799 60.1945C58.8829 60.2041 59.0859 60.209 59.2938 60.2186Z" fill="#C599B6"/>
</g>
<defs>
<clipPath id="clip0_2_435">
<rect width="113" height="104" fill="white"/>
</clipPath>
</defs>
</svg>
