<svg width="115" height="106" viewBox="0 0 115 106" fill="none" xmlns="http://www.w3.org/2000/svg">
<g clip-path="url(#clip0_26_661)">
<path d="M16.4827 13.4246C16.4827 15.7335 16.4581 17.7662 16.4827 19.8038C16.586 27.1155 22.3015 33.0162 29.3009 33.0507C36.6495 33.0902 42.6159 27.2339 42.7389 19.8334C42.7733 17.7958 42.7438 15.7582 42.7438 13.5676H72.271C72.271 15.8766 72.1578 18.151 72.2906 20.4156C72.6989 27.2487 77.7996 32.434 84.5432 32.9915C90.7703 33.5046 96.8941 29.1284 98.1287 22.8627C98.7092 19.9271 98.5026 16.8288 98.66 13.6762C101.926 13.6762 105.217 13.2815 108.37 13.7749C112.27 14.3817 114.897 18.1905 114.951 22.4976C115.02 28.5808 114.975 34.664 114.975 40.7472C114.975 58.918 114.975 77.0887 114.97 95.2644C114.97 102.699 111.714 105.995 104.4 105.995C73.0038 105.995 41.6076 105.995 10.2113 105.995C3.40376 105.995 0 102.561 0 95.6492C0 71.637 0 47.6297 0.00491873 23.6175C0.00491873 16.8929 3.45295 13.4344 10.1228 13.4246C12.1493 13.4246 14.1709 13.4246 16.4827 13.4246ZM9.74401 43.0414V96.0488H105.246V43.0414H9.74401Z" fill="black"/>
<path d="M22.6262 13.2716C22.6262 11.0564 22.5524 8.84117 22.6409 6.63088C22.7836 3.03917 25.5135 0.261508 29.0009 0.0197582C32.7243 -0.236793 36.0592 2.07217 36.3003 5.76256C36.6298 10.8196 36.6446 15.9259 36.315 20.9829C36.074 24.6832 32.7588 26.9823 29.0254 26.7405C25.5184 26.5136 22.7934 23.7606 22.6458 20.159C22.5524 17.8649 22.6262 15.5658 22.6262 13.2716Z" fill="black"/>
<path d="M92.364 13.3357C92.364 15.5509 92.423 17.7661 92.3541 19.9764C92.2312 23.7359 89.521 26.5382 85.9057 26.7454C82.0838 26.9625 78.8424 24.5401 78.621 20.677C78.3358 15.7828 78.3456 10.8392 78.6555 5.94504C78.8916 2.21025 82.0937 -0.157915 85.8122 0.00982961C89.4128 0.172641 92.2164 2.98977 92.3541 6.69496C92.4378 8.90524 92.3689 11.1205 92.3689 13.3357H92.364Z" fill="black"/>
<path d="M9.74401 43.0414H105.246V96.0488H9.74401V43.0414ZM21.9769 54.8773V83.8083H28.2139V65.6919C31.3569 70.6996 34.0081 75.7763 36.6495 80.8531C38.5186 84.4448 39.3105 84.7753 43.4226 83.6011V55.0401H37.3135V72.53C36.497 72.0859 36.1133 71.5136 35.7936 70.9068C33.2752 66.1112 30.806 61.296 28.2335 56.5301C27.8646 55.8492 27.0973 55.0697 26.4087 54.9513C25.0019 54.7046 23.5214 54.8773 21.9769 54.8773ZM46.2164 69.3576C46.9247 72.4954 47.2838 75.7171 48.4003 78.6477C50.0334 82.9203 53.6978 84.3954 58.0804 84.356C62.3843 84.3165 65.8815 82.7476 67.485 78.5786C69.7722 72.6385 69.8657 66.5109 67.6424 60.5263C66.0389 56.2094 62.4286 54.5812 58.0902 54.5516C53.6978 54.522 49.8661 55.9429 48.2429 60.4079C47.2248 63.2102 46.8903 66.2593 46.2164 69.3576ZM82.5118 76.7384C82.3199 76.7532 82.1232 76.763 81.9314 76.7778C80.259 69.4957 78.5817 62.2087 76.9192 54.971H70.3281C72.3988 63.0524 74.4204 70.9956 76.4666 78.9289C77.8095 84.1389 77.8242 84.0698 83.1217 84.0797C84.7055 84.0797 85.4384 83.6061 85.8368 82.0519C87.2977 76.324 88.8864 70.6305 90.4162 64.9222C91.2819 61.6857 92.123 58.4443 93.028 55.0055H87.5535C85.8713 62.258 84.194 69.4957 82.5118 76.7334V76.7384Z" fill="#C599B6"/>
<path d="M21.9769 54.8772C23.5165 54.8772 24.997 54.7046 26.4087 54.9512C27.0973 55.0697 27.8695 55.8492 28.2335 56.53C30.806 61.296 33.2802 66.1112 35.7936 70.9068C36.1133 71.5136 36.497 72.081 37.3135 72.5299V55.0401H43.4226V83.6011C39.3154 84.7753 38.5235 84.4448 36.6495 80.853C34.0032 75.7763 31.3569 70.7045 28.2139 65.6919V83.8083H21.9769V54.8772Z" fill="black"/>
<path d="M46.2164 69.3576C46.8903 66.2592 47.2248 63.2053 48.243 60.4079C49.8661 55.938 53.6978 54.522 58.0903 54.5516C62.4286 54.5812 66.0389 56.2093 67.6424 60.5263C69.8657 66.5158 69.7722 72.6385 67.485 78.5786C65.8815 82.7476 62.3794 84.3165 58.0804 84.3559C53.6978 84.3954 50.0334 82.9202 48.4003 78.6477C47.2789 75.7171 46.9247 72.4954 46.2164 69.3576ZM53.1223 69.3921C53.4716 71.8639 53.7323 74.7205 54.3225 77.508C54.6963 79.2644 55.8178 80.6606 57.8886 80.6655C60.0528 80.6655 61.1792 79.2644 61.6219 77.3797C62.8516 72.1155 62.9155 66.8118 61.6563 61.5426C61.2087 59.6678 60.0676 58.2321 57.9279 58.2173C55.685 58.2025 54.4406 59.6678 54.052 61.661C53.5847 64.0588 53.4519 66.5256 53.1223 69.3822V69.3921Z" fill="black"/>
<path d="M82.5118 76.7384C84.1891 69.5007 85.8713 62.263 87.5535 55.0105H93.028C92.123 58.4493 91.2819 61.6907 90.4162 64.9272C88.8865 70.6354 87.3026 76.3289 85.8368 82.0569C85.4384 83.6061 84.7055 84.0846 83.1217 84.0846C77.8193 84.0748 77.8095 84.1488 76.4666 78.9339C74.4205 70.9956 72.3989 63.0573 70.3281 54.976H76.9192C78.5817 62.2137 80.259 69.5007 81.9314 76.7828C82.1232 76.768 82.3199 76.7581 82.5118 76.7433V76.7384Z" fill="black"/>
<path d="M53.1223 69.3921C53.447 66.5355 53.5798 64.0686 54.052 61.6709C54.4406 59.6777 55.6801 58.2124 57.9279 58.2272C60.0676 58.237 61.2038 59.6727 61.6563 61.5525C62.9155 66.8216 62.8516 72.1253 61.6219 77.3896C61.1841 79.2742 60.0528 80.6803 57.8886 80.6754C55.8227 80.6754 54.6963 79.2742 54.3225 77.5178C53.7323 74.7303 53.4716 71.8737 53.1223 69.4019V69.3921Z" fill="#C599B6"/>
</g>
<defs>
<clipPath id="clip0_26_661">
<rect width="115" height="106" fill="white"/>
</clipPath>
</defs>
</svg>
