<svg width="115" height="106" viewBox="0 0 115 106" fill="none" xmlns="http://www.w3.org/2000/svg">
<g clip-path="url(#clip0_2_393)">
<path d="M42.7227 13.5217H72.2576C72.2576 15.4886 72.2478 17.421 72.2576 19.3583C72.3068 27.1223 77.9867 33.0131 85.4012 32.9984C92.7911 32.9836 98.4268 27.078 98.476 19.2794C98.4907 17.4111 98.476 15.5478 98.476 13.5316C101.758 13.5316 104.795 13.2457 107.758 13.6006C111.944 14.1034 114.764 17.978 114.902 22.8977C114.985 25.9343 114.951 28.9758 114.951 32.0124C114.951 53.1158 114.872 74.2192 115 95.3226C115.034 100.957 111.811 106.054 104.451 106C72.9406 105.788 41.4305 105.911 9.91539 105.911C3.67528 105.911 0.0638677 102.52 0.0442138 96.2444C-0.0196614 71.858 -0.0196614 47.4666 0.0442138 23.0801C0.0589542 16.79 3.64088 13.433 9.90557 13.4231C11.9397 13.4231 13.9739 13.4231 16.3864 13.4231C16.3864 15.7104 16.3226 17.8104 16.3963 19.9104C16.637 26.7773 21.4768 32.116 28.1641 32.9589C34.3059 33.7279 40.4723 29.5674 42.1282 23.3562C42.5851 21.6407 42.5851 19.7872 42.6932 17.9928C42.7817 16.5435 42.7129 15.0844 42.7129 13.5267L42.7227 13.5217ZM9.45844 43.0152C9.45844 44.7208 9.45844 46.18 9.45844 47.644C9.46827 62.832 9.53214 78.0248 9.43387 93.2127C9.41913 95.5937 10.1021 96.2198 12.4458 96.2148C42.4819 96.1409 72.518 96.1655 102.549 96.1606C103.419 96.1606 104.289 96.0768 105.203 96.0275V43.0201H9.45844V43.0152Z" fill="black"/>
<path d="M78.3749 13.231C78.3749 11.1803 78.3209 9.12957 78.3848 7.08381C78.5223 2.943 81.4213 0.0148454 85.3177 5.68094e-05C89.2337 -0.0147318 92.2162 2.85919 92.3243 7.00494C92.4373 11.2641 92.4422 15.5281 92.3243 19.7872C92.2113 23.9133 89.2092 26.7675 85.2735 26.728C81.3427 26.6886 78.4978 23.7851 78.3848 19.6196C78.3258 17.4901 78.3749 15.3605 78.3749 13.226V13.231Z" fill="black"/>
<path d="M36.4777 13.3492C36.4777 15.5626 36.5415 17.771 36.4678 19.9795C36.3401 23.8639 33.5247 26.6343 29.7609 26.6935C25.8744 26.7527 22.8772 24.2534 22.7101 20.3837C22.5087 15.7253 22.5136 11.0471 22.7052 6.3887C22.8624 2.55352 25.9481 -0.0690006 29.7216 0.00494258C33.4461 0.0788857 36.3204 2.89366 36.4629 6.71898C36.5465 8.92742 36.4777 11.1408 36.4826 13.3492H36.4777Z" fill="black"/>
<path d="M9.45846 43.0152H105.207V96.0226C104.294 96.0719 103.424 96.1557 102.554 96.1557C72.5181 96.1606 42.482 96.136 12.4508 96.2099C10.1021 96.2148 9.42406 95.5888 9.4388 93.2078C9.53216 78.0199 9.4732 62.827 9.46337 47.6391C9.46337 46.18 9.46337 44.7159 9.46337 43.0103L9.45846 43.0152ZM48.6631 69.1615C48.1963 66.5094 47.9851 63.8672 47.2333 61.3925C45.8526 56.8179 42.4279 54.57 37.3621 54.4764C32.2472 54.3827 28.6161 56.6454 27.1322 61.2594C25.3487 66.8002 25.4518 72.4446 27.3533 77.9311C28.8864 82.348 32.4388 84.3839 37.6127 84.2804C42.4132 84.1818 45.7691 82.0079 47.1105 77.5959C47.931 74.8847 48.1619 71.996 48.6582 69.1566L48.6631 69.1615ZM88.8603 54.9693H68.715V58.6961H75.6136V83.8368H82.0404V58.5975H88.8652V54.9693H88.8603ZM67.3245 80.3121C66.6317 80.3861 66.2239 80.4255 65.821 80.4699C60.6815 80.9973 58.6719 79.5875 57.984 74.4361C57.5958 71.5326 57.4877 68.5305 57.7088 65.6122C58.0724 60.8207 59.7676 56.7735 66.671 58.5778C66.8135 58.6172 66.9855 58.5433 67.7422 58.4348C67.2999 57.1975 67.1869 55.3341 66.4352 55.0236C60.5144 52.5736 53.2277 56.039 51.8667 62.3144C51.0167 66.2284 51.0216 70.453 51.3557 74.4805C52.1713 84.3396 61.4136 85.641 67.3245 83.4079V80.3121Z" fill="#C599B6"/>
<path d="M48.6631 69.1615C48.1619 71.996 47.9359 74.8896 47.1154 77.6009C45.774 82.0128 42.4181 84.1867 37.6176 84.2853C32.4437 84.3889 28.8913 82.353 27.3583 77.9361C25.4518 72.4495 25.3536 66.8052 27.1372 61.2644C28.621 56.6454 32.2521 54.3877 37.367 54.4813C42.4328 54.575 45.8526 56.8229 47.2382 61.3975C47.9851 63.877 48.1963 66.5143 48.668 69.1664L48.6631 69.1615ZM41.9562 69.1023C41.6516 66.6819 41.4649 64.1432 40.9686 61.6637C40.5755 59.6918 39.3963 58.1538 37.1361 58.1785C34.9005 58.1982 33.7114 59.6918 33.3036 61.6883C32.2324 66.889 32.198 72.1192 33.5198 77.2854C33.9915 79.1241 35.0528 80.6424 37.2294 80.6128C39.5142 80.5833 40.605 78.991 40.9735 77.029C41.455 74.4608 41.6319 71.8382 41.9562 69.1023Z" fill="black"/>
<path d="M88.8603 54.9694V58.5975H82.0354V83.8368H75.6086V58.6961H68.7101V54.9694H88.8554H88.8603Z" fill="black"/>
<path d="M67.3245 80.3121V83.4078C61.4136 85.6409 52.1713 84.3395 51.3557 74.4804C51.0216 70.453 51.0167 66.2284 51.8667 62.3143C53.2277 56.039 60.5144 52.5785 66.4352 55.0235C67.1869 55.3341 67.2999 57.1975 67.7422 58.4348C66.9855 58.5432 66.8135 58.6122 66.671 58.5777C59.7676 56.7686 58.0724 60.8207 57.7088 65.6122C57.4877 68.5354 57.5958 71.5326 57.984 74.4361C58.6719 79.5875 60.6766 80.9973 65.821 80.4698C66.2288 80.4304 66.6317 80.386 67.3245 80.3121Z" fill="black"/>
<path d="M41.9562 69.1024C41.6319 71.8383 41.455 74.4657 40.9735 77.0291C40.605 78.9911 39.5142 80.5833 37.2294 80.6129C35.0528 80.6425 33.9914 79.1192 33.5197 77.2854C32.198 72.1193 32.2324 66.889 33.3036 61.6884C33.7114 59.6968 34.9004 58.2032 37.1361 58.1785C39.3963 58.1588 40.5755 59.6919 40.9686 61.6637C41.4648 64.1433 41.6516 66.682 41.9562 69.1024Z" fill="#C599B6"/>
</g>
<defs>
<clipPath id="clip0_2_393">
<rect width="115" height="106" fill="white"/>
</clipPath>
</defs>
</svg>
