<svg width="116" height="107" viewBox="0 0 116 107" fill="none" xmlns="http://www.w3.org/2000/svg">
<g clip-path="url(#clip0_2_384)">
<path d="M16.6621 13.5435C16.6621 15.7676 16.6472 17.733 16.6621 19.6983C16.7364 27.3756 22.4539 33.2966 29.8212 33.3314C37.2035 33.3663 43.0002 27.4752 43.0944 19.8277C43.1192 17.8524 43.0944 15.8771 43.0944 13.7226H72.9651C72.9651 15.7129 72.9503 17.6782 72.9651 19.6436C73.0444 27.4204 78.6034 33.2369 86.0153 33.3314C93.3232 33.421 99.1894 27.5548 99.4173 19.8973C99.4767 17.9171 99.4272 15.9318 99.4272 13.4291C102.925 13.5982 106.324 13.3843 109.559 14.0162C113.121 14.7128 115.014 17.524 115.718 21.0467C115.911 22.012 115.926 23.027 115.926 24.0171C115.936 48.1388 115.866 72.2554 115.985 96.3771C116.015 102.532 112.368 107.06 105.254 107.01C73.5597 106.786 41.8657 106.806 10.1716 107C3.68618 107.04 0.0198443 102.258 0.0297534 96.7503C0.094162 72.6187 0.138753 48.497 2.62876e-05 24.3803C-0.0346553 18.4644 3.26505 12.8917 10.7464 13.5186C12.6093 13.6779 14.5019 13.5435 16.6621 13.5435ZM9.97841 43.2478C9.8496 43.8996 9.73564 44.213 9.73564 44.5265C9.72078 61.349 9.74555 78.1714 9.68114 94.9939C9.67619 96.9144 10.568 97.0737 12.1089 97.0737C42.5593 97.0339 73.0097 97.009 103.46 97.0836C105.888 97.0886 106.458 96.3622 106.443 94.0137C106.344 78.1863 106.393 62.359 106.393 46.5317C106.393 44.3457 105.338 43.2511 103.227 43.2478C73.1088 43.2478 42.9854 43.2478 12.8669 43.2478H9.97346H9.97841Z" fill="black"/>
<path d="M36.9309 13.6231C36.9309 15.7726 37.0053 17.927 36.9161 20.0764C36.7526 24.042 33.7204 27.0423 29.9649 27.0671C26.2639 27.092 23.0979 24.3306 22.9245 20.4695C22.7115 15.8472 22.7065 11.2 22.9146 6.57768C23.088 2.59223 26.3184 -0.124439 30.1928 -4.91445e-05C33.8938 0.124341 36.7575 3.02511 36.9161 6.91602C37.0053 9.14508 36.9309 11.3841 36.9309 13.6181V13.6231Z" fill="black"/>
<path d="M93.1349 13.4789C93.1349 15.7925 93.2588 18.1161 93.1052 20.4198C92.8426 24.4102 89.7262 27.1816 85.8865 27.0324C82.1359 26.8881 79.297 24.047 79.2078 20.1113C79.1087 15.6482 79.1037 11.1801 79.2078 6.71704C79.3019 2.88087 82.3044 0.0497579 86.0648 0.00995319C89.86 -0.0298515 92.8476 2.68682 93.0606 6.5429C93.1894 8.85157 93.0854 11.1702 93.0854 13.4838C93.1002 13.4838 93.1151 13.4838 93.13 13.4838L93.1349 13.4789Z" fill="black"/>
<path d="M9.97837 43.2478H12.8718C42.9903 43.2478 73.1137 43.2478 103.232 43.2478C105.34 43.2478 106.395 44.3424 106.398 46.5317C106.398 62.359 106.349 78.1864 106.448 94.0137C106.463 96.3672 105.888 97.0886 103.465 97.0837C73.0146 97.009 42.5642 97.0339 12.1138 97.0737C10.5729 97.0737 9.67615 96.9145 9.68606 94.9939C9.74551 78.1714 9.72569 61.349 9.74056 44.5265C9.74056 44.2131 9.85451 43.8996 9.98333 43.2478H9.97837ZM74.2037 73.987C75.913 73.987 77.2309 74.1014 78.524 73.9671C81.903 73.6138 84.8559 72.3948 86.0797 68.897C87.4124 65.0857 87.6255 61.2047 85.1086 57.7666C84.3456 56.7267 82.9137 55.6967 81.69 55.5624C77.1516 55.0598 72.5737 54.9305 67.966 54.6568V84.2068H74.1988V73.992L74.2037 73.987ZM49.6293 54.9852V84.2068H65.137V80.5747H56.0306V70.1657H63.061V66.5087H55.981V58.6224H64.9784V54.9902H49.6244L49.6293 54.9852ZM44.9027 58.5776C45.2842 55.0151 45.2446 54.9056 42.1034 54.7613C40.2158 54.6718 38.3033 54.617 36.4305 54.831C32.7344 55.2489 30.1928 57.4183 29.41 60.528C28.5132 64.1055 29.6973 67.5685 32.6799 69.7329C34.2109 70.8424 35.8954 71.743 37.466 72.7978C39.9829 74.4796 40.8202 76.2559 40.0027 78.3605C39.0465 80.8284 36.8616 81.0871 34.6568 80.9727C32.888 80.8831 31.1341 80.5299 29.3059 80.2861V84.4954C32.4025 84.4954 35.3405 84.6447 38.2637 84.4606C42.4998 84.1919 45.423 81.9579 46.3148 78.6342C47.5138 74.186 46.2305 70.6683 42.3809 68.0959C40.8103 67.0411 38.888 66.3793 37.6047 65.0658C36.6089 64.0408 35.8409 62.2645 35.8954 60.8564C35.9747 58.9508 37.8624 58.3288 39.5865 58.2791C41.3008 58.2293 43.025 58.4631 44.8879 58.5826L44.9027 58.5776Z" fill="#C599B6"/>
<path d="M74.2037 73.987V84.2019H67.9709V54.6519C72.5786 54.9255 77.1566 55.0499 81.6949 55.5574C82.9187 55.6918 84.3506 56.7217 85.1136 57.7616C87.6304 61.1997 87.4125 65.0807 86.0846 68.892C84.8609 72.3898 81.908 73.6088 78.529 73.9621C77.2359 74.0964 75.918 73.982 74.2087 73.982L74.2037 73.987ZM74.1988 58.7716C74.1988 62.3242 74.1591 65.7673 74.2483 69.2054C74.2582 69.6333 74.9023 70.3299 75.3482 70.4195C77.657 70.8772 79.6487 69.5537 80.1244 67.2202C80.3671 66.0261 80.4018 64.7623 80.3622 63.5333C80.2235 59.3239 78.8956 58.2442 74.1938 58.7716H74.1988Z" fill="black"/>
<path d="M49.6293 54.9852H64.9834V58.6174H55.986V66.5037H63.066V70.1607H56.0355V80.5697H65.1419V84.2018H49.6343V54.9802L49.6293 54.9852Z" fill="black"/>
<path d="M44.9027 58.5776C43.0398 58.4582 41.3157 58.2293 39.6014 58.2741C37.8772 58.3238 35.9896 58.9458 35.9103 60.8514C35.8508 62.2546 36.6188 64.0358 37.6196 65.0608C38.8979 66.3743 40.8202 67.0411 42.3957 68.0909C46.2454 70.6683 47.5286 74.181 46.3296 78.6292C45.4378 81.9529 42.5146 84.187 38.2785 84.4556C35.3554 84.6397 32.4124 84.4905 29.3208 84.4905V80.2811C31.149 80.5249 32.9078 80.8782 34.6717 80.9677C36.8764 81.0772 39.0613 80.8234 40.0176 78.3556C40.8351 76.2459 39.9928 74.4746 37.4809 72.7929C35.9053 71.738 34.2257 70.8374 32.6948 69.7279C29.7072 67.5635 28.5281 64.0955 29.4248 60.5231C30.2027 57.4083 32.7443 55.244 36.4454 54.826C38.3132 54.6121 40.2306 54.6718 42.1183 54.7564C45.2594 54.9056 45.2991 55.0151 44.9176 58.5726L44.9027 58.5776Z" fill="black"/>
<path d="M74.1988 58.7716C78.9006 58.2393 80.2284 59.3239 80.3671 63.5333C80.4068 64.7623 80.3721 66.0211 80.1293 67.2202C79.6537 69.5537 77.662 70.8772 75.3532 70.4195C74.9073 70.3299 74.2632 69.6383 74.2533 69.2055C74.1641 65.7673 74.2037 62.3242 74.2037 58.7716H74.1988Z" fill="#C599B6"/>
</g>
<defs>
<clipPath id="clip0_2_384">
<rect width="116" height="107" fill="white"/>
</clipPath>
</defs>
</svg>
