<svg width="105" height="105" viewBox="0 0 105 105" fill="none" xmlns="http://www.w3.org/2000/svg">
<g clip-path="url(#clip0_122_2)">
<path d="M52.2932 69.6766C49.0249 73.0159 45.8761 76.2855 42.6726 79.5003C35.4733 86.7263 28.264 93.9422 21.0299 101.138C15.9082 106.234 8.36013 106.284 3.47259 101.308C-1.3751 96.3708 -1.09609 88.8114 4.00568 83.7503C14.0747 73.7674 24.0939 63.7297 34.1281 53.7069C34.4719 53.3635 34.7409 52.9505 35.2939 52.2637C30.0626 47.118 24.8463 42.027 19.6697 36.9012C14.3637 31.6509 9.08255 26.3758 3.8064 21.0957C-1.12101 16.1739 -1.28044 8.4254 3.43273 3.6529C8.21067 -1.18928 15.8434 -1.25895 20.8605 3.69768C30.7103 13.4268 40.4705 23.2505 50.2455 33.0593C50.9381 33.751 51.4463 34.6219 52.4128 35.9009C56.0149 32.1436 59.0591 28.8889 62.1929 25.7238C69.3673 18.473 76.5715 11.257 83.8007 4.056C89.0719 -1.19923 96.5701 -1.32862 101.567 3.68773C106.325 8.46023 106.076 16.2087 100.989 21.2848C91.0697 31.1881 81.1452 41.0864 71.2306 50.9897C70.7673 51.4526 70.3438 51.9651 69.6413 52.7465C75.4705 58.4744 81.2697 64.1527 87.0441 69.8608C91.8769 74.6383 96.7046 79.4257 101.488 84.2579C106.221 89.0404 106.166 96.8137 101.433 101.502C96.7594 106.13 89.1416 106.209 84.3786 101.502C74.3495 91.5933 64.405 81.5955 54.4157 71.6424C53.8427 71.0701 53.2249 70.5376 52.2982 69.6816L52.2932 69.6766Z" fill="black"/>
</g>
<defs>
<clipPath id="clip0_122_2">
<rect width="105" height="105" fill="white"/>
</clipPath>
</defs>
</svg>
