<svg width="1518" height="744" viewBox="0 0 1518 744" fill="none" xmlns="http://www.w3.org/2000/svg">
<path d="M40.0293 2.5V5H50.085V2.5H60.1406V5H70.1963V2.5H80.252V5H90.3066V2.5H100.362V5H110.418V2.5H120.474V5H130.529V2.5H140.585V5H150.641V2.5H160.695V5H170.751V2.5H180.807V5H190.862V2.5H200.918V5H210.974V2.5H221.029V5H231.085V2.5H241.141V5H251.195V2.5H261.251V5H271.307V2.5H281.362V5H291.418V2.5H301.474V5H311.529V2.5H321.585V5H331.64V2.5H341.695V5H351.751V2.5H361.807V5H371.862V2.5H381.918V5H391.974V2.5H402.028V5H412.084V2.5H422.14V5H432.195V2.5H442.251V5H452.307V2.5H462.362V5H472.418V2.5H482.474V5H492.528V2.5H502.584V5H512.64V2.5H522.695V5H532.751V2.5H542.807V5H552.862V2.5H562.918V5H572.973V2.5H583.028V5H593.084V2.5H603.14V5H613.195V2.5H623.251V5H633.307V2.5H643.362V5H653.417V2.5H663.473V5H673.528V2.5H683.584V5H693.64V2.5H703.695V5H713.751V2.5H723.807V5H733.861V2.5H743.917V5H753.973V2.5H764.028V5H774.084V2.5H784.14V5H794.195V2.5H804.251V5H814.306V2.5H824.361V5H834.417V2.5H844.473V5H854.528V2.5H864.584V5H874.64V2.5H884.695V5H894.75V2.5H904.806V5H914.861V2.5H924.917V5H934.973V2.5H945.028V5H955.084V2.5H965.14V5H975.194V2.5H985.25V5H995.306V2.5H1005.36V5H1015.42V2.5H1025.47V5H1035.53V2.5H1045.58V5H1055.64V2.5H1065.69V5H1075.75V2.5H1085.81V5H1095.86V2.5H1105.92V5H1115.97V2.5H1126.03V5H1136.08V2.5H1146.14V5H1156.19V2.5H1166.25V5H1176.31V2.5H1186.36V5H1196.42V2.5H1206.47V5H1216.53V2.5H1226.58V5H1236.64V2.5H1246.69V5H1256.75V2.5H1266.81V5H1276.86V2.5H1286.92V5H1296.97V2.5H1307.03V5H1317.08V2.5H1327.14V5H1337.19V2.5H1347.25V5H1357.31V2.5H1367.36V5H1377.42V2.5H1387.47V5H1397.53V2.5H1407.58V5H1417.64V2.5H1427.69V5H1437.75V2.5H1447.81V5H1457.86V2.5H1467.92V5H1477.97V2.5H1483C1485.17 2.5 1487.29 2.71214 1489.34 3.11816L1488.85 5.57129L1488.85 5.57227C1492.79 6.35082 1496.45 7.89863 1499.67 10.0537L1499.67 10.0527L1501.06 7.97559C1504.6 10.3476 1507.65 13.3975 1510.02 16.9404L1507.95 18.3311L1507.95 18.332C1510.1 21.5509 1511.65 25.2095 1512.43 29.1455H1512.43L1514.88 28.6602C1515.29 30.7126 1515.5 32.8328 1515.5 35V39.9561H1513V49.8682H1515.5V59.7793H1513V69.6914H1515.5V79.6025H1513V89.5146H1515.5V99.4268H1513V109.338H1515.5V119.25H1513V129.162H1515.5V139.073H1513V148.985H1515.5V158.897H1513V168.809H1515.5V178.721H1513V188.632H1515.5V198.544H1513V208.456H1515.5V218.367H1513V228.279H1515.5V238.191H1513V248.103H1515.5V258.015H1513V267.927H1515.5V277.838H1513V287.75H1515.5V297.662H1513V307.573H1515.5V317.485H1513V327.397H1515.5V337.309H1513V347.221H1515.5V357.133H1513V367.044H1515.5V376.956H1513V386.867H1515.5V396.779H1513V406.691H1515.5V416.603H1513V426.515H1515.5V436.427H1513V446.338H1515.5V456.25H1513V466.162H1515.5V476.073H1513V485.985H1515.5V495.897H1513V505.809H1515.5V515.721H1513V525.633H1515.5V535.544H1513V545.456H1515.5V555.367H1513V565.279H1515.5V575.191H1513V585.103H1515.5V595.015H1513V604.927H1515.5V614.838H1513V624.75H1515.5V634.662H1513V644.573H1515.5V654.485H1513V664.397H1515.5V674.309H1513V684.221H1515.5V694.133H1513V704.044H1515.5V709C1515.5 711.167 1515.29 713.287 1514.88 715.34L1512.43 714.854L1512.43 714.854C1511.65 718.79 1510.1 722.448 1507.95 725.667L1507.95 725.669L1510.02 727.06C1507.65 730.603 1504.6 733.652 1501.06 736.024L1499.67 733.947L1499.67 733.945C1496.45 736.101 1492.79 737.648 1488.85 738.427L1488.85 738.429L1489.34 740.882C1487.29 741.288 1485.17 741.5 1483 741.5H1477.97V739H1467.92V741.5H1457.86V739H1447.8V741.5H1437.75V739H1427.69V741.5H1417.64V739H1407.58V741.5H1397.53V739H1387.47V741.5H1377.42V739H1367.36V741.5H1357.3V739H1347.25V741.5H1337.19V739H1327.14V741.5H1317.08V739H1307.03V741.5H1296.97V739H1286.92V741.5H1276.86V739H1266.8V741.5H1256.75V739H1246.69V741.5H1236.64V739H1226.58V741.5H1216.53V739H1206.47V741.5H1196.42V739H1186.36V741.5H1176.3V739H1166.25V741.5H1156.19V739H1146.14V741.5H1136.08V739H1126.03V741.5H1115.97V739H1105.92V741.5H1095.86V739H1085.8V741.5H1075.75V739H1065.69V741.5H1055.64V739H1045.58V741.5H1035.53V739H1025.47V741.5H1015.42V739H1005.36V741.5H995.305V739H985.249V741.5H975.193V739H965.138V741.5H955.082V739H945.027V741.5H934.972V739H924.916V741.5H914.86V739H904.805V741.5H894.749V739H884.693V741.5H874.638V739H864.583V741.5H854.527V739H844.472V741.5H834.416V739H824.36V741.5H814.305V739H804.249V741.5H794.193V739H784.139V741.5H774.083V739H764.027V741.5H753.972V739H743.916V741.5H733.86V739H723.805V741.5H713.749V739H703.694V741.5H693.639V739H683.583V741.5H673.527V739H663.472V741.5H653.416V739H643.36V741.5H633.305V739H623.25V741.5H613.194V739H603.139V741.5H593.083V739H583.027V741.5H572.972V739H562.916V741.5H552.86V739H542.806V741.5H532.75V739H522.694V741.5H512.639V739H502.583V741.5H492.527V739H482.472V741.5H472.416V739H462.361V741.5H452.306V739H442.25V741.5H432.194V739H422.139V741.5H412.083V739H402.027V741.5H391.972V739H381.917V741.5H371.861V739H361.806V741.5H351.75V739H341.694V741.5H331.639V739H321.583V741.5H311.527V739H301.473V741.5H291.417V739H281.361V741.5H271.306V739H261.25V741.5H251.194V739H241.139V741.5H231.083V739H221.027V741.5H210.973V739H200.917V741.5H190.861V739H180.806V741.5H170.75V739H160.694V741.5H150.639V739H140.583V741.5H130.527V739H120.473V741.5H110.417V739H100.361V741.5H90.3057V739H80.25V741.5H70.1943V739H60.1387V741.5H50.083V739H40.0273V741.5H35C32.8328 741.5 30.7126 741.288 28.6602 740.882L29.1455 738.429V738.427C25.2092 737.648 21.55 736.101 18.3311 733.945V733.947L16.9404 736.024C13.3975 733.652 10.3476 730.603 7.97559 727.06L10.0527 725.669L10.0537 725.668C7.89863 722.449 6.35082 718.79 5.57227 714.854L5.57129 714.854L3.11816 715.34C2.71214 713.287 2.5 711.167 2.5 709V704.044H5V694.132H2.5V684.221H5V674.309H2.5V664.397H5V654.485H2.5V644.573H5V634.662H2.5V624.75H5V614.838H2.5V604.927H5V595.015H2.5V585.103H5V575.191H2.5V565.279H5V555.368H2.5V545.456H5V535.544H2.5V525.633H5V515.721H2.5V505.809H5V495.897H2.5V485.985H5V476.073H2.5V466.162H5V456.25H2.5V446.338H5V436.427H2.5V426.515H5V416.603H2.5V406.691H5V396.779H2.5V386.867H5V376.956H2.5V367.044H5V357.133H2.5V347.221H5V337.309H2.5V327.397H5V317.485H2.5V307.573H5V297.662H2.5V287.75H5V277.838H2.5V267.927H5V258.015H2.5V248.103H5V238.191H2.5V228.279H5V218.367H2.5V208.456H5V198.544H2.5V188.633H5V178.721H2.5V168.809H5V158.897H2.5V148.985H5V139.073H2.5V129.162H5V119.25H2.5V109.338H5V99.4268H2.5V89.5146H5V79.6025H2.5V69.6914H5V59.7793H2.5V49.8672H5V39.9561H2.5V35L2.50977 34.1895C2.55599 32.3037 2.7629 30.456 3.11816 28.6602L5.57129 29.1455H5.57227C6.35094 25.2094 7.89857 21.55 10.0537 18.3311H10.0527L7.97559 16.9404C10.3476 13.3975 13.3975 10.3476 16.9404 7.97559L18.3311 10.0527V10.0537C21.55 7.89857 25.2094 6.35094 29.1455 5.57227V5.57129L28.6602 3.11816C30.7126 2.71214 32.8328 2.5 35 2.5H40.0293Z" fill="#FAD0C4" stroke="#673957" stroke-width="5" stroke-dasharray="10 10"/>
</svg>
