<svg width="1565" height="767" viewBox="0 0 1565 767" fill="none" xmlns="http://www.w3.org/2000/svg">
<path d="M39.9824 2.5V5H49.9492V2.5H59.916V5H69.8828V2.5H79.8496V5H89.8154V2.5H99.7822V5H109.749V2.5H119.716V5H129.683V2.5H139.649V5H149.616V2.5H159.582V5H169.549V2.5H179.516V5H189.482V2.5H199.449V5H209.416V2.5H219.383V5H229.35V2.5H239.316V5H249.282V2.5H259.249V5H269.216V2.5H279.183V5H289.149V2.5H299.116V5H309.083V2.5H319.049V5H329.016V2.5H338.982V5H348.949V2.5H358.916V5H368.883V2.5H378.85V5H388.816V2.5H398.783V5H408.749V2.5H418.716V5H428.683V2.5H438.649V5H448.616V2.5H458.583V5H468.55V2.5H478.517V5H488.482V2.5H498.449V5H508.416V2.5H518.383V5H528.35V2.5H538.316V5H548.283V2.5H558.249V5H568.216V2.5H578.183V5H588.149V2.5H598.116V5H608.083V2.5H618.05V5H628.017V2.5H637.983V5H647.949V2.5H657.916V5H667.883V2.5H677.85V5H687.816V2.5H697.783V5H707.75V2.5H717.716V5H727.683V2.5H737.649V5H747.616V2.5H757.583V5H767.55V2.5H777.517V5H787.483V2.5H797.45V5H807.416V2.5H817.383V5H827.35V2.5H837.316V5H847.283V2.5H857.25V5H867.217V2.5H877.184V5H887.149V2.5H897.116V5H907.083V2.5H917.05V5H927.017V2.5H936.983V5H946.95V2.5H956.916V5H966.883V2.5H976.85V5H986.816V2.5H996.783V5H1006.75V2.5H1016.72V5H1026.68V2.5H1036.65V5H1046.62V2.5H1056.58V5H1066.55V2.5H1076.52V5H1086.48V2.5H1096.45V5H1106.42V2.5H1116.38V5H1126.35V2.5H1136.32V5H1146.28V2.5H1156.25V5H1166.22V2.5H1176.18V5H1186.15V2.5H1196.12V5H1206.08V2.5H1216.05V5H1226.02V2.5H1235.98V5H1245.95V2.5H1255.92V5H1265.88V2.5H1275.85V5H1285.82V2.5H1295.78V5H1305.75V2.5H1315.72V5H1325.68V2.5H1335.65V5H1345.62V2.5H1355.58V5H1365.55V2.5H1375.52V5H1385.48V2.5H1395.45V5H1405.42V2.5H1415.38V5H1425.35V2.5H1435.32V5H1445.28V2.5H1455.25V5H1465.22V2.5H1475.18V5H1485.15V2.5H1495.12V5H1505.08V2.5H1515.05V5H1525.02V2.5H1530C1532.17 2.5 1534.29 2.71215 1536.34 3.11816L1535.85 5.57129L1535.85 5.57227C1539.79 6.35082 1543.45 7.89864 1546.67 10.0537L1546.67 10.0527L1548.06 7.97559C1551.6 10.3476 1554.65 13.3975 1557.02 16.9404L1554.95 18.3311H1554.95C1557.1 21.55 1558.65 25.2092 1559.43 29.1455H1559.43L1561.88 28.6602C1562.29 30.7126 1562.5 32.8328 1562.5 35V39.9785H1560V49.9355H1562.5V59.8926H1560V69.8496H1562.5V79.8066H1560V89.7637H1562.5V99.7207H1560V109.678H1562.5V119.636H1560V129.593H1562.5V139.55H1560V149.507H1562.5V159.464H1560V169.421H1562.5V179.378H1560V189.336H1562.5V199.293H1560V209.25H1562.5V219.207H1560V229.164H1562.5V239.121H1560V249.078H1562.5V259.035H1560V268.993H1562.5V278.95H1560V288.907H1562.5V298.864H1560V308.821H1562.5V318.778H1560V328.735H1562.5V338.692H1560V348.65H1562.5V358.607H1560V368.564H1562.5V378.521H1560V388.479H1562.5V398.436H1560V408.393H1562.5V418.35H1560V428.308H1562.5V438.265H1560V448.222H1562.5V458.179H1560V468.136H1562.5V478.093H1560V488.05H1562.5V498.007H1560V507.964H1562.5V517.922H1560V527.879H1562.5V537.836H1560V547.793H1562.5V557.75H1560V567.707H1562.5V577.664H1560V587.621H1562.5V597.578H1560V607.536H1562.5V617.493H1560V627.45H1562.5V637.407H1560V647.364H1562.5V657.321H1560V667.278H1562.5V677.235H1560V687.192H1562.5V697.15H1560V707.107H1562.5V717.064H1560V727.021H1562.5V732C1562.5 734.167 1562.29 736.287 1561.88 738.34L1559.43 737.854L1559.43 737.854C1558.65 741.79 1557.1 745.449 1554.95 748.668L1554.95 748.669L1557.02 750.06C1554.65 753.603 1551.6 756.652 1548.06 759.024L1546.67 756.947L1546.67 756.945C1543.45 759.101 1539.79 760.648 1535.85 761.427L1535.85 761.429L1536.34 763.882C1534.29 764.288 1532.17 764.5 1530 764.5H1525.02V762H1515.05V764.5H1505.08V762H1495.12V764.5H1485.15V762H1475.18V764.5H1465.22V762H1455.25V764.5H1445.28V762H1435.32V764.5H1425.35V762H1415.38V764.5H1405.42V762H1395.45V764.5H1385.48V762H1375.52V764.5H1365.55V762H1355.58V764.5H1345.62V762H1335.65V764.5H1325.68V762H1315.72V764.5H1305.75V762H1295.78V764.5H1285.82V762H1275.85V764.5H1265.88V762H1255.92V764.5H1245.95V762H1235.98V764.5H1226.02V762H1216.05V764.5H1206.08V762H1196.12V764.5H1186.15V762H1176.18V764.5H1166.22V762H1156.25V764.5H1146.28V762H1136.32V764.5H1126.35V762H1116.38V764.5H1106.42V762H1096.45V764.5H1086.48V762H1076.52V764.5H1066.55V762H1056.58V764.5H1046.62V762H1036.65V764.5H1026.68V762H1016.72V764.5H1006.75V762H996.784V764.5H986.817V762H976.851V764.5H966.884V762H956.917V764.5H946.95V762H936.983V764.5H927.017V762H917.051V764.5H907.084V762H897.117V764.5H887.15V762H877.184V764.5H867.217V762H857.25V764.5H847.284V762H837.317V764.5H827.351V762H817.384V764.5H807.417V762H797.45V764.5H787.483V762H777.517V764.5H767.55V762H757.584V764.5H747.617V762H737.65V764.5H727.684V762H717.717V764.5H707.75V762H697.783V764.5H687.816V762H677.851V764.5H667.884V762H657.917V764.5H647.95V762H637.983V764.5H628.017V762H618.05V764.5H608.083V762H598.117V764.5H588.15V762H578.184V764.5H568.217V762H558.25V764.5H548.283V762H538.316V764.5H528.35V762H518.384V764.5H508.417V762H498.45V764.5H488.483V762H478.517V764.5H468.55V762H458.583V764.5H448.617V762H438.65V764.5H428.684V762H418.717V764.5H408.75V762H398.783V764.5H388.816V762H378.85V764.5H368.883V762H358.917V764.5H348.95V762H338.983V764.5H329.017V762H319.05V764.5H309.083V762H299.116V764.5H289.149V762H279.184V764.5H269.217V762H259.25V764.5H249.283V762H239.316V764.5H229.35V762H219.383V764.5H209.417V762H199.45V764.5H189.483V762H179.517V764.5H169.55V762H159.583V764.5H149.616V762H139.65V764.5H129.684V762H119.717V764.5H109.75V762H99.7832V764.5H89.8164V762H79.8496V764.5H69.8838V762H59.917V764.5H49.9502V762H39.9834V764.5H35C32.8328 764.5 30.7126 764.288 28.6602 763.882L29.1455 761.429V761.427C25.2092 760.648 21.55 759.101 18.3311 756.945V756.947L16.9404 759.024C13.3975 756.652 10.3476 753.603 7.97559 750.06L10.0527 748.669L10.0537 748.668C7.89863 745.449 6.35082 741.79 5.57227 737.854L5.57129 737.854L3.11816 738.34C2.71214 736.287 2.5 734.167 2.5 732V727.021H5V717.064H2.5V707.107H5V697.15H2.5V687.193H5V677.236H2.5V667.279H5V657.322H2.5V647.364H5V637.407H2.5V627.45H5V617.493H2.5V607.536H5V597.579H2.5V587.622H5V577.664H2.5V567.707H5V557.75H2.5V547.793H5V537.836H2.5V527.879H5V517.922H2.5V507.965H5V498.007H2.5V488.05H5V478.093H2.5V468.136H5V458.179H2.5V448.222H5V438.265H2.5V428.308H5V418.35H2.5V408.393H5V398.436H2.5V388.479H5V378.521H2.5V368.564H5V358.607H2.5V348.65H5V338.692H2.5V328.735H5V318.778H2.5V308.821H5V298.864H2.5V288.907H5V278.95H2.5V268.993H5V259.036H2.5V249.078H5V239.121H2.5V229.164H5V219.207H2.5V209.25H5V199.293H2.5V189.336H5V179.379H2.5V169.422H5V159.464H2.5V149.507H5V139.55H2.5V129.593H5V119.636H2.5V109.679H5V99.7217H2.5V89.7646H5V79.8076H2.5V69.8496H5V59.8926H2.5V49.9355H5V39.9785H2.5V35L2.50977 34.1895C2.55599 32.3037 2.7629 30.456 3.11816 28.6602L5.57129 29.1455H5.57227C6.35094 25.2094 7.89857 21.55 10.0537 18.3311H10.0527L7.97559 16.9404C10.3476 13.3975 13.3975 10.3476 16.9404 7.97559L18.3311 10.0527V10.0537C21.55 7.89857 25.2094 6.35094 29.1455 5.57227V5.57129L28.6602 3.11816C30.7126 2.71214 32.8328 2.5 35 2.5H39.9824Z" fill="#FAD0C4" stroke="#673957" stroke-width="5" stroke-dasharray="10 10"/>
</svg>
